SplineFontDB: 3.0
FontName: Rokkitt-Bold
FullName: Rokkitt Bold
FamilyName: Rokkitt
Weight: Bold
Copyright: Copyright (c) 2011 by vernon adams. All rights reserved.
Version: 1.000
ItalicAngle: 0
UnderlinePosition: -103
UnderlineWidth: 102
Ascent: 1638
Descent: 410
sfntRevision: 0x00010000
LayerCount: 2
Layer: 0 1 "Back"  1
Layer: 1 1 "Fore"  0
NeedsXUIDChange: 1
XUID: [1021 824 2069005300 15956630]
FSType: 0
OS2Version: 2
OS2_WeightWidthSlopeOnly: 0
OS2_UseTypoMetrics: 1
CreationTime: 1311022985
ModificationTime: 1311068811
PfmFamily: 17
TTFWeight: 700
TTFWidth: 5
LineGap: 0
VLineGap: 0
Panose: 2 0 5 3 5 0 0 2 0 3
OS2TypoAscent: 35
OS2TypoAOffset: 1
OS2TypoDescent: -157
OS2TypoDOffset: 1
OS2TypoLinegap: 0
OS2WinAscent: 0
OS2WinAOffset: 1
OS2WinDescent: 0
OS2WinDOffset: 1
HheadAscent: 0
HheadAOffset: 1
HheadDescent: 0
HheadDOffset: 1
OS2SubXSize: 5646
OS2SubYSize: 5214
OS2SubXOff: 0
OS2SubYOff: 729
OS2SupXSize: 5646
OS2SupYSize: 5214
OS2SupXOff: 0
OS2SupYOff: 3170
OS2StrikeYSize: 102
OS2StrikeYPos: 512
OS2Vendor: 'newt'
OS2CodePages: 00000001.00000000
OS2UnicodeRanges: 800000ef.4000204b.00000000.00000000
Lookup: 258 0 0 "'kern' Horizontal Kerning in Latin lookup 0"  {"'kern' Horizontal Kerning in Latin lookup 0 per glyph data 0"  "'kern' Horizontal Kerning in Latin lookup 0 per glyph data 1"  "'kern' Horizontal Kerning in Latin lookup 0 per glyph data 2"  } ['kern' ('latn' <'dflt' > ) ]
MarkAttachClasses: 1
DEI: 91125
ShortTable: maxp 16
  1
  0
  329
  103
  5
  98
  4
  1
  0
  0
  0
  0
  0
  0
  3
  1
EndShort
LangName: 1033 "" "" "" "1.000;newt;Rokkitt-Bold" "" "Version 1.000" "" "Rokkitt Bold is a trademark of vernon adams." "vernon adams" "vernon adams" "Copyright (c) 2011 by vernon adams. All rights reserved." "" "newtypography.co.uk" "" "http://scripts.sil.org/OFL" "" "" "" "Rokkitt Bold" 
Encoding: UnicodeBmp
UnicodeInterp: none
NameList: Adobe Glyph List
DisplaySize: -72
AntiAlias: 1
FitToEm: 1
WinInfo: 45 15 5
BeginPrivate: 0
EndPrivate

StartChar: exclam
Encoding: 33 33 21
Width: 541
Flags: HW
LayerCount: 2
Fore
SplineSet
373 1222 m 1,0,-1
 373 906 l 1,1,-1
 328 409 l 1,2,-1
 219 409 l 1,3,-1
 170 906 l 1,4,-1
 170 1222 l 1,5,-1
 373 1222 l 1,0,-1
149 242 m 1,6,-1
 393 242 l 1,7,-1
 373 0 l 1,8,-1
 149 0 l 1,9,-1
 149 242 l 1,6,-1
EndSplineSet
Validated: 1
EndChar

StartChar: quotedbl
Encoding: 34 34 22
Width: 819
Flags: HW
LayerCount: 2
Fore
SplineSet
643 757 m 1,0,-1
 522 757 l 1,1,-1
 472 1222 l 1,2,-1
 688 1222 l 1,3,-1
 643 757 l 1,0,-1
315 757 m 1,4,-1
 193 757 l 1,5,-1
 143 1222 l 1,6,-1
 359 1222 l 1,7,-1
 315 757 l 1,4,-1
EndSplineSet
Validated: 1
EndChar

StartChar: numbersign
Encoding: 35 35 23
Width: 1245
Flags: HW
LayerCount: 2
Fore
SplineSet
201 -11 m 1,0,-1
 257 336 l 1,1,-1
 87 336 l 1,2,-1
 87 470 l 1,3,-1
 285 470 l 1,4,-1
 331 758 l 1,5,-1
 100 758 l 1,6,-1
 100 893 l 1,7,-1
 359 893 l 1,8,-1
 417 1239 l 1,9,-1
 567 1239 l 1,10,-1
 509 893 l 1,11,-1
 831 893 l 1,12,-1
 890 1239 l 1,13,-1
 1041 1239 l 1,14,-1
 981 893 l 1,15,-1
 1160 893 l 1,16,-1
 1160 758 l 1,17,-1
 955 758 l 1,18,-1
 909 470 l 1,19,-1
 1148 470 l 1,20,-1
 1148 336 l 1,21,-1
 882 336 l 1,22,-1
 824 -11 l 1,23,-1
 675 -11 l 1,24,-1
 732 336 l 1,25,-1
 407 336 l 1,26,-1
 349 -11 l 1,27,-1
 201 -11 l 1,0,-1
434 470 m 1,28,-1
 758 470 l 1,29,-1
 804 758 l 1,30,-1
 480 758 l 1,31,-1
 434 470 l 1,28,-1
EndSplineSet
Validated: 1
EndChar

StartChar: dollar
Encoding: 36 36 24
Width: 1005
Flags: HW
LayerCount: 2
Fore
SplineSet
94 0 m 1,0,-1
 94 407 l 1,1,-1
 265 407 l 1,2,-1
 265 297 l 1,3,4
 332 184 332 184 433 152 c 1,5,-1
 433 547 l 1,6,7
 268 599 268 599 206.5 649.5 c 128,-1,8
 145 700 145 700 115.5 758.5 c 0,9,10
 86 816 86 816 86 898 c 0,11,12
 86 1052 86 1052 181 1138 c 128,-1,13
 276 1224 276 1224 433 1232 c 1,14,-1
 433 1367 l 1,15,-1
 566 1367 l 1,16,-1
 566 1218 l 1,17,18
 659 1189 659 1189 713 1138 c 1,19,-1
 713 1215 l 1,20,-1
 878 1215 l 1,21,-1
 878 864 l 1,22,-1
 719 864 l 1,23,-1
 719 955 l 1,24,25
 666 1041 666 1041 566 1063 c 1,26,-1
 566 712 l 1,27,28
 739 662 739 662 807 606 c 128,-1,29
 875 550 875 550 908 486.5 c 128,-1,30
 941 423 941 423 941 337 c 0,31,32
 941 174 941 174 833 80 c 128,-1,33
 725 -14 725 -14 566 -18 c 1,34,-1
 566 -134 l 1,35,-1
 433 -134 l 1,36,-1
 433 -3 l 1,37,38
 341 20 341 20 266 89 c 1,39,-1
 266 0 l 1,40,-1
 94 0 l 1,0,-1
720 259 m 0,41,42
 732 288 732 288 732 323 c 0,43,44
 732 391 732 391 689 433.5 c 128,-1,45
 646 476 646 476 566 506 c 1,46,-1
 566 145 l 1,47,48
 683 163 683 163 720 259 c 0,41,42
321 1016.5 m 128,-1,50
 282 978 282 978 282 934 c 0,51,52
 282 861 282 861 320 822.5 c 128,-1,53
 358 784 358 784 433 754 c 1,54,-1
 433 1066 l 1,55,49
 360 1055 360 1055 321 1016.5 c 128,-1,50
EndSplineSet
Validated: 524289
EndChar

StartChar: percent
Encoding: 37 37 25
Width: 1671
Flags: HW
LayerCount: 2
Fore
SplineSet
623 920 m 256,0,1
 623 765 623 765 546.5 680 c 128,-1,2
 470 595 470 595 345 595 c 256,3,4
 344 595 344 595 343 595 c 0,5,6
 153 595 153 595 89 778 c 0,7,8
 68 838 68 838 68 920 c 256,9,10
 68 1075 68 1075 143.5 1160 c 128,-1,11
 219 1245 219 1245 345 1245 c 256,12,13
 346 1245 346 1245 347 1245 c 0,14,15
 538 1245 538 1245 602 1062 c 0,16,17
 623 1002 623 1002 623 920 c 256,0,1
235 922 m 0,18,19
 235 709 235 709 346 709 c 0,20,21
 397 709 397 709 426 761 c 128,-1,22
 455 813 455 813 455 918 c 0,23,24
 455 1130 455 1130 344 1130 c 0,25,26
 295 1130 295 1130 265 1081 c 128,-1,27
 235 1032 235 1032 235 922 c 0,18,19
1255 1247 m 1,28,-1
 1334 1190 l 1,29,-1
 378 -56 l 1,30,-1
 295 0 l 1,31,-1
 1255 1247 l 1,28,-1
1605 299 m 256,32,33
 1605 142 1605 142 1529 58.5 c 128,-1,34
 1453 -25 1453 -25 1329 -25 c 0,35,36
 1327 -25 1327 -25 1326 -25 c 256,37,38
 1132 -25 1132 -25 1070 157 c 0,39,40
 1049 220 1049 220 1049 301 c 0,41,42
 1049 460 1049 460 1124.5 542.5 c 128,-1,43
 1200 625 1200 625 1323 625 c 0,44,45
 1324 625 1324 625 1326 625 c 256,46,47
 1521 625 1521 625 1584 441 c 0,48,49
 1605 380 1605 380 1605 299 c 256,32,33
1216 302 m 0,50,51
 1216 89 1216 89 1327 89 c 256,52,53
 1378 89 1378 89 1407 141 c 128,-1,54
 1436 193 1436 193 1436 299 c 0,55,56
 1436 509 1436 509 1325 509 c 0,57,58
 1276 509 1276 509 1246 460.5 c 128,-1,59
 1216 412 1216 412 1216 302 c 0,50,51
EndSplineSet
Validated: 1
EndChar

StartChar: ampersand
Encoding: 38 38 26
Width: 1328
Flags: HW
LayerCount: 2
Fore
SplineSet
880 387 m 1,0,1
 959 485 959 485 999 661 c 1,2,-1
 1262 661 l 1,3,-1
 1262 514 l 1,4,-1
 1123 513 l 1,5,6
 1071 359 1071 359 983 259 c 1,7,-1
 1070 149 l 1,8,-1
 1263 149 l 1,9,-1
 1263 0 l 1,10,-1
 957 0 l 1,11,-1
 862 125 l 1,12,13
 692 -19 692 -19 499 -19 c 128,-1,14
 306 -19 306 -19 184.5 87.5 c 128,-1,15
 63 194 63 194 63 352 c 0,16,17
 63 586 63 586 383 708 c 1,18,19
 270 852 270 852 270 966 c 128,-1,20
 270 1080 270 1080 361.5 1156.5 c 128,-1,21
 453 1233 453 1233 592 1233 c 0,22,23
 594 1233 594 1233 596 1233 c 0,24,25
 726 1233 726 1233 811 1159.5 c 128,-1,26
 896 1086 896 1086 896 981 c 128,-1,27
 896 876 896 876 836 799 c 128,-1,28
 776 722 776 722 642 662 c 1,29,-1
 880 387 l 1,0,1
476 595 m 1,30,31
 264 513 264 513 264 363 c 0,32,33
 264 273 264 273 339 209 c 128,-1,34
 414 145 414 145 536 145 c 128,-1,35
 658 145 658 145 764 249 c 1,36,-1
 476 595 l 1,30,31
553 779 m 1,37,38
 729 862 729 862 729 952 c 0,39,40
 729 1025 729 1025 690 1059.5 c 128,-1,41
 651 1094 651 1094 590.5 1094 c 128,-1,42
 530 1094 530 1094 490.5 1061.5 c 128,-1,43
 451 1029 451 1029 451 981 c 128,-1,44
 451 933 451 933 476.5 889 c 128,-1,45
 502 845 502 845 553 779 c 1,37,38
EndSplineSet
Validated: 1
EndChar

StartChar: quotesingle
Encoding: 39 39 27
Width: 502
Flags: HW
LayerCount: 2
Fore
SplineSet
317 757 m 1,0,-1
 195 757 l 1,1,-1
 146 1222 l 1,2,-1
 362 1222 l 1,3,-1
 317 757 l 1,0,-1
EndSplineSet
Validated: 1
EndChar

StartChar: parenleft
Encoding: 40 40 28
Width: 583
Flags: HW
LayerCount: 2
Fore
SplineSet
539 991 m 1,0,1
 250 867 250 867 250 486 c 0,2,3
 250 281 250 281 323 162.5 c 128,-1,4
 396 44 396 44 539 -18 c 1,5,-1
 537 -158 l 1,6,7
 216 -48 216 -48 114 252 c 0,8,9
 79 354 79 354 79 480 c 0,10,11
 79 732 79 732 204.5 895.5 c 128,-1,12
 330 1059 330 1059 537 1130 c 1,13,-1
 539 991 l 1,0,1
EndSplineSet
Validated: 1
EndChar

StartChar: parenright
Encoding: 41 41 29
Width: 583
Flags: HW
LayerCount: 2
Fore
SplineSet
372.5 75.5 m 128,-1,1
 246 -88 246 -88 40 -158 c 1,2,-1
 39 -18 l 1,3,4
 183 44 183 44 255.5 163 c 128,-1,5
 328 282 328 282 328 487 c 0,6,7
 328 788 328 788 161 920 c 0,8,9
 107 962 107 962 39 991 c 1,10,-1
 40 1130 l 1,11,12
 244 1060 244 1060 371.5 896 c 128,-1,13
 499 732 499 732 499 485.5 c 128,-1,0
 499 239 499 239 372.5 75.5 c 128,-1,1
EndSplineSet
Validated: 1
EndChar

StartChar: asterisk
Encoding: 42 42 30
Width: 986
Flags: HW
LayerCount: 2
Fore
SplineSet
329 407 m 1,0,-1
 195 503 l 1,1,-1
 286 629 l 1,2,-1
 452 770 l 1,3,-1
 234 784 l 1,4,-1
 90 835 l 1,5,-1
 138 992 l 1,6,-1
 286 943 l 1,7,-1
 477 822 l 1,8,-1
 421 1043 l 1,9,-1
 421 1194 l 1,10,-1
 582 1194 l 1,11,-1
 582 1043 l 1,12,-1
 526 822 l 1,13,-1
 717 943 l 1,14,-1
 866 992 l 1,15,-1
 913 835 l 1,16,-1
 770 784 l 1,17,-1
 551 770 l 1,18,-1
 717 629 l 1,19,-1
 807 503 l 1,20,-1
 674 407 l 1,21,-1
 582 534 l 1,22,-1
 501 740 l 1,23,-1
 421 534 l 1,24,-1
 329 407 l 1,0,-1
EndSplineSet
Validated: 1
EndChar

StartChar: plus
Encoding: 43 43 31
Width: 1156
Flags: HW
LayerCount: 2
Fore
SplineSet
657 654 m 1,0,-1
 1076 654 l 1,1,-1
 1076 505 l 1,2,-1
 657 505 l 1,3,-1
 657 97 l 1,4,-1
 498 97 l 1,5,-1
 498 505 l 1,6,-1
 80 505 l 1,7,-1
 80 654 l 1,8,-1
 498 654 l 1,9,-1
 498 1061 l 1,10,-1
 657 1061 l 1,11,-1
 657 654 l 1,0,-1
EndSplineSet
Validated: 1
EndChar

StartChar: comma
Encoding: 44 44 32
Width: 500
Flags: HW
LayerCount: 2
Fore
SplineSet
121 1 m 1,0,-1
 119 186 l 1,1,-1
 119 236 l 1,2,3
 174 242 174 242 260 242 c 2,4,-1
 367 242 l 1,5,6
 374 144 374 144 374 46 c 0,7,8
 374 -130 374 -130 316.5 -200.5 c 128,-1,9
 259 -271 259 -271 117 -271 c 1,10,-1
 117 -169 l 1,11,12
 189 -155 189 -155 219 -118.5 c 128,-1,13
 249 -82 249 -82 249 1 c 1,14,-1
 121 1 l 1,0,-1
EndSplineSet
Validated: 1
EndChar

StartChar: hyphen
Encoding: 45 45 33
Width: 654
Flags: HW
LayerCount: 2
Fore
SplineSet
92 506 m 1,0,-1
 567 506 l 1,1,-1
 567 357 l 1,2,-1
 92 357 l 1,3,-1
 92 506 l 1,0,-1
EndSplineSet
Validated: 1
EndChar

StartChar: period
Encoding: 46 46 34
Width: 500
Flags: HW
LayerCount: 2
Fore
SplineSet
367 238 m 1,0,-1
 367 0 l 1,1,-1
 120 0 l 1,2,-1
 120 238 l 1,3,-1
 367 238 l 1,0,-1
EndSplineSet
Validated: 1
EndChar

StartChar: slash
Encoding: 47 47 35
Width: 865
Flags: HW
LayerCount: 2
Fore
SplineSet
654 1252 m 1,0,-1
 782 1216 l 1,1,-1
 209 -36 l 1,2,-1
 80 0 l 1,3,-1
 654 1252 l 1,0,-1
EndSplineSet
Validated: 1
EndChar

StartChar: zero
Encoding: 48 48 36
Width: 1044
Flags: HW
LayerCount: 2
Fore
SplineSet
521 -19 m 256,0,1
 306 -19 306 -19 196 148 c 128,-1,2
 86 315 86 315 86 608 c 256,3,4
 86 1058 86 1058 330 1189 c 0,5,6
 412 1233 412 1233 521 1233 c 256,7,8
 736 1233 736 1233 847 1068 c 128,-1,9
 958 903 958 903 958 608 c 256,10,11
 958 156 958 156 713 25 c 0,12,13
 631 -19 631 -19 521 -19 c 256,0,1
412 156 m 0,14,15
 456 124 456 124 518 124 c 0,16,17
 642 124 642 124 699 239 c 128,-1,18
 756 354 756 354 756 608 c 0,19,20
 756 984 756 984 625 1064 c 0,21,22
 580 1091 580 1091 518 1091 c 0,23,24
 397 1091 397 1091 342.5 970 c 128,-1,25
 288 849 288 849 288 607 c 0,26,27
 288 245 288 245 412 156 c 0,14,15
EndSplineSet
Validated: 1
EndChar

StartChar: one
Encoding: 49 49 37
Width: 749
Flags: HW
LayerCount: 2
Fore
SplineSet
648 141 m 1,0,-1
 648 0 l 1,1,-1
 116 0 l 1,2,-1
 116 141 l 1,3,-1
 289 141 l 1,4,-1
 289 1075 l 1,5,-1
 104 1075 l 1,6,-1
 104 1215 l 1,7,-1
 485 1215 l 1,8,-1
 485 141 l 1,9,-1
 648 141 l 1,0,-1
EndSplineSet
Validated: 1
EndChar

StartChar: two
Encoding: 50 50 38
Width: 996
Flags: HW
LayerCount: 2
Fore
SplineSet
104 792 m 1,0,1
 104 1233 104 1233 486 1233 c 0,2,3
 488 1233 488 1233 490 1233 c 0,4,5
 682 1233 682 1233 781.5 1136.5 c 128,-1,6
 881 1040 881 1040 881 903 c 0,7,8
 881 740 881 740 711 602 c 0,9,10
 662 562 662 562 609 523.5 c 0,11,12
 556 486 556 486 502 446 c 0,13,14
 310 306 310 306 268 141 c 1,15,-1
 732 141 l 1,16,-1
 732 384 l 1,17,-1
 881 384 l 1,18,-1
 881 0 l 1,19,-1
 72 0 l 1,20,21
 72 274 72 274 289 478 c 0,22,23
 374 558 374 558 459.5 625 c 128,-1,24
 545 692 545 692 583 731 c 0,25,26
 671 821 671 821 671 905 c 128,-1,27
 671 989 671 989 623.5 1036.5 c 128,-1,28
 576 1084 576 1084 503 1084 c 128,-1,29
 430 1084 430 1084 390 1066 c 0,30,31
 279 1017 279 1017 277 792 c 1,32,-1
 104 792 l 1,0,1
EndSplineSet
Validated: 524289
EndChar

StartChar: three
Encoding: 51 51 39
Width: 1009
Flags: HW
LayerCount: 2
Fore
SplineSet
672 642 m 1,0,1
 925 580 925 580 925 344 c 0,2,3
 925 180 925 180 803.5 80.5 c 128,-1,4
 682 -19 682 -19 478 -19 c 0,5,6
 190 -19 190 -19 97 196 c 0,7,8
 66 268 66 268 64 364 c 1,9,-1
 244 364 l 1,10,11
 265 133 265 133 479 133 c 0,12,13
 592 133 592 133 656 191 c 128,-1,14
 720 249 720 249 720 327 c 0,15,16
 720 462 720 462 632 509 c 128,-1,17
 544 556 544 556 376 556 c 1,18,-1
 376 710 l 1,19,20
 538 710 538 710 610 751.5 c 128,-1,21
 682 793 682 793 682 909.5 c 128,-1,22
 682 1026 682 1026 568 1066 c 0,23,24
 530 1080 530 1080 479 1080 c 0,25,26
 381 1080 381 1080 334 1031 c 128,-1,27
 287 982 287 982 285 900 c 1,28,-1
 105 901 l 1,29,30
 110 1054 110 1054 209.5 1143.5 c 128,-1,31
 309 1233 309 1233 480 1233 c 0,32,33
 482 1233 482 1233 484 1233 c 128,-1,34
 486 1233 486 1233 488 1233 c 0,35,36
 667 1233 667 1233 772 1147.5 c 128,-1,37
 877 1062 877 1062 877 913 c 128,-1,38
 877 764 877 764 761 684 c 0,39,40
 723 658 723 658 672 642 c 1,0,1
EndSplineSet
Validated: 1
EndChar

StartChar: four
Encoding: 52 52 40
Width: 954
Flags: HW
LayerCount: 2
Fore
SplineSet
839 141 m 1,0,-1
 839 0 l 1,1,-1
 368 0 l 1,2,-1
 368 141 l 1,3,-1
 523 141 l 1,4,-1
 523 334 l 1,5,-1
 32 334 l 1,6,-1
 32 498 l 1,7,-1
 526 1215 l 1,8,-1
 704 1215 l 1,9,-1
 704 470 l 1,10,-1
 880 470 l 1,11,-1
 880 334 l 1,12,-1
 704 334 l 1,13,-1
 704 141 l 1,14,-1
 839 141 l 1,0,-1
523 470 m 1,15,-1
 523 977 l 1,16,-1
 191 470 l 1,17,-1
 523 470 l 1,15,-1
EndSplineSet
Validated: 1
EndChar

StartChar: five
Encoding: 53 53 41
Width: 1005
Flags: HW
LayerCount: 2
Fore
SplineSet
280 695 m 1,0,1
 375 794 375 794 540.5 794 c 128,-1,2
 706 794 706 794 814.5 681.5 c 128,-1,3
 923 569 923 569 923 392 c 128,-1,4
 923 215 923 215 816 99 c 0,5,6
 708 -18 708 -18 507 -18 c 128,-1,7
 306 -18 306 -18 200.5 74.5 c 128,-1,8
 95 167 95 167 79 339 c 1,9,-1
 261 339 l 1,10,11
 280 238 280 238 333 183.5 c 128,-1,12
 386 129 386 129 488 129 c 0,13,14
 490 129 490 129 491 129 c 0,15,16
 600 129 600 129 659.5 198 c 128,-1,17
 719 267 719 267 719 382 c 0,18,19
 719 567 719 567 586 618 c 0,20,21
 546 634 546 634 497 634 c 0,22,23
 376 634 376 634 276 534 c 1,24,-1
 162 591 l 1,25,-1
 162 1215 l 1,26,-1
 851 1215 l 1,27,-1
 851 959 l 1,28,-1
 695 959 l 1,29,-1
 695 1075 l 1,30,-1
 309 1075 l 1,31,32
 308 1060 308 1060 305.5 1030.5 c 128,-1,33
 303 1001 303 1001 300 963.5 c 128,-1,34
 297 926 297 926 294 885 c 128,-1,35
 291 844 291 844 288 807 c 128,-1,36
 285 770 285 770 283 740 c 2,37,-1
 280 695 l 1,0,1
EndSplineSet
Validated: 1
EndChar

StartChar: six
Encoding: 54 54 42
Width: 1005
Flags: HW
LayerCount: 2
Fore
SplineSet
284 524 m 1,0,1
 296 327 296 327 351.5 230 c 128,-1,2
 407 133 407 133 514.5 133 c 128,-1,3
 622 133 622 133 677 201.5 c 128,-1,4
 732 270 732 270 732 381 c 0,5,6
 732 543 732 543 614 595 c 0,7,8
 576 612 576 612 538 612 c 0,9,10
 386 612 386 612 284 524 c 1,0,1
280 674 m 1,11,12
 385 767 385 767 552.5 767 c 128,-1,13
 720 767 720 767 818 663 c 0,14,15
 917 558 917 558 917 383 c 0,16,17
 917 210 917 210 813 96 c 0,18,19
 709 -18 709 -18 529 -19 c 0,20,21
 198 -19 198 -19 114 336 c 0,22,23
 86 449 86 449 86 592 c 0,24,25
 86 895 86 895 200.5 1064 c 128,-1,26
 315 1233 315 1233 536 1233 c 1,27,28
 692 1232 692 1232 786 1146 c 128,-1,29
 880 1060 880 1060 891 914 c 1,30,-1
 730 914 l 1,31,32
 714 993 714 993 666.5 1040.5 c 128,-1,33
 619 1088 619 1088 549 1088 c 0,34,35
 418 1088 418 1088 350 976.5 c 128,-1,36
 282 865 282 865 280 674 c 1,11,12
EndSplineSet
Validated: 1
EndChar

StartChar: seven
Encoding: 55 55 43
Width: 914
Flags: HW
LayerCount: 2
Fore
SplineSet
661 0 m 1,0,-1
 147 0 l 1,1,-1
 147 141 l 1,2,-1
 310 141 l 1,3,4
 336 509 336 509 542 874 c 0,5,6
 604 985 604 985 674 1074 c 1,7,-1
 234 1074 l 1,8,-1
 234 892 l 1,9,-1
 76 892 l 1,10,-1
 76 1215 l 1,11,-1
 875 1215 l 1,12,-1
 875 1084 l 1,13,14
 724 904 724 904 621 637 c 0,15,16
 518 370 518 370 512 141 c 1,17,-1
 661 141 l 1,18,-1
 661 0 l 1,0,-1
EndSplineSet
Validated: 1
EndChar

StartChar: eight
Encoding: 56 56 44
Width: 1047
Flags: HW
LayerCount: 2
Fore
SplineSet
732 634 m 1,0,1
 964 563 964 563 964 334 c 0,2,3
 964 178 964 178 848 80 c 0,4,5
 731 -19 731 -19 519 -19 c 129,-1,6
 307 -19 307 -19 193.5 79 c 128,-1,7
 80 177 80 177 79 334 c 1,8,9
 79 559 79 559 311 632 c 1,10,11
 115 722 115 722 115 918 c 0,12,13
 115 1061 115 1061 224.5 1147 c 128,-1,14
 334 1233 334 1233 517 1233 c 0,15,16
 519 1233 519 1233 521 1233 c 256,17,18
 708 1233 708 1233 817.5 1146.5 c 128,-1,19
 927 1060 927 1060 927 917 c 0,20,21
 927 823 927 823 882.5 753 c 128,-1,22
 838 683 838 683 732 634 c 1,0,1
509 560 m 1,23,24
 397 556 397 556 338.5 498.5 c 128,-1,25
 280 441 280 441 280 345.5 c 128,-1,26
 280 250 280 250 346.5 190 c 128,-1,27
 413 130 413 130 522.5 130 c 128,-1,28
 632 130 632 130 698 188.5 c 128,-1,29
 764 247 764 247 764 344.5 c 128,-1,30
 764 442 764 442 700.5 499.5 c 128,-1,31
 637 557 637 557 509 560 c 1,23,24
521 1085 m 0,32,33
 417 1085 417 1085 361 1035 c 128,-1,34
 305 985 305 985 305 898 c 256,35,36
 305 811 305 811 364 759 c 128,-1,37
 423 707 423 707 530 701 c 1,38,39
 628 708 628 708 683.5 760 c 128,-1,40
 739 812 739 812 739 898 c 0,41,42
 739 1029 739 1029 616 1071 c 0,43,44
 575 1085 575 1085 521 1085 c 0,32,33
EndSplineSet
Validated: 1
EndChar

StartChar: nine
Encoding: 57 57 45
Width: 1006
Flags: HW
LayerCount: 2
Fore
SplineSet
390 626 m 0,0,1
 429 609 429 609 468 609 c 0,2,3
 622 609 622 609 720 716 c 1,4,5
 702 990 702 990 586 1056 c 0,6,7
 543 1081 543 1081 486 1081 c 0,8,9
 379 1081 379 1081 324.5 1012.5 c 128,-1,10
 270 944 270 944 271 834 c 1,11,12
 270 677 270 677 390 626 c 0,0,1
476 1233 m 1,13,14
 917 1233 917 1233 917 618 c 1,15,16
 916 156 916 156 658 25 c 0,17,18
 573 -19 573 -19 478 -19 c 0,19,20
 303 -19 303 -19 210.5 71 c 128,-1,21
 118 161 118 161 112 308 c 1,22,-1
 278 307 l 1,23,24
 308 134 308 134 476 134 c 0,25,26
 590 134 590 134 656 236.5 c 128,-1,27
 722 339 722 339 724 551 c 1,28,29
 619 449 619 449 454 449 c 0,30,31
 453 450 453 450 452 450 c 0,32,33
 286 450 286 450 186 552 c 128,-1,34
 86 654 86 654 86 830 c 128,-1,35
 86 1006 86 1006 191 1119 c 128,-1,36
 296 1232 296 1232 476 1233 c 1,13,14
EndSplineSet
Validated: 33
EndChar

StartChar: colon
Encoding: 58 58 46
Width: 506
Flags: HW
LayerCount: 2
Fore
SplineSet
380 323 m 1,0,-1
 380 80 l 1,1,-1
 126 80 l 1,2,-1
 126 323 l 1,3,-1
 380 323 l 1,0,-1
380 866 m 1,4,-1
 380 621 l 1,5,-1
 126 621 l 1,6,-1
 126 866 l 1,7,-1
 380 866 l 1,4,-1
EndSplineSet
Validated: 1
EndChar

StartChar: semicolon
Encoding: 59 59 47
Width: 505
Flags: HW
LayerCount: 2
Fore
SplineSet
383 325 m 1,0,-1
 383 82 l 1,1,2
 382 -60 382 -60 326 -126 c 0,3,4
 270 -192 270 -192 126 -193 c 1,5,-1
 126 -90 l 1,6,7
 238 -82 238 -82 254 8 c 0,8,9
 259 34 259 34 259 54 c 0,10,11
 259 74 259 74 259 80 c 1,12,-1
 129 80 l 1,13,-1
 129 324 l 1,14,-1
 383 325 l 1,0,-1
380 866 m 1,15,-1
 380 621 l 1,16,-1
 126 621 l 1,17,-1
 126 866 l 1,18,-1
 380 866 l 1,15,-1
EndSplineSet
Validated: 1
EndChar

StartChar: less
Encoding: 60 60 48
Width: 1199
Flags: HW
LayerCount: 2
Fore
SplineSet
304 599 m 1,0,-1
 1030 269 l 1,1,-1
 1030 105 l 1,2,-1
 113 530 l 1,3,-1
 113 666 l 1,4,-1
 1030 1091 l 1,5,-1
 1030 928 l 1,6,-1
 304 599 l 1,0,-1
EndSplineSet
Validated: 1
EndChar

StartChar: equal
Encoding: 61 61 49
Width: 1229
Flags: HW
LayerCount: 2
Fore
SplineSet
163 797 m 1,0,-1
 1065 797 l 1,1,-1
 1065 647 l 1,2,-1
 163 647 l 1,3,-1
 163 797 l 1,0,-1
163 397 m 1,4,-1
 1065 397 l 1,5,-1
 1065 248 l 1,6,-1
 163 248 l 1,7,-1
 163 397 l 1,4,-1
EndSplineSet
Validated: 1
EndChar

StartChar: greater
Encoding: 62 62 50
Width: 1198
Flags: HW
LayerCount: 2
Fore
SplineSet
139 928 m 1,0,-1
 139 1091 l 1,1,-1
 1055 666 l 1,2,-1
 1055 530 l 1,3,-1
 139 105 l 1,4,-1
 139 269 l 1,5,-1
 864 599 l 1,6,-1
 139 928 l 1,0,-1
EndSplineSet
Validated: 1
EndChar

StartChar: question
Encoding: 63 63 51
Width: 796
Flags: HW
LayerCount: 2
Fore
SplineSet
419 1098 m 0,0,1
 217 1098 217 1098 217 889 c 1,2,-1
 44 889 l 1,3,4
 44 1066 44 1066 150.5 1149 c 128,-1,5
 257 1232 257 1232 413.5 1232 c 128,-1,6
 570 1232 570 1232 673 1144 c 0,7,8
 777 1056 777 1056 777 917 c 0,9,10
 777 779 777 779 674 700 c 0,11,12
 646 678 646 678 617 658 c 0,13,14
 536 604 536 604 502 555 c 0,15,16
 446 474 446 474 439 340 c 1,17,-1
 300 340 l 1,18,19
 300 560 300 560 394 666 c 0,20,21
 434 711 434 711 482 743 c 128,-1,22
 530 775 530 775 551 796 c 0,23,24
 598 844 598 844 598 900 c 0,25,26
 598 996 598 996 546 1047 c 128,-1,27
 494 1098 494 1098 419 1098 c 0,0,1
472 209 m 1,28,-1
 472 0 l 1,29,-1
 277 0 l 1,30,-1
 277 209 l 1,31,-1
 472 209 l 1,28,-1
EndSplineSet
Validated: 1
EndChar

StartChar: at
Encoding: 64 64 52
Width: 1418
Flags: HW
LayerCount: 2
Fore
SplineSet
1096 428 m 0,0,1
 1187 539 1187 539 1187 705.5 c 128,-1,2
 1187 872 1187 872 1064 994 c 128,-1,3
 941 1116 941 1116 718.5 1116 c 128,-1,4
 496 1116 496 1116 344 957.5 c 128,-1,5
 192 799 192 799 192 561.5 c 128,-1,6
 192 324 192 324 336.5 186 c 128,-1,7
 481 48 481 48 725 48 c 128,-1,8
 969 48 969 48 1115 163 c 1,9,-1
 1189 75 l 1,10,11
 1007 -66 1007 -66 745 -66 c 0,12,13
 408 -66 408 -66 221 128 c 0,14,15
 52 303 52 303 52 562.5 c 128,-1,16
 52 822 52 822 228 1020 c 0,17,18
 346 1152 346 1152 532 1206 c 0,19,20
 626 1233 626 1233 731.5 1233 c 128,-1,21
 837 1233 837 1233 920.5 1211.5 c 128,-1,22
 1004 1190 1004 1190 1069 1153 c 0,23,24
 1193 1082 1193 1082 1256 959.5 c 128,-1,25
 1319 837 1319 837 1319 722 c 0,26,27
 1319 506 1319 506 1207 360 c 128,-1,28
 1095 214 1095 214 914 213 c 0,29,30
 827 213 827 213 813 326 c 1,31,32
 730 213 730 213 611 213 c 0,33,34
 610 214 l 0,35,36
 490 214 490 214 410 300 c 128,-1,37
 330 386 330 386 330 542.5 c 128,-1,38
 330 699 330 699 427.5 831 c 128,-1,39
 525 963 525 963 698 963 c 0,40,41
 831 963 831 963 892 841 c 1,42,-1
 912 947 l 1,43,-1
 1055 947 l 1,44,-1
 953 472 l 2,45,46
 944 429 944 429 937.5 401.5 c 128,-1,47
 931 374 931 374 931 368 c 0,48,49
 931 335 931 335 955.5 335 c 128,-1,50
 980 335 980 335 1019 358.5 c 128,-1,51
 1058 382 1058 382 1096 428 c 0,0,1
833.5 548 m 128,-1,53
 851 609 851 609 851 679 c 128,-1,54
 851 749 851 749 806 797 c 128,-1,55
 761 845 761 845 697 845 c 0,56,57
 586 845 586 845 529 747 c 0,58,59
 472 650 472 650 471 524 c 0,60,61
 471 392 471 392 560 344 c 0,62,63
 591 327 591 327 634 327 c 129,-1,64
 677 327 677 327 716.5 358 c 128,-1,65
 756 389 756 389 786 438 c 128,-1,52
 816 487 816 487 833.5 548 c 128,-1,53
EndSplineSet
Validated: 1
EndChar

StartChar: A
Encoding: 65 65 53
Width: 1263
Flags: HW
LayerCount: 2
Fore
SplineSet
-11 141 m 1,0,-1
 136 141 l 1,1,-1
 428 1075 l 1,2,-1
 310 1075 l 1,3,-1
 310 1215 l 1,4,-1
 951 1215 l 1,5,-1
 951 1075 l 1,6,-1
 833 1075 l 1,7,-1
 1129 141 l 1,8,-1
 1273 141 l 1,9,-1
 1273 0 l 1,10,-1
 758 0 l 1,11,-1
 758 141 l 1,12,-1
 914 141 l 1,13,-1
 836 436 l 1,14,-1
 406 436 l 1,15,-1
 326 141 l 1,16,-1
 485 141 l 1,17,-1
 485 0 l 1,18,-1
 -11 0 l 1,19,-1
 -11 141 l 1,0,-1
795 577 m 1,20,-1
 644 1075 l 1,21,-1
 603 1075 l 1,22,-1
 448 577 l 1,23,-1
 795 577 l 1,20,-1
EndSplineSet
Validated: 1
EndChar

StartChar: B
Encoding: 66 66 54
Width: 1155
Flags: HW
LayerCount: 2
Fore
SplineSet
1024 914 m 0,0,1
 1024 713 1024 713 849 641 c 1,2,3
 954 608 954 608 1016.5 532 c 128,-1,4
 1079 456 1079 456 1079 344 c 0,5,6
 1078 114 1078 114 842 31 c 0,7,8
 754 0 754 0 619 0 c 2,9,-1
 65 0 l 1,10,-1
 65 141 l 1,11,-1
 220 141 l 1,12,-1
 220 1075 l 1,13,-1
 65 1075 l 1,14,-1
 65 1215 l 1,15,-1
 601 1215 l 2,16,17
 603 1215 603 1215 604 1215 c 0,18,19
 908 1215 908 1215 996 1030 c 0,20,21
 1024 973 1024 973 1024 914 c 0,0,1
439 141 m 1,22,-1
 577 141 l 2,23,24
 579 141 579 141 580 141 c 0,25,26
 796 141 796 141 840 264 c 0,27,28
 854 304 854 304 854 354 c 0,29,30
 854 445 854 445 788 499 c 128,-1,31
 722 553 722 553 583 553 c 2,32,-1
 439 553 l 1,33,-1
 439 141 l 1,22,-1
803 890 m 128,-1,35
 803 1075 803 1075 544 1075 c 0,36,37
 539 1075 539 1075 533 1075 c 2,38,-1
 439 1075 l 1,39,-1
 439 705 l 1,40,-1
 556 705 l 2,41,34
 803 705 803 705 803 890 c 128,-1,35
EndSplineSet
Validated: 1
EndChar

StartChar: C
Encoding: 67 67 55
Width: 1341
Flags: HW
LayerCount: 2
Fore
SplineSet
1274 358 m 1,0,1
 1158 -14 1158 -14 698 -19 c 1,2,3
 398 -16 398 -16 235 160 c 0,4,5
 71 337 71 337 71 613 c 0,6,7
 71 887 71 887 240 1060 c 0,8,9
 409 1233 409 1233 699 1233 c 0,10,11
 921 1233 921 1233 1074 1089 c 1,12,-1
 1074 1215 l 1,13,-1
 1238 1215 l 1,14,-1
 1238 832 l 1,15,-1
 1083 832 l 1,16,17
 970 1074 970 1074 715 1074 c 0,18,19
 530 1074 530 1074 419 944 c 128,-1,20
 308 814 308 814 308 608.5 c 128,-1,21
 308 403 308 403 415 272 c 128,-1,22
 522 141 522 141 714 141 c 0,23,24
 715 141 715 141 717 141 c 0,25,26
 936 141 936 141 1045 304 c 0,27,28
 1083 360 1083 360 1103 439 c 1,29,-1
 1274 358 l 1,0,1
EndSplineSet
Validated: 1
EndChar

StartChar: D
Encoding: 68 68 56
Width: 1374
Flags: HW
LayerCount: 2
Fore
SplineSet
453 141 m 1,0,-1
 642 141 l 1,1,2
 866 142 866 142 970 268 c 0,3,4
 1074 394 1074 394 1074 609 c 0,5,6
 1074 940 1074 940 844 1040 c 0,7,8
 764 1075 764 1075 650 1075 c 2,9,-1
 453 1075 l 1,10,-1
 453 141 l 1,0,-1
61 0 m 1,11,-1
 61 141 l 1,12,-1
 234 141 l 1,13,-1
 234 1075 l 1,14,-1
 61 1075 l 1,15,-1
 61 1215 l 1,16,-1
 662 1215 l 2,17,18
 972 1216 972 1216 1136 1048 c 0,19,20
 1300 880 1300 880 1300 615 c 0,21,22
 1300 172 1300 172 940 43 c 0,23,24
 820 0 820 0 661 0 c 2,25,-1
 61 0 l 1,11,-1
EndSplineSet
Validated: 33
EndChar

StartChar: E
Encoding: 69 69 57
Width: 1186
Flags: HW
LayerCount: 2
Fore
SplineSet
62 0 m 1,0,-1
 62 141 l 1,1,-1
 220 141 l 1,2,-1
 220 1075 l 1,3,-1
 62 1075 l 1,4,-1
 62 1215 l 1,5,-1
 1101 1215 l 1,6,-1
 1101 867 l 1,7,-1
 935 867 l 1,8,-1
 935 1075 l 1,9,-1
 438 1075 l 1,10,-1
 438 696 l 1,11,-1
 766 696 l 1,12,-1
 766 812 l 1,13,-1
 868 812 l 1,14,-1
 868 434 l 1,15,-1
 766 434 l 1,16,-1
 766 547 l 1,17,-1
 439 547 l 1,18,-1
 439 141 l 1,19,-1
 937 141 l 1,20,-1
 937 355 l 1,21,-1
 1103 355 l 1,22,-1
 1103 0 l 1,23,-1
 62 0 l 1,0,-1
EndSplineSet
Validated: 1
EndChar

StartChar: F
Encoding: 70 70 58
Width: 1092
Flags: HW
LayerCount: 2
Fore
SplineSet
59 0 m 1,0,-1
 59 141 l 1,1,-1
 222 141 l 1,2,-1
 222 1075 l 1,3,-1
 59 1075 l 1,4,-1
 59 1215 l 1,5,-1
 1065 1215 l 1,6,-1
 1065 868 l 1,7,-1
 896 868 l 1,8,-1
 896 1075 l 1,9,-1
 441 1075 l 1,10,-1
 441 697 l 1,11,-1
 719 697 l 1,12,-1
 719 809 l 1,13,-1
 825 809 l 1,14,-1
 825 434 l 1,15,-1
 719 434 l 1,16,-1
 719 547 l 1,17,-1
 441 547 l 1,18,-1
 441 141 l 1,19,-1
 613 141 l 1,20,-1
 613 0 l 1,21,-1
 59 0 l 1,0,-1
EndSplineSet
Validated: 1
EndChar

StartChar: G
Encoding: 71 71 59
Width: 1412
Flags: HW
LayerCount: 2
Fore
SplineSet
1105 831 m 1,0,1
 995 1074 995 1074 728 1074 c 0,2,3
 536 1074 536 1074 424.5 947.5 c 128,-1,4
 313 821 313 821 313 609 c 128,-1,5
 313 397 313 397 426.5 269 c 128,-1,6
 540 141 540 141 734 141 c 1,7,8
 915 145 915 145 1006.5 225 c 128,-1,9
 1098 305 1098 305 1103 448 c 1,10,-1
 867 448 l 1,11,-1
 867 598 l 1,12,-1
 1334 598 l 1,13,14
 1328 126 1328 126 976 16 c 0,15,16
 866 -20 866 -20 736 -20 c 0,17,18
 286 -20 286 -20 133 326 c 0,19,20
 75 456 75 456 75 590 c 0,21,22
 75 863 75 863 226 1036 c 0,23,24
 397 1233 397 1233 699 1233 c 0,25,26
 701 1233 701 1233 702 1233 c 0,27,28
 940 1233 940 1233 1089 1093 c 1,29,-1
 1089 1215 l 1,30,-1
 1260 1215 l 1,31,-1
 1260 831 l 1,32,-1
 1105 831 l 1,0,1
EndSplineSet
Validated: 1
EndChar

StartChar: H
Encoding: 72 72 60
Width: 1372
Flags: HW
LayerCount: 2
Fore
SplineSet
69 0 m 1,0,-1
 69 141 l 1,1,-1
 215 141 l 1,2,-1
 215 1075 l 1,3,-1
 69 1075 l 1,4,-1
 69 1215 l 1,5,-1
 576 1215 l 1,6,-1
 576 1075 l 1,7,-1
 434 1075 l 1,8,-1
 434 713 l 1,9,-1
 939 713 l 1,10,-1
 939 1075 l 1,11,-1
 798 1075 l 1,12,-1
 798 1215 l 1,13,-1
 1303 1215 l 1,14,-1
 1303 1075 l 1,15,-1
 1157 1075 l 1,16,-1
 1157 141 l 1,17,-1
 1303 141 l 1,18,-1
 1303 0 l 1,19,-1
 798 0 l 1,20,-1
 798 141 l 1,21,-1
 939 141 l 1,22,-1
 939 560 l 1,23,-1
 434 560 l 1,24,-1
 434 141 l 1,25,-1
 576 141 l 1,26,-1
 576 0 l 1,27,-1
 69 0 l 1,0,-1
EndSplineSet
Validated: 1
EndChar

StartChar: I
Encoding: 73 73 61
Width: 662
Flags: HW
LayerCount: 2
Fore
SplineSet
67 0 m 1,0,-1
 67 141 l 1,1,-1
 221 141 l 1,2,-1
 221 1075 l 1,3,-1
 67 1075 l 1,4,-1
 67 1215 l 1,5,-1
 594 1215 l 1,6,-1
 594 1075 l 1,7,-1
 440 1075 l 1,8,-1
 440 141 l 1,9,-1
 594 141 l 1,10,-1
 594 0 l 1,11,-1
 67 0 l 1,0,-1
EndSplineSet
Validated: 1
EndChar

StartChar: J
Encoding: 74 74 62
Width: 645
Flags: HW
LayerCount: 2
Fore
SplineSet
-25 -83 m 1,0,-1
 100 -83 l 2,1,2
 101 -83 101 -83 102 -83 c 0,3,4
 206 -83 206 -83 222 16 c 0,5,6
 226 46 226 46 227 80 c 1,7,-1
 227 1075 l 1,8,-1
 58 1075 l 1,9,-1
 58 1215 l 1,10,-1
 608 1215 l 1,11,-1
 608 1075 l 1,12,-1
 446 1075 l 1,13,-1
 446 88 l 2,14,15
 446 -164 446 -164 288 -232 c 0,16,17
 230 -256 230 -256 146 -256 c 2,18,-1
 -25 -256 l 1,19,-1
 -25 -83 l 1,0,-1
EndSplineSet
Validated: 1
EndChar

StartChar: K
Encoding: 75 75 63
Width: 1267
Flags: HW
LayerCount: 2
Fore
SplineSet
1217 0 m 1,0,-1
 673 0 l 1,1,-1
 673 141 l 1,2,-1
 797 141 l 1,3,-1
 422 601 l 1,4,-1
 422 141 l 1,5,-1
 565 141 l 1,6,-1
 565 0 l 1,7,-1
 62 0 l 1,8,-1
 62 141 l 1,9,-1
 203 141 l 1,10,-1
 203 1075 l 1,11,-1
 62 1075 l 1,12,-1
 62 1215 l 1,13,-1
 576 1215 l 1,14,-1
 576 1075 l 1,15,-1
 421 1075 l 1,16,-1
 421 650 l 1,17,-1
 819 1075 l 1,18,-1
 699 1075 l 1,19,-1
 699 1215 l 1,20,-1
 1199 1215 l 1,21,-1
 1199 1075 l 1,22,-1
 1077 1075 l 1,23,-1
 661 634 l 1,24,-1
 1066 141 l 1,25,-1
 1217 141 l 1,26,-1
 1217 0 l 1,0,-1
EndSplineSet
Validated: 1
EndChar

StartChar: L
Encoding: 76 76 64
Width: 1076
Flags: HW
LayerCount: 2
Fore
SplineSet
58 0 m 1,0,-1
 58 141 l 1,1,-1
 227 141 l 1,2,-1
 227 1075 l 1,3,-1
 58 1075 l 1,4,-1
 58 1215 l 1,5,-1
 612 1215 l 1,6,-1
 612 1075 l 1,7,-1
 445 1075 l 1,8,-1
 445 141 l 1,9,-1
 854 141 l 1,10,-1
 854 506 l 1,11,-1
 1034 506 l 1,12,-1
 1034 0 l 1,13,-1
 58 0 l 1,0,-1
EndSplineSet
Validated: 1
EndChar

StartChar: M
Encoding: 77 77 65
Width: 1729
Flags: HW
LayerCount: 2
Fore
SplineSet
219 1075 m 1,0,-1
 62 1075 l 1,1,-1
 62 1215 l 1,2,-1
 533 1215 l 1,3,-1
 858 379 l 1,4,-1
 1190 1215 l 1,5,-1
 1667 1215 l 1,6,-1
 1667 1075 l 1,7,-1
 1511 1075 l 1,8,-1
 1511 141 l 1,9,-1
 1668 141 l 1,10,-1
 1668 0 l 1,11,-1
 1159 0 l 1,12,-1
 1159 141 l 1,13,-1
 1306 141 l 1,14,-1
 1306 1061 l 1,15,-1
 878 0 l 1,16,-1
 803 0 l 1,17,-1
 377 1060 l 1,18,-1
 377 141 l 1,19,-1
 524 141 l 1,20,-1
 524 0 l 1,21,-1
 62 0 l 1,22,-1
 62 141 l 1,23,-1
 219 141 l 1,24,-1
 219 1075 l 1,0,-1
EndSplineSet
Validated: 1
EndChar

StartChar: N
Encoding: 78 78 66
Width: 1406
Flags: HW
LayerCount: 2
Fore
SplineSet
1032 1075 m 1,0,-1
 863 1075 l 1,1,-1
 863 1215 l 1,2,-1
 1374 1215 l 1,3,-1
 1374 1075 l 1,4,-1
 1196 1075 l 1,5,-1
 1196 0 l 1,6,-1
 980 0 l 1,7,-1
 389 1006 l 1,8,-1
 389 141 l 1,9,-1
 559 141 l 1,10,-1
 559 0 l 1,11,-1
 53 0 l 1,12,-1
 53 141 l 1,13,-1
 226 141 l 1,14,-1
 226 1075 l 1,15,-1
 53 1075 l 1,16,-1
 53 1215 l 1,17,-1
 489 1215 l 1,18,-1
 1032 289 l 1,19,-1
 1032 1075 l 1,0,-1
EndSplineSet
Validated: 1
EndChar

StartChar: O
Encoding: 79 79 67
Width: 1439
Flags: HW
LayerCount: 2
Fore
SplineSet
722 1075 m 128,-1,1
 544 1075 544 1075 428.5 942.5 c 128,-1,2
 313 810 313 810 313 608 c 128,-1,3
 313 406 313 406 426 273.5 c 128,-1,4
 539 141 539 141 718.5 141 c 0,5,6
 898 140 898 140 1012 272 c 0,7,8
 1126 403 1126 403 1127 605 c 0,9,10
 1127 809 1127 809 1013 942 c 0,11,0
 900 1075 900 1075 722 1075 c 128,-1,1
1191.5 1053 m 128,-1,13
 1366 873 1366 873 1366 607.5 c 128,-1,14
 1366 342 1366 342 1192 161.5 c 128,-1,15
 1018 -19 1018 -19 723 -19 c 0,16,17
 423 -19 423 -19 249.5 160.5 c 128,-1,18
 76 340 76 340 76 607.5 c 128,-1,19
 76 875 76 875 250 1054 c 128,-1,20
 424 1233 424 1233 720.5 1233 c 128,-1,12
 1017 1233 1017 1233 1191.5 1053 c 128,-1,13
EndSplineSet
Validated: 524321
EndChar

StartChar: P
Encoding: 80 80 68
Width: 1124
Flags: HW
LayerCount: 2
Fore
SplineSet
57 141 m 1,0,-1
 220 141 l 1,1,-1
 220 1075 l 1,2,-1
 62 1075 l 1,3,-1
 62 1215 l 1,4,-1
 606 1215 l 2,5,6
 840 1215 840 1215 962.5 1119.5 c 128,-1,7
 1085 1024 1085 1024 1085 843 c 0,8,9
 1085 552 1085 552 787 494 c 0,10,11
 695 476 695 476 586 476 c 2,12,-1
 439 476 l 1,13,-1
 439 141 l 1,14,-1
 606 141 l 1,15,-1
 606 0 l 1,16,-1
 57 0 l 1,17,-1
 57 141 l 1,0,-1
439 616 m 1,18,-1
 577 616 l 2,19,20
 800 616 800 616 844 748 c 0,21,22
 858 790 858 790 858 843 c 0,23,24
 858 951 858 951 799 1013 c 128,-1,25
 740 1075 740 1075 634 1075 c 2,26,-1
 439 1075 l 1,27,-1
 439 616 l 1,18,-1
EndSplineSet
Validated: 1
EndChar

StartChar: Q
Encoding: 81 81 69
Width: 1441
Flags: HW
LayerCount: 2
Fore
SplineSet
796 -7 m 1,0,1
 994 -82 994 -82 1119 -82 c 0,2,3
 1165 -82 1165 -82 1205 -73 c 1,4,-1
 1166 -254 l 1,5,6
 1137 -261 1137 -261 1088.5 -261 c 128,-1,7
 1040 -261 1040 -261 981.5 -245 c 128,-1,8
 923 -229 923 -229 866 -209.5 c 128,-1,9
 809 -190 809 -190 751.5 -173.5 c 128,-1,10
 694 -157 694 -157 631 -157 c 0,11,12
 498 -157 498 -157 389 -230 c 1,13,-1
 335 -75 l 1,14,15
 432 -10 432 -10 554 7 c 1,16,17
 332 56 332 56 204 219.5 c 128,-1,18
 76 383 76 383 76 605 c 0,19,20
 76 870 76 870 247 1051.5 c 128,-1,21
 418 1233 418 1233 716 1233 c 0,22,23
 718 1233 718 1233 719.5 1233 c 128,-1,24
 721 1233 721 1233 722 1233 c 0,25,26
 1021 1233 1021 1233 1193.5 1053 c 128,-1,27
 1366 873 1366 873 1366 616 c 128,-1,28
 1366 359 1366 359 1208 188 c 128,-1,29
 1050 17 1050 17 796 -7 c 1,0,1
429 944 m 128,-1,31
 314 813 314 813 314 608.5 c 128,-1,32
 314 404 314 404 427 272.5 c 128,-1,33
 540 141 540 141 720 141 c 0,34,35
 721 141 721 141 723 141 c 0,36,37
 900 141 900 141 1014 271 c 128,-1,38
 1128 401 1128 401 1128 605 c 128,-1,39
 1128 809 1128 809 1015 942 c 128,-1,40
 902 1075 902 1075 723 1075 c 128,-1,30
 544 1075 544 1075 429 944 c 128,-1,31
EndSplineSet
Validated: 1
EndChar

StartChar: R
Encoding: 82 82 70
Width: 1220
Flags: HW
LayerCount: 2
Fore
SplineSet
443 702 m 1,0,-1
 642 702 l 2,1,2
 758 702 758 702 808 757 c 0,3,4
 858 812 858 812 858 892 c 0,5,6
 858 972 858 972 804 1023 c 0,7,8
 750 1075 750 1075 656 1075 c 2,9,-1
 443 1075 l 1,10,-1
 443 702 l 1,0,-1
1077 896 m 0,11,12
 1077 649 1077 649 809 581 c 1,13,-1
 1051 141 l 1,14,-1
 1222 141 l 1,15,-1
 1222 0 l 1,16,-1
 898 0 l 1,17,-1
 603 557 l 1,18,-1
 443 557 l 1,19,-1
 443 141 l 1,20,-1
 603 141 l 1,21,-1
 603 0 l 1,22,-1
 55 0 l 1,23,-1
 55 141 l 1,24,-1
 225 141 l 1,25,-1
 225 1075 l 1,26,-1
 55 1075 l 1,27,-1
 55 1215 l 1,28,-1
 654 1215 l 2,29,30
 656 1215 656 1215 657 1215 c 0,31,32
 956 1215 956 1215 1046 1042 c 0,33,34
 1077 984 1077 984 1077 901 c 0,35,36
 1077 899 1077 899 1077 896 c 0,11,12
EndSplineSet
Validated: 1
EndChar

StartChar: S
Encoding: 83 83 71
Width: 1008
Flags: HW
LayerCount: 2
Fore
SplineSet
296 596 m 0,0,1
 86 684 86 684 86 906 c 0,2,3
 86 1062 86 1062 190.5 1148 c 128,-1,4
 295 1234 295 1234 451 1234 c 128,-1,5
 607 1234 607 1234 709 1138 c 1,6,-1
 709 1215 l 1,7,-1
 878 1215 l 1,8,-1
 878 864 l 1,9,-1
 709 864 l 1,10,-1
 709 961 l 1,11,12
 620 1074 620 1074 483 1074 c 0,13,14
 392 1074 392 1074 337 1031.5 c 128,-1,15
 282 989 282 989 282 930 c 128,-1,16
 282 871 282 871 310.5 837 c 128,-1,17
 339 803 339 803 385 778.5 c 0,18,19
 430 754 430 754 490 736 c 0,20,21
 646 687 646 687 719 654 c 0,22,23
 941 555 941 555 941 332 c 1,24,25
 940 172 940 172 826.5 76.5 c 128,-1,26
 713 -19 713 -19 549 -19 c 128,-1,27
 385 -19 385 -19 266 89 c 1,28,-1
 265 0 l 1,29,-1
 94 0 l 1,30,-1
 94 407 l 1,31,-1
 265 407 l 1,32,-1
 265 297 l 1,33,34
 362 141 362 141 522 141 c 0,35,36
 616 141 616 141 674 191.5 c 128,-1,37
 732 242 732 242 732 307 c 128,-1,38
 732 372 732 372 707.5 407.5 c 128,-1,39
 683 443 683 443 634.5 472.5 c 128,-1,40
 586 502 586 502 472 536 c 128,-1,41
 358 570 358 570 296 596 c 0,0,1
EndSplineSet
Validated: 524289
EndChar

StartChar: T
Encoding: 84 84 72
Width: 1132
Flags: HW
LayerCount: 2
Fore
SplineSet
1085 1215 m 1,0,-1
 1085 804 l 1,1,-1
 925 804 l 1,2,-1
 925 1075 l 1,3,-1
 677 1075 l 1,4,-1
 677 141 l 1,5,-1
 853 141 l 1,6,-1
 853 0 l 1,7,-1
 280 0 l 1,8,-1
 280 141 l 1,9,-1
 458 141 l 1,10,-1
 458 1075 l 1,11,-1
 207 1075 l 1,12,-1
 207 804 l 1,13,-1
 47 804 l 1,14,-1
 47 1215 l 1,15,-1
 1085 1215 l 1,0,-1
EndSplineSet
Validated: 1
EndChar

StartChar: U
Encoding: 85 85 73
Width: 1265
Flags: HW
LayerCount: 2
Fore
SplineSet
403 406 m 2,0,1
 403 141 403 141 645 141 c 1,2,3
 838 142 838 142 880 296 c 0,4,5
 894 346 894 346 894 411 c 2,6,-1
 894 1075 l 1,7,-1
 758 1075 l 1,8,-1
 758 1215 l 1,9,-1
 1231 1215 l 1,10,-1
 1231 1075 l 1,11,-1
 1077 1075 l 1,12,-1
 1077 420 l 2,13,14
 1077 85 1077 85 821 6 c 0,15,16
 740 -19 740 -19 620 -19 c 0,17,18
 382 -19 382 -19 274 113 c 0,19,20
 185 221 185 221 185 440 c 2,21,-1
 185 1075 l 1,22,-1
 33 1075 l 1,23,-1
 33 1215 l 1,24,-1
 541 1215 l 1,25,-1
 541 1075 l 1,26,-1
 403 1075 l 1,27,-1
 403 406 l 2,0,1
EndSplineSet
Validated: 1
EndChar

StartChar: V
Encoding: 86 86 74
Width: 1274
Flags: HW
LayerCount: 2
Fore
SplineSet
135 1075 m 1,0,-1
 -15 1075 l 1,1,-1
 -15 1215 l 1,2,-1
 506 1215 l 1,3,-1
 506 1075 l 1,4,-1
 360 1075 l 1,5,-1
 656 236 l 1,6,-1
 948 1075 l 1,7,-1
 804 1075 l 1,8,-1
 804 1215 l 1,9,-1
 1286 1215 l 1,10,-1
 1286 1075 l 1,11,-1
 1136 1075 l 1,12,-1
 734 0 l 1,13,-1
 546 0 l 1,14,-1
 135 1075 l 1,0,-1
EndSplineSet
Validated: 1
EndChar

StartChar: W
Encoding: 87 87 75
Width: 1837
Flags: HW
LayerCount: 2
Fore
SplineSet
1527 1075 m 1,0,-1
 1383 1075 l 1,1,-1
 1383 1215 l 1,2,-1
 1845 1215 l 1,3,-1
 1845 1075 l 1,4,-1
 1702 1075 l 1,5,-1
 1371 0 l 1,6,-1
 1187 0 l 1,7,-1
 917 879 l 1,8,-1
 651 0 l 1,9,-1
 470 0 l 1,10,-1
 131 1075 l 1,11,-1
 -14 1075 l 1,12,-1
 -14 1215 l 1,13,-1
 480 1215 l 1,14,-1
 480 1075 l 1,15,-1
 337 1075 l 1,16,-1
 575 282 l 1,17,-1
 807 1075 l 1,18,-1
 677 1075 l 1,19,-1
 677 1215 l 1,20,-1
 1181 1215 l 1,21,-1
 1181 1075 l 1,22,-1
 1054 1075 l 1,23,-1
 1291 282 l 1,24,-1
 1527 1075 l 1,0,-1
EndSplineSet
Validated: 1
EndChar

StartChar: X
Encoding: 88 88 76
Width: 1251
Flags: HW
LayerCount: 2
Fore
SplineSet
12 0 m 1,0,-1
 12 141 l 1,1,-1
 182 141 l 1,2,-1
 506 615 l 1,3,-1
 187 1075 l 1,4,-1
 25 1075 l 1,5,-1
 25 1215 l 1,6,-1
 557 1215 l 1,7,-1
 557 1075 l 1,8,-1
 423 1075 l 1,9,-1
 641 747 l 1,10,-1
 858 1075 l 1,11,-1
 722 1075 l 1,12,-1
 722 1215 l 1,13,-1
 1213 1215 l 1,14,-1
 1213 1075 l 1,15,-1
 1051 1075 l 1,16,-1
 739 625 l 1,17,-1
 1077 141 l 1,18,-1
 1246 141 l 1,19,-1
 1246 0 l 1,20,-1
 698 0 l 1,21,-1
 698 141 l 1,22,-1
 838 141 l 1,23,-1
 607 492 l 1,24,-1
 377 141 l 1,25,-1
 519 141 l 1,26,-1
 519 0 l 1,27,-1
 12 0 l 1,0,-1
EndSplineSet
Validated: 1
EndChar

StartChar: Y
Encoding: 89 89 77
Width: 1216
Flags: HW
LayerCount: 2
Fore
SplineSet
335 0 m 1,0,-1
 335 141 l 1,1,-1
 502 141 l 1,2,-1
 502 549 l 1,3,-1
 138 1075 l 1,4,-1
 -14 1075 l 1,5,-1
 -14 1215 l 1,6,-1
 517 1215 l 1,7,-1
 517 1075 l 1,8,-1
 374 1075 l 1,9,-1
 632 686 l 1,10,-1
 875 1075 l 1,11,-1
 733 1075 l 1,12,-1
 733 1215 l 1,13,-1
 1227 1215 l 1,14,-1
 1227 1075 l 1,15,-1
 1068 1075 l 1,16,-1
 720 550 l 1,17,-1
 720 141 l 1,18,-1
 891 141 l 1,19,-1
 891 0 l 1,20,-1
 335 0 l 1,0,-1
EndSplineSet
Validated: 1
EndChar

StartChar: Z
Encoding: 90 90 78
Width: 1098
Flags: HW
LayerCount: 2
Fore
SplineSet
73 0 m 1,0,-1
 73 151 l 1,1,-1
 737 1075 l 1,2,-1
 264 1075 l 1,3,-1
 264 855 l 1,4,-1
 105 855 l 1,5,-1
 105 1215 l 1,6,-1
 1006 1215 l 1,7,-1
 1006 1081 l 1,8,-1
 333 141 l 1,9,-1
 858 141 l 1,10,-1
 858 375 l 1,11,-1
 1016 375 l 1,12,-1
 1016 0 l 1,13,-1
 73 0 l 1,0,-1
EndSplineSet
Validated: 1
EndChar

StartChar: bracketleft
Encoding: 91 91 79
Width: 655
Flags: HW
LayerCount: 2
Fore
SplineSet
176 -95 m 1,0,-1
 176 1268 l 1,1,-1
 584 1268 l 1,2,-1
 584 1119 l 1,3,-1
 389 1119 l 1,4,-1
 389 54 l 1,5,-1
 584 54 l 1,6,-1
 584 -95 l 1,7,-1
 176 -95 l 1,0,-1
EndSplineSet
Validated: 1
EndChar

StartChar: backslash
Encoding: 92 92 80
Width: 865
Flags: HW
LayerCount: 2
Fore
SplineSet
239 1224 m 1,0,-1
 803 -19 l 1,1,-1
 632 -19 l 1,2,-1
 68 1224 l 1,3,-1
 239 1224 l 1,0,-1
EndSplineSet
Validated: 1
EndChar

StartChar: bracketright
Encoding: 93 93 81
Width: 655
Flags: HW
LayerCount: 2
Fore
SplineSet
483 1268 m 1,0,-1
 483 -95 l 1,1,-1
 74 -95 l 1,2,-1
 74 54 l 1,3,-1
 270 54 l 1,4,-1
 270 1119 l 1,5,-1
 74 1119 l 1,6,-1
 74 1268 l 1,7,-1
 483 1268 l 1,0,-1
EndSplineSet
Validated: 1
EndChar

StartChar: asciicircum
Encoding: 94 94 82
Width: 953
Flags: HW
LayerCount: 2
Fore
SplineSet
879 590 m 1,0,-1
 698 590 l 1,1,-1
 491 1075 l 1,2,-1
 282 590 l 1,3,-1
 101 590 l 1,4,-1
 404 1233 l 1,5,-1
 578 1233 l 1,6,-1
 879 590 l 1,0,-1
EndSplineSet
Validated: 1
EndChar

StartChar: underscore
Encoding: 95 95 83
Width: 940
Flags: HW
LayerCount: 2
Fore
SplineSet
941 -31 m 1,0,-1
 941 -137 l 1,1,-1
 0 -137 l 1,2,-1
 0 -31 l 1,3,-1
 941 -31 l 1,0,-1
EndSplineSet
Validated: 1
EndChar

StartChar: grave
Encoding: 96 96 84
Width: 579
Flags: HW
LayerCount: 2
Fore
SplineSet
300 960 m 1,0,-1
 84 1266 l 1,1,-1
 342 1266 l 1,2,-1
 465 960 l 1,3,-1
 300 960 l 1,0,-1
EndSplineSet
Validated: 1
EndChar

StartChar: a
Encoding: 97 97 85
Width: 977
Flags: HW
LayerCount: 2
Fore
SplineSet
461 866 m 0,0,1
 822 866 822 866 822 574 c 2,2,-1
 822 141 l 1,3,-1
 969 141 l 1,4,-1
 969 0 l 1,5,-1
 644 0 l 1,6,-1
 635 88 l 1,7,8
 496 -19 496 -19 360 -19 c 128,-1,9
 224 -19 224 -19 143.5 55.5 c 128,-1,10
 63 130 63 130 63 220 c 0,11,12
 63 377 63 377 163.5 441.5 c 128,-1,13
 264 506 264 506 434 506 c 0,14,15
 519 506 519 506 626 485 c 1,16,-1
 626 571 l 2,17,18
 626 688 626 688 516 720 c 0,19,20
 482 730 482 730 443 730 c 0,21,22
 298 730 298 730 204 636 c 1,23,-1
 103 748 l 1,24,25
 223 866 223 866 461 866 c 0,0,1
395 111 m 0,26,27
 522 111 522 111 626 197 c 1,28,-1
 626 368 l 1,29,30
 588 371 588 371 541.5 378 c 128,-1,31
 495 385 495 385 446 385 c 0,32,33
 250 385 250 385 250 239 c 0,34,35
 250 152 250 152 334 121 c 0,36,37
 361 111 361 111 395 111 c 0,26,27
EndSplineSet
Validated: 1
EndChar

StartChar: b
Encoding: 98 98 86
Width: 1131
Flags: HW
LayerCount: 2
Fore
SplineSet
373 750 m 1,0,1
 497 866 497 866 670 866 c 128,-1,2
 843 866 843 866 955 743.5 c 128,-1,3
 1067 621 1067 621 1067 425.5 c 128,-1,4
 1067 230 1067 230 951 105.5 c 128,-1,5
 835 -19 835 -19 662 -19 c 0,6,7
 529 -19 529 -19 429 51 c 0,8,9
 396 74 396 74 372 104 c 1,10,-1
 371 0 l 1,11,-1
 31 0 l 1,12,-1
 31 141 l 1,13,-1
 174 141 l 1,14,-1
 174 1075 l 1,15,-1
 27 1075 l 1,16,-1
 27 1215 l 1,17,-1
 373 1215 l 1,18,-1
 373 750 l 1,0,1
373 253 m 1,19,20
 475 137 475 137 617 137 c 0,21,22
 726 138 726 138 794 216 c 0,23,24
 860 294 860 294 860 420 c 0,25,26
 860 545 860 545 791.5 627.5 c 128,-1,27
 723 710 723 710 606.5 710 c 128,-1,28
 490 710 490 710 400 618 c 0,29,30
 380 598 380 598 373 587 c 1,31,-1
 373 253 l 1,19,20
EndSplineSet
Validated: 1
EndChar

StartChar: c
Encoding: 99 99 87
Width: 969
Flags: HW
LayerCount: 2
Fore
SplineSet
489 866 m 0,0,1
 633 866 633 866 725 769 c 1,2,-1
 724 849 l 1,3,-1
 887 849 l 1,4,-1
 887 535 l 1,5,-1
 730 535 l 1,6,7
 684 711 684 711 510 711 c 0,8,9
 509 710 l 0,10,11
 334 710 334 710 282 544 c 0,12,13
 265 490 265 490 265 425 c 0,14,15
 265 292 265 292 330 214.5 c 128,-1,16
 395 137 395 137 513 137 c 0,17,18
 591 137 591 137 659.5 171.5 c 128,-1,19
 728 206 728 206 771 274 c 1,20,-1
 904 189 l 1,21,22
 783 -19 783 -19 510 -19 c 0,23,24
 295 -19 295 -19 177 111.5 c 128,-1,25
 59 242 59 242 59 427 c 128,-1,26
 59 612 59 612 180 739 c 128,-1,27
 301 866 301 866 489 866 c 0,0,1
EndSplineSet
Validated: 1
EndChar

StartChar: d
Encoding: 100 100 88
Width: 1131
Flags: HW
LayerCount: 2
Fore
SplineSet
759 753 m 1,0,-1
 759 1075 l 1,1,-1
 601 1075 l 1,2,-1
 601 1215 l 1,3,-1
 956 1215 l 1,4,-1
 956 141 l 1,5,-1
 1102 141 l 1,6,-1
 1102 0 l 1,7,-1
 757 0 l 1,8,-1
 757 98 l 1,9,10
 648 -19 648 -19 476 -19 c 0,11,12
 475 -18 l 0,13,14
 302 -18 302 -18 184 101 c 128,-1,15
 66 220 66 220 66 417 c 128,-1,16
 66 614 66 614 178 740 c 0,17,18
 291 866 291 866 463 866 c 128,-1,19
 635 866 635 866 759 753 c 1,0,-1
758 250 m 1,20,-1
 758 588 l 1,21,-1
 728 618 l 2,22,23
 635 711 635 711 523 711 c 0,24,25
 522 711 522 711 521 711 c 0,26,27
 404 711 404 711 337.5 630 c 128,-1,28
 271 549 271 549 271 421.5 c 128,-1,29
 271 294 271 294 338 215.5 c 128,-1,30
 405 137 405 137 525 137 c 128,-1,31
 645 137 645 137 758 250 c 1,20,-1
EndSplineSet
Validated: 1
EndChar

StartChar: e
Encoding: 101 101 89
Width: 1017
Flags: HW
LayerCount: 2
Fore
SplineSet
545 132 m 0,0,1
 701 132 701 132 810 241 c 1,2,-1
 918 137 l 1,3,4
 798 -19 798 -19 536 -19 c 0,5,6
 534 -19 534 -19 533 -19 c 0,7,8
 319 -19 319 -19 190 104 c 0,9,10
 61 227 61 227 61 420 c 0,11,12
 61 613 61 613 193 740 c 0,13,14
 326 866 326 866 529 866 c 0,15,16
 732 866 732 866 843 730 c 0,17,18
 954 594 954 594 954 383 c 1,19,-1
 268 383 l 1,20,21
 280 206 280 206 428 151 c 0,22,23
 478 132 478 132 545 132 c 0,0,1
763 501 m 1,24,25
 740 656 740 656 619 704 c 0,26,27
 578 720 578 720 526 721 c 1,28,29
 413 721 413 721 350.5 661 c 128,-1,30
 288 601 288 601 271 501 c 1,31,-1
 763 501 l 1,24,25
EndSplineSet
Validated: 1
EndChar

StartChar: f
Encoding: 102 102 90
Width: 605
Flags: HW
LayerCount: 2
Fore
SplineSet
536 1009 m 1,0,1
 536 1096 536 1096 457 1096 c 0,2,3
 387 1096 387 1096 387 948 c 2,4,-1
 387 849 l 1,5,-1
 542 849 l 1,6,-1
 542 709 l 1,7,-1
 387 709 l 1,8,-1
 387 141 l 1,9,-1
 545 141 l 1,10,-1
 545 0 l 1,11,-1
 63 0 l 1,12,-1
 63 141 l 1,13,-1
 189 141 l 1,14,-1
 189 709 l 1,15,-1
 59 709 l 1,16,-1
 59 849 l 1,17,-1
 189 849 l 1,18,-1
 189 951 l 2,19,20
 189 1233 189 1233 459 1233 c 0,21,22
 691 1233 691 1233 691 1009 c 1,23,-1
 536 1009 l 1,0,1
EndSplineSet
Validated: 1
EndChar

StartChar: g
Encoding: 103 103 91
Width: 1127
Flags: HW
LayerCount: 2
Fore
SplineSet
753 89 m 1,0,1
 648 -12 648 -12 442 -12 c 1,2,3
 379 -12 379 -12 304.5 19 c 128,-1,4
 230 50 230 50 176 108 c 0,5,6
 60 231 60 231 60 422.5 c 128,-1,7
 60 614 60 614 172.5 740 c 128,-1,8
 285 866 285 866 457.5 866 c 128,-1,9
 630 866 630 866 752 750 c 1,10,-1
 752 849 l 1,11,-1
 1100 849 l 1,12,-1
 1100 709 l 1,13,-1
 950 709 l 1,14,-1
 950 -37 l 2,15,16
 950 -348 950 -348 514 -348 c 0,17,18
 287 -348 287 -348 166 -248 c 1,19,-1
 254 -131 l 1,20,21
 359 -211 359 -211 515.5 -211 c 128,-1,22
 672 -211 672 -211 732 -120 c 0,23,24
 752 -89 752 -89 753 -46 c 1,25,-1
 753 89 l 1,0,1
752 590 m 1,26,27
 644 711 644 711 522.5 711 c 128,-1,28
 401 711 401 711 332.5 630 c 128,-1,29
 264 549 264 549 264 423.5 c 128,-1,30
 264 298 264 298 331.5 221 c 128,-1,31
 399 144 399 144 513.5 144 c 128,-1,32
 628 144 628 144 722 227 c 0,33,34
 742 245 742 245 752 253 c 1,35,-1
 752 590 l 1,26,27
EndSplineSet
Validated: 1
EndChar

StartChar: h
Encoding: 104 104 92
Width: 1093
Flags: HW
LayerCount: 2
Fore
SplineSet
610 711 m 0,0,1
 502 711 502 711 378 631 c 1,2,-1
 378 141 l 1,3,-1
 503 141 l 1,4,-1
 503 0 l 1,5,-1
 31 0 l 1,6,-1
 31 141 l 1,7,-1
 182 141 l 1,8,-1
 182 1075 l 1,9,-1
 33 1075 l 1,10,-1
 33 1215 l 1,11,-1
 378 1215 l 1,12,-1
 378 769 l 1,13,14
 523 866 523 866 661 866 c 0,15,16
 932 866 932 866 932 591 c 2,17,-1
 932 141 l 1,18,-1
 1063 141 l 1,19,-1
 1063 0 l 1,20,-1
 643 0 l 1,21,-1
 643 141 l 1,22,-1
 737 141 l 1,23,-1
 737 553 l 2,24,25
 737 711 737 711 610 711 c 0,0,1
EndSplineSet
Validated: 1
EndChar

StartChar: i
Encoding: 105 105 93
Width: 571
Flags: HW
LayerCount: 2
Fore
SplineSet
301 1227 m 256,0,1
 349 1227 349 1227 382.5 1195.5 c 128,-1,2
 416 1164 416 1164 416 1130 c 0,3,4
 416 1072 416 1072 382.5 1041.5 c 128,-1,5
 349 1011 349 1011 304 1011 c 0,6,7
 303 1011 303 1011 301 1011 c 256,8,9
 300 1011 300 1011 299 1011 c 0,10,11
 227 1011 227 1011 197 1076 c 0,12,13
 188 1096 188 1096 188 1118 c 0,14,15
 188 1165 188 1165 220.5 1196 c 128,-1,16
 253 1227 253 1227 298 1227 c 0,17,18
 300 1227 300 1227 301 1227 c 256,0,1
67 709 m 1,19,-1
 67 849 l 1,20,-1
 400 849 l 1,21,-1
 400 141 l 1,22,-1
 537 141 l 1,23,-1
 537 0 l 1,24,-1
 67 0 l 1,25,-1
 67 141 l 1,26,-1
 204 141 l 1,27,-1
 204 709 l 1,28,-1
 67 709 l 1,19,-1
EndSplineSet
Validated: 1
EndChar

StartChar: j
Encoding: 106 106 94
Width: 523
Flags: HW
LayerCount: 2
Fore
SplineSet
275 1227 m 256,0,1
 321 1227 321 1227 355.5 1196 c 0,2,3
 390 1164 390 1164 390 1130 c 0,4,5
 390 1071 390 1071 356 1040.5 c 128,-1,6
 322 1010 322 1010 275 1010 c 0,7,8
 227 1010 227 1010 194 1041.5 c 128,-1,9
 161 1073 161 1073 161 1107 c 0,10,11
 161 1167 161 1167 194 1197 c 128,-1,12
 227 1227 227 1227 272 1227 c 0,13,14
 274 1227 274 1227 275 1227 c 256,0,1
14 709 m 1,15,-1
 14 849 l 1,16,-1
 379 849 l 1,17,-1
 379 47 l 2,18,19
 379 -40 379 -40 370.5 -111.5 c 128,-1,20
 362 -183 362 -183 328 -234 c 0,21,22
 257 -342 257 -342 48 -342 c 2,23,-1
 -48 -342 l 1,24,-1
 -48 -186 l 1,25,-1
 48 -186 l 2,26,27
 158 -186 158 -186 175 -91 c 0,28,29
 181 -58 181 -58 181 -13 c 2,30,-1
 181 709 l 1,31,-1
 14 709 l 1,15,-1
EndSplineSet
Validated: 524289
EndChar

StartChar: k
Encoding: 107 107 95
Width: 1088
Flags: HW
LayerCount: 2
Fore
SplineSet
35 0 m 1,0,-1
 35 141 l 1,1,-1
 186 141 l 1,2,-1
 186 1075 l 1,3,-1
 34 1075 l 1,4,-1
 34 1215 l 1,5,-1
 381 1215 l 1,6,-1
 381 449 l 1,7,-1
 700 709 l 1,8,-1
 555 709 l 1,9,-1
 555 849 l 1,10,-1
 1041 849 l 1,11,-1
 1041 709 l 1,12,-1
 902 709 l 1,13,-1
 589 440 l 1,14,-1
 914 141 l 1,15,-1
 1053 141 l 1,16,-1
 1053 0 l 1,17,-1
 608 0 l 1,18,-1
 608 141 l 1,19,-1
 692 141 l 1,20,-1
 381 428 l 1,21,-1
 381 141 l 1,22,-1
 491 141 l 1,23,-1
 491 0 l 1,24,-1
 35 0 l 1,0,-1
EndSplineSet
Validated: 1
EndChar

StartChar: l
Encoding: 108 108 96
Width: 556
Flags: HW
LayerCount: 2
Fore
SplineSet
36 0 m 1,0,-1
 36 141 l 1,1,-1
 187 141 l 1,2,-1
 187 1075 l 1,3,-1
 38 1075 l 1,4,-1
 38 1215 l 1,5,-1
 383 1215 l 1,6,-1
 383 141 l 1,7,-1
 518 141 l 1,8,-1
 518 0 l 1,9,-1
 36 0 l 1,0,-1
EndSplineSet
Validated: 1
EndChar

StartChar: m
Encoding: 109 109 97
Width: 1687
Flags: HW
LayerCount: 2
Fore
SplineSet
697 866 m 0,0,1
 865 866 865 866 937 726 c 1,2,3
 1076 834 1076 834 1178 857 c 0,4,5
 1218 866 1218 866 1271 866 c 0,6,7
 1387 866 1387 866 1456.5 793 c 128,-1,8
 1526 720 1526 720 1526 595 c 2,9,-1
 1526 137 l 1,10,-1
 1657 137 l 1,11,-1
 1657 0 l 1,12,-1
 1215 0 l 1,13,-1
 1215 137 l 1,14,-1
 1331 137 l 1,15,-1
 1331 528 l 2,16,17
 1331 532 1331 532 1331 536 c 0,18,19
 1331 621 1331 621 1310 652 c 1,20,21
 1273 711 1273 711 1200 711 c 0,22,23
 1085 711 1085 711 967 588 c 1,24,-1
 967 141 l 1,25,-1
 1092 141 l 1,26,-1
 1092 0 l 1,27,-1
 660 0 l 1,28,-1
 660 141 l 1,29,-1
 769 141 l 1,30,-1
 769 523 l 2,31,32
 769 618 769 618 740.5 664.5 c 128,-1,33
 712 711 712 711 635 711 c 128,-1,34
 558 711 558 711 468 643 c 0,35,36
 439 621 439 621 406 593 c 1,37,-1
 406 141 l 1,38,-1
 532 141 l 1,39,-1
 532 0 l 1,40,-1
 52 0 l 1,41,-1
 52 141 l 1,42,-1
 209 141 l 1,43,-1
 209 709 l 1,44,-1
 57 709 l 1,45,-1
 57 849 l 1,46,-1
 404 849 l 1,47,-1
 404 817 l 2,48,49
 404 783 404 783 406 743 c 1,50,51
 559 866 559 866 697 866 c 0,0,1
EndSplineSet
Validated: 1
EndChar

StartChar: n
Encoding: 110 110 98
Width: 1105
Flags: HW
LayerCount: 2
Fore
SplineSet
638 711 m 0,0,1
 523 711 523 711 407 593 c 1,2,-1
 407 141 l 1,3,-1
 528 141 l 1,4,-1
 528 0 l 1,5,-1
 65 0 l 1,6,-1
 65 141 l 1,7,-1
 209 141 l 1,8,-1
 209 709 l 1,9,-1
 61 709 l 1,10,-1
 61 849 l 1,11,-1
 405 849 l 1,12,-1
 405 826 l 2,13,14
 405 806 405 806 406 778 c 128,-1,15
 407 750 407 750 407 745 c 1,16,17
 558 866 558 866 692 866 c 0,18,19
 868 866 868 866 926 708 c 0,20,21
 946 656 946 656 945 616 c 1,22,-1
 945 554 l 1,23,-1
 944 424 l 1,24,-1
 944 141 l 1,25,-1
 1087 141 l 1,26,-1
 1087 0 l 1,27,-1
 655 0 l 1,28,-1
 655 141 l 1,29,-1
 749 141 l 1,30,-1
 749 535 l 2,31,32
 749 621 749 621 724.5 666 c 128,-1,33
 700 711 700 711 638 711 c 0,0,1
EndSplineSet
Validated: 33
EndChar

StartChar: o
Encoding: 111 111 99
Width: 1029
Flags: HW
LayerCount: 2
Fore
SplineSet
693.5 632 m 128,-1,1
 627 711 627 711 513.5 711 c 128,-1,2
 400 711 400 711 334 631.5 c 128,-1,3
 268 552 268 552 268 423 c 0,4,5
 268 224 268 224 412 158 c 0,6,7
 458 137 458 137 514 137 c 256,8,9
 627 137 627 137 693.5 216.5 c 128,-1,10
 760 296 760 296 760 424.5 c 128,-1,0
 760 553 760 553 693.5 632 c 128,-1,1
190 742 m 128,-1,12
 317 866 317 866 516.5 866 c 128,-1,13
 716 866 716 866 841.5 741.5 c 128,-1,14
 967 617 967 617 967 424 c 128,-1,15
 967 231 967 231 840.5 106 c 128,-1,16
 714 -19 714 -19 513.5 -19 c 128,-1,17
 313 -19 313 -19 188 106 c 128,-1,18
 63 231 63 231 63 424.5 c 128,-1,11
 63 618 63 618 190 742 c 128,-1,12
EndSplineSet
Validated: 1
EndChar

StartChar: p
Encoding: 112 112 100
Width: 1122
Flags: HW
LayerCount: 2
Fore
SplineSet
371 93 m 1,0,-1
 371 -180 l 1,1,-1
 539 -180 l 1,2,-1
 539 -330 l 1,3,-1
 28 -330 l 1,4,-1
 28 -180 l 1,5,-1
 175 -180 l 1,6,-1
 175 709 l 1,7,-1
 28 709 l 1,8,-1
 28 849 l 1,9,-1
 368 849 l 1,10,-1
 371 746 l 1,11,12
 495 866 495 866 667.5 866 c 128,-1,13
 840 866 840 866 952 741 c 128,-1,14
 1064 616 1064 616 1064 423 c 128,-1,15
 1064 230 1064 230 948 106 c 0,16,17
 832 -19 832 -19 655.5 -19 c 128,-1,18
 479 -19 479 -19 371 93 c 1,0,-1
371 245 m 1,19,20
 479 137 479 137 607 137 c 0,21,22
 608 137 608 137 610 137 c 0,23,24
 727 137 727 137 793.5 215 c 128,-1,25
 860 293 860 293 860 420 c 128,-1,26
 860 547 860 547 791.5 629 c 128,-1,27
 723 711 723 711 601 711 c 128,-1,28
 479 711 479 711 371 590 c 1,29,-1
 371 245 l 1,19,20
EndSplineSet
Validated: 1
EndChar

StartChar: q
Encoding: 113 113 101
Width: 1125
Flags: HW
LayerCount: 2
Fore
SplineSet
751 94 m 1,0,1
 644 -19 644 -19 470 -19 c 0,2,3
 469 -18 469 -18 468 -18 c 0,4,5
 292 -18 292 -18 176 105 c 128,-1,6
 60 228 60 228 60 422 c 128,-1,7
 60 616 60 616 173.5 741 c 128,-1,8
 287 866 287 866 460.5 866 c 128,-1,9
 634 866 634 866 751 746 c 1,10,-1
 753 849 l 1,11,-1
 1096 849 l 1,12,-1
 1096 709 l 1,13,-1
 949 709 l 1,14,-1
 949 -181 l 1,15,-1
 1096 -181 l 1,16,-1
 1096 -330 l 1,17,-1
 585 -330 l 1,18,-1
 585 -181 l 1,19,-1
 751 -181 l 1,20,-1
 751 94 l 1,0,1
751 253 m 1,21,-1
 751 587 l 1,22,23
 692 660 692 660 604 696 c 0,24,25
 566 712 566 712 539.5 712 c 128,-1,26
 513 712 513 712 485 711.5 c 128,-1,27
 457 711 457 711 408.5 689 c 128,-1,28
 360 667 360 667 328 628 c 0,29,30
 263 550 263 550 263 421.5 c 128,-1,31
 263 293 263 293 331 215 c 128,-1,32
 399 137 399 137 517 137 c 128,-1,33
 635 137 635 137 751 253 c 1,21,-1
EndSplineSet
Validated: 1
EndChar

StartChar: r
Encoding: 114 114 102
Width: 806
Flags: HW
LayerCount: 2
Fore
SplineSet
397 657 m 1,0,1
 491 866 491 866 695 866 c 1,2,3
 731 866 731 866 781 861 c 1,4,-1
 779 681 l 2,5,6
 780 684 780 684 706 684 c 0,7,8
 557 684 557 684 489.5 607 c 128,-1,9
 422 530 422 530 422 379 c 2,10,-1
 422 141 l 1,11,-1
 602 141 l 1,12,-1
 602 0 l 1,13,-1
 61 0 l 1,14,-1
 61 141 l 1,15,-1
 226 141 l 1,16,-1
 226 709 l 1,17,-1
 61 709 l 1,18,-1
 61 849 l 1,19,-1
 396 849 l 1,20,-1
 397 657 l 1,0,1
EndSplineSet
Validated: 37
EndChar

StartChar: s
Encoding: 115 115 103
Width: 873
Flags: HW
LayerCount: 2
Fore
SplineSet
243 51 m 1,0,-1
 243 0 l 1,1,-1
 87 0 l 1,2,-1
 87 283 l 1,3,-1
 243 283 l 1,4,-1
 243 216 l 1,5,6
 301 119 301 119 465 119 c 128,-1,7
 629 119 629 119 629 224 c 0,8,9
 629 281 629 281 543 312 c 0,10,11
 504 326 504 326 454 336 c 0,12,13
 234 383 234 383 155.5 443 c 128,-1,14
 77 503 77 503 77 614.5 c 128,-1,15
 77 726 77 726 164 796 c 128,-1,16
 251 866 251 866 385.5 866 c 128,-1,17
 520 866 520 866 600 796 c 1,18,-1
 600 849 l 1,19,-1
 762 849 l 1,20,-1
 762 585 l 1,21,-1
 600 585 l 1,22,-1
 600 654 l 1,23,24
 535 729 535 729 413 729 c 0,25,26
 339 729 339 729 296.5 703.5 c 128,-1,27
 254 678 254 678 254 639.5 c 128,-1,28
 254 601 254 601 278 581.5 c 128,-1,29
 302 562 302 562 341 549 c 128,-1,30
 380 536 380 536 430 526 c 128,-1,31
 480 516 480 516 532 503 c 0,32,33
 660 471 660 471 723 421 c 0,34,35
 810 352 810 352 810 235 c 128,-1,36
 810 118 810 118 719.5 49.5 c 128,-1,37
 629 -19 629 -19 479.5 -19 c 128,-1,38
 330 -19 330 -19 243 51 c 1,0,-1
EndSplineSet
Validated: 1
EndChar

StartChar: t
Encoding: 116 116 104
Width: 596
Flags: HW
LayerCount: 2
Fore
SplineSet
36 709 m 1,0,-1
 36 849 l 1,1,-1
 162 849 l 1,2,-1
 162 1111 l 1,3,-1
 357 1156 l 1,4,-1
 357 849 l 1,5,-1
 560 849 l 1,6,-1
 560 709 l 1,7,-1
 357 709 l 1,8,-1
 357 259 l 2,9,10
 357 195 357 195 371 168 c 128,-1,11
 385 141 385 141 424 141 c 2,12,-1
 569 141 l 1,13,-1
 569 0 l 1,14,-1
 385 0 l 2,15,16
 266 0 266 0 213 64 c 128,-1,17
 160 128 160 128 160 248 c 2,18,-1
 160 709 l 1,19,-1
 36 709 l 1,0,-1
EndSplineSet
Validated: 1
EndChar

StartChar: u
Encoding: 117 117 105
Width: 1087
Flags: HW
LayerCount: 2
Fore
SplineSet
471 137 m 0,0,1
 589 137 589 137 695 259 c 1,2,-1
 695 709 l 1,3,-1
 554 709 l 1,4,-1
 554 849 l 1,5,-1
 893 849 l 1,6,-1
 893 141 l 1,7,-1
 1040 141 l 1,8,-1
 1040 0 l 1,9,-1
 699 0 l 1,10,-1
 695 96 l 1,11,12
 562 -19 562 -19 420 -19 c 0,13,14
 153 -19 153 -19 153 269 c 2,15,-1
 153 709 l 1,16,-1
 26 709 l 1,17,-1
 26 849 l 1,18,-1
 350 849 l 1,19,-1
 350 292 l 2,20,21
 350 216 350 216 376.5 176.5 c 128,-1,22
 403 137 403 137 471 137 c 0,0,1
EndSplineSet
Validated: 1
EndChar

StartChar: v
Encoding: 118 118 106
Width: 1022
Flags: HW
LayerCount: 2
Fore
SplineSet
434 0 m 1,0,-1
 142 709 l 1,1,-1
 -3 709 l 1,2,-1
 -3 849 l 1,3,-1
 454 849 l 1,4,-1
 454 709 l 1,5,-1
 342 709 l 1,6,7
 471 335 471 335 526 209 c 1,8,-1
 718 709 l 1,9,-1
 601 709 l 1,10,-1
 601 849 l 1,11,-1
 1025 849 l 1,12,-1
 1025 709 l 1,13,-1
 892 709 l 1,14,-1
 605 0 l 1,15,-1
 434 0 l 1,0,-1
EndSplineSet
Validated: 1
EndChar

StartChar: w
Encoding: 119 119 107
Width: 1418
Flags: HW
LayerCount: 2
Fore
SplineSet
101 709 m 1,0,-1
 8 709 l 1,1,-1
 8 849 l 1,2,-1
 382 849 l 1,3,-1
 382 709 l 1,4,-1
 294 709 l 1,5,-1
 451 201 l 1,6,-1
 607 709 l 1,7,-1
 506 709 l 1,8,-1
 506 849 l 1,9,-1
 920 849 l 1,10,-1
 920 709 l 1,11,-1
 820 709 l 1,12,-1
 984 197 l 1,13,-1
 1129 709 l 1,14,-1
 1031 709 l 1,15,-1
 1031 849 l 1,16,-1
 1405 849 l 1,17,-1
 1405 709 l 1,18,-1
 1307 709 l 1,19,-1
 1074 0 l 1,20,-1
 889 0 l 1,21,-1
 709 547 l 1,22,-1
 531 0 l 1,23,-1
 346 0 l 1,24,-1
 101 709 l 1,0,-1
EndSplineSet
Validated: 1
EndChar

StartChar: x
Encoding: 120 120 108
Width: 1036
Flags: HW
LayerCount: 2
Fore
SplineSet
37 0 m 1,0,-1
 37 141 l 1,1,-1
 166 141 l 1,2,-1
 411 429 l 1,3,-1
 174 709 l 1,4,-1
 51 709 l 1,5,-1
 51 849 l 1,6,-1
 476 849 l 1,7,-1
 476 709 l 1,8,-1
 396 709 l 1,9,-1
 522 552 l 1,10,-1
 647 709 l 1,11,-1
 569 709 l 1,12,-1
 569 849 l 1,13,-1
 982 849 l 1,14,-1
 982 709 l 1,15,-1
 847 709 l 1,16,-1
 621 440 l 1,17,-1
 876 141 l 1,18,-1
 995 141 l 1,19,-1
 995 0 l 1,20,-1
 558 0 l 1,21,-1
 558 141 l 1,22,-1
 653 141 l 1,23,-1
 508 316 l 1,24,-1
 369 141 l 1,25,-1
 461 141 l 1,26,-1
 461 0 l 1,27,-1
 37 0 l 1,0,-1
EndSplineSet
Validated: 1
EndChar

StartChar: y
Encoding: 121 121 109
Width: 1049
Flags: HW
LayerCount: 2
Fore
SplineSet
721 709 m 1,0,-1
 608 709 l 1,1,-1
 608 849 l 1,2,-1
 1040 849 l 1,3,-1
 1040 709 l 1,4,-1
 909 709 l 1,5,-1
 650 -23 l 2,6,7
 622 -106 622 -106 596 -169 c 0,8,9
 570 -232 570 -232 534 -276 c 0,10,11
 462 -363 462 -363 301 -363 c 0,12,13
 299 -363 299 -363 297 -363 c 2,14,-1
 179 -363 l 1,15,-1
 179 -206 l 1,16,-1
 277 -206 l 2,17,18
 354 -206 354 -206 390 -182 c 0,19,20
 426 -158 426 -158 457 -59 c 1,21,-1
 488 45 l 1,22,-1
 419 45 l 1,23,-1
 130 709 l 1,24,-1
 2 709 l 1,25,-1
 2 849 l 1,26,-1
 453 849 l 1,27,-1
 453 709 l 1,28,-1
 347 709 l 1,29,-1
 545 175 l 1,30,-1
 721 709 l 1,0,-1
EndSplineSet
Validated: 1
EndChar

StartChar: z
Encoding: 122 122 110
Width: 906
Flags: HW
LayerCount: 2
Fore
SplineSet
60 0 m 1,0,-1
 60 135 l 1,1,-1
 595 715 l 1,2,-1
 246 715 l 1,3,-1
 246 562 l 1,4,-1
 100 562 l 1,5,-1
 100 849 l 1,6,-1
 829 849 l 1,7,-1
 829 710 l 1,8,-1
 290 133 l 1,9,-1
 677 133 l 1,10,-1
 677 298 l 1,11,-1
 828 298 l 1,12,-1
 828 0 l 1,13,-1
 60 0 l 1,0,-1
EndSplineSet
Validated: 1
EndChar

StartChar: braceleft
Encoding: 123 123 111
Width: 579
Flags: HW
LayerCount: 2
Fore
SplineSet
31 638 m 1,0,1
 170 638 170 638 189 796 c 0,2,3
 195 846 195 846 195 924 c 128,-1,4
 195 1002 195 1002 199 1078 c 128,-1,5
 203 1154 203 1154 228 1210 c 0,6,7
 281 1328 281 1328 461 1328 c 2,8,-1
 543 1328 l 1,9,-1
 543 1195 l 1,10,11
 430 1195 430 1195 403.5 1171 c 128,-1,12
 377 1147 377 1147 369.5 1113 c 0,13,14
 362 1080 362 1080 362 996 c 0,15,16
 362 794 362 794 336.5 705.5 c 128,-1,17
 311 617 311 617 215 566 c 1,18,19
 300 522 300 522 330 440 c 128,-1,20
 360 358 360 358 360 228.5 c 128,-1,21
 360 99 360 99 362.5 51 c 128,-1,22
 365 3 365 3 382.5 -22.5 c 128,-1,23
 400 -48 400 -48 437 -55.5 c 128,-1,24
 474 -63 474 -63 543 -63 c 1,25,-1
 543 -196 l 1,26,-1
 462 -196 l 2,27,28
 281 -196 281 -196 229 -83 c 0,29,30
 204 -29 204 -29 199.5 46 c 128,-1,31
 195 121 195 121 195 200 c 0,32,33
 195 361 195 361 163.5 427.5 c 128,-1,34
 132 494 132 494 31 495 c 1,35,-1
 31 638 l 1,0,1
EndSplineSet
Validated: 524289
EndChar

StartChar: bar
Encoding: 124 124 112
Width: 646
Flags: HW
LayerCount: 2
Fore
SplineSet
243 1227 m 1,0,-1
 403 1227 l 1,1,-1
 403 -251 l 1,2,-1
 243 -251 l 1,3,-1
 243 1227 l 1,0,-1
EndSplineSet
Validated: 1
EndChar

StartChar: braceright
Encoding: 125 125 113
Width: 579
Flags: HW
LayerCount: 2
Fore
SplineSet
543 495 m 1,0,1
 443 494 443 494 411.5 427 c 128,-1,2
 380 360 380 360 380 240.5 c 128,-1,3
 380 121 380 121 375.5 46 c 128,-1,4
 371 -29 371 -29 346 -83 c 0,5,6
 294 -196 294 -196 113 -196 c 2,7,-1
 31 -196 l 1,8,-1
 31 -63 l 1,9,10
 100 -63 100 -63 137 -56 c 128,-1,11
 174 -49 174 -49 191.5 -24 c 128,-1,12
 209 1 209 1 212 47.5 c 128,-1,13
 215 94 215 94 215 178 c 0,14,15
 215 352 215 352 245 437 c 128,-1,16
 275 522 275 522 360 566 c 1,17,18
 264 616 264 616 238.5 704 c 128,-1,19
 213 792 213 792 213 1023 c 0,20,21
 213 1133 213 1133 179 1164 c 128,-1,22
 145 1195 145 1195 31 1195 c 1,23,-1
 31 1328 l 1,24,-1
 114 1328 l 2,25,26
 293 1328 293 1328 346 1212 c 0,27,28
 371 1157 371 1157 375.5 1081.5 c 128,-1,29
 380 1006 380 1006 380 928 c 0,30,31
 380 772 380 772 410 712 c 0,32,33
 446 638 446 638 543 638 c 1,34,-1
 543 495 l 1,0,1
EndSplineSet
Validated: 1
EndChar

StartChar: asciitilde
Encoding: 126 126 114
Width: 1122
Flags: HW
LayerCount: 2
Fore
SplineSet
802 630 m 0,0,1
 912 630 912 630 1013 731 c 1,2,-1
 1040 588 l 1,3,4
 932 461 932 461 795 461 c 0,5,6
 702 461 702 461 555 529 c 128,-1,7
 408 597 408 597 312 597 c 128,-1,8
 216 597 216 597 110 489 c 1,9,-1
 87 627 l 1,10,11
 191 757 191 757 341 757 c 0,12,13
 342 757 342 757 344 757 c 0,14,15
 434 757 434 757 585 694 c 0,16,17
 642 670 642 670 696.5 650 c 128,-1,18
 751 630 751 630 802 630 c 0,0,1
EndSplineSet
Validated: 1
EndChar

StartChar: cent
Encoding: 162 162 116
Width: 912
Flags: HW
LayerCount: 2
Fore
SplineSet
475 106 m 0,0,1
 654 106 654 106 741 263 c 1,2,-1
 845 193 l 1,3,4
 792 89 792 89 695 33.5 c 128,-1,5
 598 -22 598 -22 473 -22 c 0,6,7
 407 -22 407 -22 352 -7 c 1,8,-1
 236 -355 l 1,9,-1
 156 -349 l 1,10,-1
 281 21 l 1,11,12
 119 102 119 102 71 289 c 0,13,14
 56 347 56 347 56 424.5 c 128,-1,15
 56 502 56 502 88 580.5 c 128,-1,16
 120 659 120 659 174 716 c 0,17,18
 290 837 290 837 457 837 c 0,19,20
 505 837 505 837 547 825 c 1,21,-1
 667 1190 l 1,22,-1
 748 1183 l 1,23,-1
 619 799 l 1,24,25
 668 775 668 775 700 737 c 1,26,-1
 698 819 l 1,27,-1
 826 819 l 1,28,-1
 826 517 l 1,29,-1
 700 517 l 1,30,31
 679 641 679 641 582 685 c 1,32,-1
 393 117 l 1,33,34
 428 106 428 106 475 106 c 0,0,1
327 155 m 1,35,-1
 507 706 l 1,36,37
 487 709 487 709 447 709 c 0,38,39
 408 710 408 710 360 688 c 0,40,41
 208 619 208 619 208 394 c 0,42,43
 208 242 208 242 327 155 c 1,35,-1
EndSplineSet
Validated: 33
EndChar

StartChar: sterling
Encoding: 163 163 117
Width: 1049
Flags: HW
LayerCount: 2
Fore
SplineSet
418 344 m 0,0,1
 418 442 418 442 339 559 c 1,2,-1
 117 559 l 1,3,-1
 117 692 l 1,4,-1
 266 692 l 1,5,6
 218 792 218 792 218 886 c 0,7,8
 218 1059 218 1059 316.5 1146 c 128,-1,9
 415 1233 415 1233 582 1233 c 0,10,11
 584 1233 584 1233 585.5 1233 c 128,-1,12
 587 1233 587 1233 588 1233 c 0,13,14
 832 1233 832 1233 904 1032 c 0,15,16
 926 968 926 968 927 890 c 1,17,-1
 756 890 l 1,18,19
 756 1080 756 1080 593 1080 c 0,20,21
 498 1080 498 1080 446.5 1036.5 c 128,-1,22
 395 993 395 993 395 911.5 c 128,-1,23
 395 830 395 830 469 692 c 1,24,-1
 855 692 l 1,25,-1
 855 559 l 1,26,-1
 530 559 l 1,27,28
 569 479 569 479 569 399 c 128,-1,29
 569 319 569 319 533 232 c 1,30,31
 581 203 581 203 627 179.5 c 0,32,33
 672 156 672 156 716 156 c 0,34,35
 791 156 791 156 815.5 193.5 c 128,-1,36
 840 231 840 231 847 325 c 1,37,-1
 974 325 l 1,38,39
 974 148 974 148 920 65 c 128,-1,40
 866 -18 866 -18 720 -18 c 0,41,42
 648 -18 648 -18 585 13.5 c 128,-1,43
 522 45 522 45 457 96 c 1,44,45
 374 -18 374 -18 263 -18 c 128,-1,46
 152 -18 152 -18 93.5 36.5 c 128,-1,47
 35 91 35 91 35 171 c 128,-1,48
 35 251 35 251 95 313 c 128,-1,49
 155 375 155 375 246 375 c 128,-1,50
 337 375 337 375 415 309 c 1,51,52
 418 321 418 321 418 344 c 0,0,1
320 212 m 1,53,54
 288 233 288 233 259 233 c 128,-1,55
 230 233 230 233 211 215.5 c 128,-1,56
 192 198 192 198 192 175 c 128,-1,57
 192 152 192 152 206 134.5 c 128,-1,58
 220 117 220 117 241 117 c 128,-1,59
 262 117 262 117 291 133 c 1,60,61
 298 151 298 151 305 170.5 c 128,-1,62
 312 190 312 190 320 212 c 1,53,54
EndSplineSet
Validated: 524289
EndChar

StartChar: currency
Encoding: 164 164 118
Width: 929
Flags: HW
LayerCount: 2
Fore
SplineSet
198 601 m 1,0,1
 123 691 123 691 123 806.5 c 128,-1,2
 123 922 123 922 196 1007 c 1,3,-1
 116 1088 l 1,4,-1
 185 1157 l 1,5,-1
 271 1071 l 1,6,7
 360 1124 360 1124 464 1124 c 256,8,9
 569 1124 569 1124 658 1069 c 1,10,-1
 746 1157 l 1,11,-1
 815 1088 l 1,12,-1
 732 1005 l 1,13,14
 804 921 804 921 804 806.5 c 128,-1,15
 804 692 804 692 730 603 c 1,16,-1
 815 519 l 1,17,-1
 746 451 l 1,18,-1
 656 539 l 1,19,20
 571 486 571 486 465.5 486 c 128,-1,21
 360 486 360 486 273 538 c 1,22,-1
 185 451 l 1,23,-1
 116 519 l 1,24,-1
 198 601 l 1,0,1
317.5 660 m 128,-1,26
 374 600 374 600 464 600 c 256,27,28
 554 600 554 600 610 660 c 128,-1,29
 666 720 666 720 666 804 c 256,30,31
 666 887 666 887 609.5 946.5 c 128,-1,32
 553 1006 553 1006 462.5 1006 c 128,-1,33
 372 1006 372 1006 316.5 946.5 c 128,-1,34
 261 887 261 887 261 803.5 c 128,-1,25
 261 720 261 720 317.5 660 c 128,-1,26
EndSplineSet
Validated: 1
EndChar

StartChar: yen
Encoding: 165 165 119
Width: 1221
Flags: HW
LayerCount: 2
Fore
SplineSet
367 0 m 1,0,-1
 367 123 l 1,1,-1
 526 123 l 1,2,-1
 526 297 l 1,3,-1
 249 297 l 1,4,-1
 249 414 l 1,5,-1
 526 414 l 1,6,-1
 526 503 l 1,7,-1
 249 503 l 1,8,-1
 249 622 l 1,9,-1
 460 622 l 1,10,-1
 168 1032 l 1,11,-1
 22 1032 l 1,12,-1
 22 1153 l 1,13,-1
 494 1153 l 1,14,-1
 494 1030 l 1,15,-1
 344 1030 l 1,16,-1
 618 639 l 1,17,-1
 875 1031 l 1,18,-1
 725 1031 l 1,19,-1
 725 1153 l 1,20,-1
 1185 1153 l 1,21,-1
 1185 1030 l 1,22,-1
 1029 1030 l 1,23,-1
 749 622 l 1,24,-1
 960 622 l 1,25,-1
 960 503 l 1,26,-1
 686 503 l 1,27,-1
 686 414 l 1,28,-1
 960 414 l 1,29,-1
 960 297 l 1,30,-1
 686 297 l 1,31,-1
 686 122 l 1,32,-1
 850 122 l 1,33,-1
 850 0 l 1,34,-1
 367 0 l 1,0,-1
EndSplineSet
Validated: 1
EndChar

StartChar: brokenbar
Encoding: 166 166 120
Width: 414
Flags: HW
LayerCount: 2
Fore
SplineSet
269 1215 m 1,0,-1
 269 670 l 1,1,-1
 147 670 l 1,2,-1
 147 1215 l 1,3,-1
 269 1215 l 1,0,-1
269 324 m 1,4,-1
 269 -221 l 1,5,-1
 147 -221 l 1,6,-1
 147 324 l 1,7,-1
 269 324 l 1,4,-1
EndSplineSet
Validated: 1
EndChar

StartChar: dieresis
Encoding: 168 168 121
Width: 661
Flags: HW
LayerCount: 2
Fore
SplineSet
469 1184 m 128,-1,1
 516 1207 516 1207 535.5 1207 c 128,-1,2
 555 1207 555 1207 557 1207 c 256,3,4
 591 1206 591 1206 618.5 1156.5 c 128,-1,5
 646 1107 646 1107 646 1079.5 c 128,-1,6
 646 1052 646 1052 632 1038 c 128,-1,7
 618 1024 618 1024 585.5 1007 c 128,-1,8
 553 990 553 990 522.5 990 c 128,-1,9
 492 990 492 990 476 1005.5 c 0,10,11
 460 1020 460 1020 448 1042 c 0,12,13
 422 1089 422 1089 422 1125 c 128,-1,0
 422 1161 422 1161 469 1184 c 128,-1,1
65.5 1184.5 m 128,-1,15
 113 1208 113 1208 127.5 1208 c 128,-1,16
 142 1208 142 1208 157 1207 c 0,17,18
 188 1206 188 1206 215.5 1156.5 c 128,-1,19
 243 1107 243 1107 243 1079.5 c 128,-1,20
 243 1052 243 1052 228.5 1038 c 128,-1,21
 214 1024 214 1024 181.5 1007 c 128,-1,22
 149 990 149 990 118.5 990 c 128,-1,23
 88 990 88 990 72 1005.5 c 0,24,25
 56 1020 56 1020 44 1042 c 0,26,27
 18 1089 18 1089 18 1125 c 128,-1,14
 18 1161 18 1161 65.5 1184.5 c 128,-1,15
EndSplineSet
Validated: 524289
EndChar

StartChar: copyright
Encoding: 169 169 122
Width: 1470
Flags: HW
LayerCount: 2
Fore
SplineSet
718 1233 m 257,0,1
 1025 1232 1025 1232 1195.5 1044 c 128,-1,2
 1366 856 1366 856 1366 606 c 256,3,4
 1366 353 1366 353 1196 167 c 128,-1,5
 1026 -19 1026 -19 718 -19 c 256,6,7
 410 -19 410 -19 242 167 c 128,-1,8
 74 353 74 353 74 606 c 256,9,10
 74 858 74 858 243.5 1045 c 128,-1,11
 413 1232 413 1232 718 1233 c 257,0,1
930.5 1065 m 128,-1,13
 839 1109 839 1109 738.5 1109 c 128,-1,14
 638 1109 638 1109 570.5 1089 c 0,15,16
 503 1070 503 1070 449 1034 c 0,17,18
 344 965 344 965 288.5 849.5 c 128,-1,19
 233 734 233 734 233 622 c 0,20,21
 233 402 233 402 360.5 254 c 128,-1,22
 488 106 488 106 718 106 c 256,23,24
 949 106 949 106 1077.5 253.5 c 128,-1,25
 1206 401 1206 401 1206 604 c 128,-1,26
 1206 807 1206 807 1083 950 c 0,27,12
 1022 1021 1022 1021 930.5 1065 c 128,-1,13
724 404 m 0,28,29
 852 404 852 404 913 505 c 1,30,-1
 1012 441 l 1,31,32
 924 289 924 289 721 289 c 0,33,34
 719 289 719 289 718 289 c 0,35,36
 563 289 563 289 476.5 384 c 128,-1,37
 390 479 390 479 390 615.5 c 128,-1,38
 390 752 390 752 479.5 845.5 c 128,-1,39
 569 939 569 939 691.5 939 c 128,-1,40
 814 939 814 939 880 868 c 1,41,-1
 879 926 l 1,42,-1
 999 926 l 1,43,-1
 999 696 l 1,44,-1
 884 696 l 1,45,46
 847 825 847 825 724 825 c 0,47,48
 636 825 636 825 588.5 768.5 c 128,-1,49
 541 712 541 712 541 615.5 c 128,-1,50
 541 519 541 519 588.5 461.5 c 128,-1,51
 636 404 636 404 724 404 c 0,28,29
EndSplineSet
Validated: 524289
EndChar

StartChar: ordfeminine
Encoding: 170 170 123
Width: 696
Flags: HW
LayerCount: 2
Fore
SplineSet
432 1004 m 2,0,1
 432 1109 432 1109 303 1109 c 0,2,3
 214 1109 214 1109 169 1044 c 1,4,-1
 81 1093 l 1,5,6
 155 1194 155 1194 316 1194 c 0,7,8
 419 1194 419 1194 478.5 1149 c 128,-1,9
 538 1104 538 1104 538 1015 c 2,10,-1
 538 718 l 1,11,-1
 636 718 l 1,12,-1
 636 632 l 1,13,-1
 442 632 l 1,14,-1
 442 694 l 1,15,16
 355 621 355 621 262 621 c 0,17,18
 261 622 l 0,19,20
 168 622 168 622 114 669.5 c 128,-1,21
 60 717 60 717 60 774 c 0,22,23
 60 872 60 872 123 917 c 0,24,25
 186 963 186 963 271 963 c 128,-1,26
 356 963 356 963 432 934 c 1,27,-1
 432 1004 l 2,0,1
271 700 m 0,28,29
 361 700 361 700 432 763 c 1,30,-1
 432 856 l 1,31,32
 357 887 357 887 295 887 c 0,33,34
 165 887 165 887 165 788 c 0,35,36
 165 750 165 750 192.5 725 c 128,-1,37
 220 700 220 700 271 700 c 0,28,29
EndSplineSet
Validated: 1
EndChar

StartChar: guillemotleft
Encoding: 171 171 124
Width: 1135
GlyphClass: 2
Flags: HW
LayerCount: 2
Fore
SplineSet
133 606 m 1,0,-1
 446 963 l 1,1,-1
 590 963 l 1,2,-1
 383 553 l 1,3,-1
 590 143 l 1,4,-1
 446 143 l 1,5,-1
 133 500 l 1,6,-1
 133 606 l 1,0,-1
545 606 m 1,7,-1
 858 963 l 1,8,-1
 1001 963 l 1,9,-1
 795 553 l 1,10,-1
 1001 143 l 1,11,-1
 858 143 l 1,12,-1
 545 500 l 1,13,-1
 545 606 l 1,7,-1
EndSplineSet
Validated: 1
EndChar

StartChar: logicalnot
Encoding: 172 172 125
Width: 1113
Flags: HW
LayerCount: 2
Fore
SplineSet
993 863 m 1,0,-1
 993 329 l 1,1,-1
 876 329 l 1,2,-1
 876 722 l 1,3,-1
 56 722 l 1,4,-1
 56 863 l 1,5,-1
 993 863 l 1,0,-1
EndSplineSet
Validated: 1
EndChar

StartChar: registered
Encoding: 174 174 127
Width: 1444
Flags: HW
LayerCount: 2
Fore
SplineSet
1181.5 1058.5 m 128,-1,1
 1369 884 1369 884 1369 606 c 256,2,3
 1369 328 1369 328 1181.5 155 c 128,-1,4
 994 -18 994 -18 722.5 -18 c 128,-1,5
 451 -18 451 -18 264 155 c 128,-1,6
 77 328 77 328 77 606 c 256,7,8
 77 885 77 885 263.5 1059 c 128,-1,9
 450 1233 450 1233 722 1233 c 128,-1,0
 994 1233 994 1233 1181.5 1058.5 c 128,-1,1
722 1125 m 256,10,11
 509 1125 509 1125 362 980 c 128,-1,12
 215 835 215 835 215 605.5 c 128,-1,13
 215 376 215 376 361.5 233 c 128,-1,14
 508 90 508 90 722 89 c 257,15,16
 937 90 937 90 1083.5 233 c 128,-1,17
 1230 376 1230 376 1230 605 c 128,-1,18
 1230 834 1230 834 1083.5 979.5 c 128,-1,19
 937 1125 937 1125 725 1125 c 0,20,21
 723 1125 723 1125 722 1125 c 256,10,11
963 770 m 0,22,23
 963 642 963 642 825 607 c 1,24,-1
 950 381 l 1,25,-1
 1038 381 l 1,26,-1
 1038 307 l 1,27,-1
 872 307 l 1,28,-1
 720 594 l 1,29,-1
 638 594 l 1,30,-1
 638 381 l 1,31,-1
 720 381 l 1,32,-1
 720 307 l 1,33,-1
 438 307 l 1,34,-1
 438 381 l 1,35,-1
 525 381 l 1,36,-1
 525 861 l 1,37,-1
 438 861 l 1,38,-1
 438 935 l 1,39,-1
 746 935 l 1,40,41
 901 934 901 934 947 844 c 0,42,43
 963 812 963 812 963 770 c 0,22,23
740 672 m 2,44,45
 851 672 851 672 851 768 c 0,46,47
 851 808 851 808 824.5 834.5 c 128,-1,48
 798 861 798 861 747 861 c 2,49,-1
 638 861 l 1,50,-1
 638 672 l 1,51,-1
 740 672 l 2,44,45
EndSplineSet
Validated: 1
EndChar

StartChar: degree
Encoding: 176 176 128
Width: 653
Flags: HW
LayerCount: 2
Fore
SplineSet
327 1113 m 256,0,1
 326 1113 326 1113 324 1113 c 0,2,3
 249 1113 249 1113 205 1063.5 c 128,-1,4
 161 1014 161 1014 161 945 c 256,5,6
 162 876 162 876 206 826 c 0,7,8
 250 777 250 777 325 777 c 0,9,10
 326 778 326 778 327 778 c 0,11,12
 404 778 404 778 448.5 826.5 c 128,-1,13
 493 875 493 875 493 943 c 128,-1,14
 493 1011 493 1011 448.5 1062 c 128,-1,15
 404 1113 404 1113 327 1113 c 256,0,1
327 1199 m 256,16,17
 446 1199 446 1199 518 1123.5 c 128,-1,18
 590 1048 590 1048 590 943 c 128,-1,19
 590 838 590 838 518 763 c 128,-1,20
 446 688 446 688 327 688 c 256,21,22
 208 688 208 688 136 763 c 128,-1,23
 64 838 64 838 64 944 c 128,-1,24
 64 1050 64 1050 136.5 1124.5 c 128,-1,25
 209 1199 209 1199 327 1199 c 256,16,17
EndSplineSet
Validated: 1
EndChar

StartChar: plusminus
Encoding: 177 177 129
Width: 1145
GlyphClass: 2
Flags: HW
LayerCount: 2
Fore
SplineSet
1012 0 m 1,0,-1
 133 0 l 1,1,-1
 133 145 l 1,2,-1
 1012 145 l 1,3,-1
 1012 0 l 1,0,-1
645 659 m 1,4,-1
 645 293 l 1,5,-1
 498 293 l 1,6,-1
 498 659 l 1,7,-1
 133 659 l 1,8,-1
 133 805 l 1,9,-1
 498 805 l 1,10,-1
 498 1171 l 1,11,-1
 645 1171 l 1,12,-1
 645 805 l 1,13,-1
 1012 805 l 1,14,-1
 1012 659 l 1,15,-1
 645 659 l 1,4,-1
EndSplineSet
Validated: 1
EndChar

StartChar: twosuperior
Encoding: 178 178 130
Width: 939
Flags: HW
LayerCount: 2
Fore
SplineSet
602 997 m 0,0,1
 602 1126 602 1126 462 1126 c 0,2,3
 389 1126 389 1126 355 1076 c 128,-1,4
 321 1026 321 1026 320 917 c 1,5,-1
 197 917 l 1,6,7
 197 1233 197 1233 470 1233 c 0,8,9
 608 1233 608 1233 680 1164 c 0,10,11
 752 1096 752 1096 752 992 c 0,12,13
 752 853 752 853 558 723 c 1,14,15
 347 585 347 585 314 455 c 1,16,-1
 645 455 l 1,17,-1
 645 624 l 1,18,-1
 752 624 l 1,19,-1
 752 349 l 1,20,-1
 175 349 l 1,21,22
 174 543 174 543 324 687 c 0,23,24
 389 749 389 749 449 795.5 c 128,-1,25
 509 842 509 842 537 870 c 0,26,27
 602 936 602 936 602 997 c 0,0,1
EndSplineSet
Validated: 33
EndChar

StartChar: threesuperior
Encoding: 179 179 131
Width: 957
Flags: HW
LayerCount: 2
Fore
SplineSet
613 805 m 1,0,1
 796 761 796 761 796 592 c 0,2,3
 796 474 796 474 709 402.5 c 128,-1,4
 622 331 622 331 474 331 c 0,5,6
 473 331 473 331 471 331 c 0,7,8
 265 331 265 331 200 484 c 0,9,10
 178 536 178 536 177 606 c 1,11,-1
 306 607 l 1,12,13
 323 439 323 439 475 439 c 0,14,15
 556 439 556 439 603 480.5 c 128,-1,16
 650 522 650 522 650 577 c 0,17,18
 650 675 650 675 590 710 c 128,-1,19
 530 745 530 745 401 745 c 1,20,-1
 401 856 l 1,21,22
 520 856 520 856 558 879 c 128,-1,23
 596 902 596 902 608.5 928 c 128,-1,24
 621 954 621 954 621 1001 c 128,-1,25
 621 1048 621 1048 585 1085 c 128,-1,26
 549 1122 549 1122 476 1122 c 0,27,28
 340 1122 340 1122 335 989 c 1,29,-1
 206 997 l 1,30,31
 210 1105 210 1105 281.5 1169.5 c 128,-1,32
 353 1234 353 1234 480 1234 c 128,-1,33
 607 1234 607 1234 684.5 1172 c 128,-1,34
 762 1110 762 1110 762 999 c 0,35,36
 762 933 762 933 724 880 c 128,-1,37
 686 827 686 827 613 805 c 1,0,1
EndSplineSet
Validated: 1
EndChar

StartChar: acute
Encoding: 180 180 132
Width: 579
Flags: HW
LayerCount: 2
Fore
SplineSet
102 960 m 1,0,-1
 226 1266 l 1,1,-1
 484 1266 l 1,2,-1
 268 960 l 1,3,-1
 102 960 l 1,0,-1
EndSplineSet
Validated: 1
EndChar

StartChar: mu
Encoding: 181 181 133
AltUni2: 0003bc.ffffffff.0
Width: 1066
Flags: HW
LayerCount: 2
Fore
SplineSet
695 96 m 1,0,1
 562 -19 562 -19 420 -19 c 0,2,3
 377 -19 377 -19 342 -8 c 1,4,-1
 342 -356 l 1,5,-1
 153 -356 l 1,6,-1
 153 709 l 1,7,-1
 26 709 l 1,8,-1
 26 849 l 1,9,-1
 350 849 l 1,10,-1
 350 224 l 2,11,12
 350 167 350 167 414 145 c 0,13,14
 437 137 437 137 471 137 c 0,15,16
 589 137 589 137 695 259 c 1,17,-1
 695 709 l 1,18,-1
 554 709 l 1,19,-1
 554 849 l 1,20,-1
 893 849 l 1,21,-1
 893 141 l 1,22,-1
 1040 141 l 1,23,-1
 1040 0 l 1,24,-1
 699 0 l 1,25,-1
 695 96 l 1,0,1
EndSplineSet
Validated: 1
EndChar

StartChar: paragraph
Encoding: 182 182 134
Width: 1096
Flags: HW
LayerCount: 2
Fore
SplineSet
1020 1049 m 1,0,-1
 882 1049 l 1,1,-1
 882 -353 l 1,2,-1
 747 -353 l 1,3,-1
 747 1049 l 1,4,-1
 546 1049 l 1,5,-1
 546 -353 l 1,6,-1
 411 -353 l 1,7,-1
 411 468 l 1,8,9
 244 474 244 474 147 574 c 0,10,11
 50 674 50 674 50 828 c 0,12,13
 50 982 50 982 154 1084 c 0,14,15
 258 1186 258 1186 451 1186 c 2,16,-1
 1020 1186 l 1,17,-1
 1020 1049 l 1,0,-1
EndSplineSet
Validated: 1
EndChar

StartChar: cedilla
Encoding: 184 184 135
Width: 587
Flags: HW
LayerCount: 2
Fore
SplineSet
439 -202 m 0,0,1
 439 -315 439 -315 320 -350 c 0,2,3
 279 -362 279 -362 248 -362 c 2,4,-1
 196 -362 l 2,5,6
 175 -362 175 -362 152 -358 c 1,7,-1
 152 -273 l 1,8,9
 175 -277 175 -277 199 -277 c 0,10,11
 317 -277 317 -277 317 -216 c 0,12,13
 317 -163 317 -163 228 -157 c 1,14,-1
 267 5 l 1,15,-1
 339 5 l 1,16,-1
 322 -92 l 1,17,18
 377 -101 377 -101 408 -131.5 c 128,-1,19
 439 -162 439 -162 439 -202 c 0,0,1
EndSplineSet
Validated: 1
EndChar

StartChar: onesuperior
Encoding: 185 185 136
Width: 607
Flags: HW
LayerCount: 2
Fore
SplineSet
490 451 m 1,0,-1
 490 348 l 1,1,-1
 112 348 l 1,2,-1
 112 451 l 1,3,-1
 235 451 l 1,4,-1
 235 1112 l 1,5,-1
 104 1112 l 1,6,-1
 104 1215 l 1,7,-1
 374 1215 l 1,8,-1
 374 451 l 1,9,-1
 490 451 l 1,0,-1
EndSplineSet
Validated: 1
EndChar

StartChar: ordmasculine
Encoding: 186 186 137
Width: 704
Flags: HW
LayerCount: 2
Fore
SplineSet
180 934 m 256,0,1
 180 862 180 862 230 814 c 0,2,3
 280 766 280 766 352 765 c 0,4,5
 353 766 l 0,6,7
 425 766 425 766 475 814 c 0,8,9
 524 862 524 862 524 934 c 256,10,11
 524 1006 524 1006 475.5 1053.5 c 128,-1,12
 427 1101 427 1101 356 1101 c 0,13,14
 355 1101 355 1101 353 1101 c 0,15,16
 279 1101 279 1101 229.5 1053.5 c 128,-1,17
 180 1006 180 1006 180 934 c 256,0,1
68 934 m 256,18,19
 68 1049 68 1049 150 1123.5 c 128,-1,20
 232 1198 232 1198 353 1198 c 256,21,22
 475 1198 475 1198 556 1123 c 128,-1,23
 637 1048 637 1048 637 934 c 256,24,25
 637 821 637 821 556 745.5 c 128,-1,26
 475 670 475 670 353 670 c 256,27,28
 232 670 232 670 150 746 c 128,-1,29
 68 822 68 822 68 934 c 256,18,19
EndSplineSet
Validated: 1
EndChar

StartChar: guillemotright
Encoding: 187 187 138
Width: 1135
GlyphClass: 2
Flags: HW
LayerCount: 2
Fore
SplineSet
1001 500 m 1,0,-1
 688 143 l 1,1,-1
 545 143 l 1,2,-1
 752 553 l 1,3,-1
 545 963 l 1,4,-1
 688 963 l 1,5,-1
 1001 606 l 1,6,-1
 1001 500 l 1,0,-1
590 500 m 1,7,-1
 276 143 l 1,8,-1
 133 143 l 1,9,-1
 340 553 l 1,10,-1
 133 963 l 1,11,-1
 276 963 l 1,12,-1
 590 606 l 1,13,-1
 590 500 l 1,7,-1
EndSplineSet
Validated: 1
EndChar

StartChar: circumflex
Encoding: 710 710 144
Width: 593
Flags: HW
LayerCount: 2
Fore
SplineSet
18 959 m 1,0,-1
 152 1288 l 1,1,-1
 435 1288 l 1,2,-1
 575 959 l 1,3,-1
 395 959 l 1,4,-1
 294 1211 l 1,5,-1
 193 959 l 1,6,-1
 18 959 l 1,0,-1
EndSplineSet
Validated: 1
EndChar

StartChar: tilde
Encoding: 732 732 146
Width: 587
Flags: HW
LayerCount: 2
Fore
SplineSet
1 973 m 1,0,1
 12 1129 12 1129 107 1170 c 0,2,3
 136 1182 136 1182 168 1182 c 0,4,5
 210 1182 210 1182 299 1148.5 c 128,-1,6
 388 1115 388 1115 405.5 1115 c 128,-1,7
 423 1115 423 1115 424 1115 c 0,8,9
 468 1115 468 1115 480 1177 c 1,10,-1
 586 1177 l 1,11,12
 579 1077 579 1077 536 1020.5 c 128,-1,13
 493 964 493 964 430 964 c 128,-1,14
 367 964 367 964 307 987.5 c 128,-1,15
 247 1011 247 1011 218 1022 c 128,-1,16
 189 1033 189 1033 163 1033 c 256,17,18
 137 1033 137 1033 125.5 1017.5 c 128,-1,19
 114 1002 114 1002 109 973 c 1,20,-1
 1 973 l 1,0,1
EndSplineSet
Validated: 1
EndChar

StartChar: ring
Encoding: 730 730 149
Width: 565
Flags: HW
LayerCount: 2
Fore
SplineSet
281 1244 m 256,0,1
 364 1244 364 1244 414 1196 c 0,2,3
 464 1148 464 1148 464 1078 c 128,-1,4
 464 1008 464 1008 414 957 c 0,5,6
 364 906 364 906 281 906 c 256,7,8
 198 906 198 906 148 958 c 0,9,10
 98 1010 98 1010 99 1079 c 0,11,12
 99 1149 99 1149 148 1196 c 0,13,14
 198 1244 198 1244 281 1244 c 256,0,1
281 1175 m 256,15,16
 231 1175 231 1175 204.5 1145 c 128,-1,17
 178 1115 178 1115 178 1076 c 256,18,19
 178 1037 178 1037 204.5 1007 c 128,-1,20
 231 977 231 977 281 977 c 256,21,22
 331 977 331 977 358 1007 c 128,-1,23
 385 1037 385 1037 385 1076 c 256,24,25
 385 1115 385 1115 358 1145 c 128,-1,26
 331 1175 331 1175 281 1175 c 256,15,16
EndSplineSet
Validated: 33
EndChar

StartChar: AE
Encoding: 198 198 150
Width: 1877
Flags: HW
LayerCount: 2
Fore
SplineSet
-11 141 m 1,0,-1
 135 141 l 1,1,-1
 685 1075 l 1,2,-1
 577 1075 l 1,3,-1
 577 1215 l 1,4,-1
 1792 1215 l 1,5,-1
 1792 867 l 1,6,-1
 1626 867 l 1,7,-1
 1626 1075 l 1,8,-1
 1127 1075 l 1,9,-1
 1127 696 l 1,10,-1
 1457 696 l 1,11,-1
 1457 812 l 1,12,-1
 1559 812 l 1,13,-1
 1559 434 l 1,14,-1
 1457 434 l 1,15,-1
 1457 547 l 1,16,-1
 1128 547 l 1,17,-1
 1128 141 l 1,18,-1
 1628 141 l 1,19,-1
 1628 355 l 1,20,-1
 1794 355 l 1,21,-1
 1794 0 l 1,22,-1
 757 0 l 1,23,-1
 757 141 l 1,24,-1
 911 141 l 1,25,-1
 911 436 l 1,26,-1
 524 436 l 1,27,-1
 362 141 l 1,28,-1
 501 141 l 1,29,-1
 501 0 l 1,30,-1
 -11 0 l 1,31,-1
 -11 141 l 1,0,-1
911 577 m 1,32,-1
 911 1075 l 1,33,-1
 887 1075 l 1,34,-1
 603 577 l 1,35,-1
 911 577 l 1,32,-1
EndSplineSet
Validated: 1
EndChar

StartChar: Eth
Encoding: 208 208 160
Width: 1374
Flags: HW
LayerCount: 2
Fore
SplineSet
61 0 m 1,0,-1
 61 141 l 1,1,-1
 234 141 l 1,2,-1
 234 545 l 1,3,-1
 90 545 l 1,4,-1
 90 694 l 1,5,-1
 234 694 l 1,6,-1
 234 1075 l 1,7,-1
 61 1075 l 1,8,-1
 61 1215 l 1,9,-1
 662 1215 l 2,10,11
 972 1216 972 1216 1136 1048 c 0,12,13
 1300 880 1300 880 1300 615 c 0,14,15
 1300 172 1300 172 940 43 c 0,16,17
 820 0 820 0 661 0 c 2,18,-1
 61 0 l 1,0,-1
453 694 m 1,19,-1
 634 694 l 1,20,-1
 634 545 l 1,21,-1
 453 545 l 1,22,-1
 453 141 l 1,23,-1
 642 141 l 1,24,25
 866 142 866 142 970 268 c 0,26,27
 1074 394 1074 394 1074 609 c 0,28,29
 1074 940 1074 940 844 1040 c 0,30,31
 764 1075 764 1075 650 1075 c 2,32,-1
 453 1075 l 1,33,-1
 453 694 l 1,19,-1
EndSplineSet
Validated: 33
EndChar

StartChar: multiply
Encoding: 215 215 167
Width: 929
Flags: HW
LayerCount: 2
Fore
SplineSet
384 490 m 1,0,-1
 134 737 l 1,1,-1
 219 822 l 1,2,-1
 469 576 l 1,3,-1
 725 826 l 1,4,-1
 807 743 l 1,5,-1
 552 493 l 1,6,-1
 802 248 l 1,7,-1
 717 163 l 1,8,-1
 466 408 l 1,9,-1
 212 159 l 1,10,-1
 129 241 l 1,11,-1
 384 490 l 1,0,-1
EndSplineSet
Validated: 1
EndChar

StartChar: Oslash
Encoding: 216 216 168
Width: 1439
Flags: HW
LayerCount: 2
Fore
SplineSet
1094 1133 m 1,0,1
 1366 960 1366 960 1366 584 c 0,2,3
 1366 480 1366 480 1322.5 366 c 128,-1,4
 1279 252 1279 252 1196.5 166.5 c 128,-1,5
 1114 81 1114 81 994 31 c 128,-1,6
 874 -19 874 -19 723.5 -19 c 128,-1,7
 573 -19 573 -19 450 28 c 1,8,-1
 373 -101 l 1,9,-1
 265 -46 l 1,10,-1
 342 82 l 1,11,12
 76 253 76 253 76 630 c 0,13,14
 76 736 76 736 119 850 c 128,-1,15
 162 964 162 964 244 1049 c 0,16,17
 423 1233 423 1233 719 1233 c 0,18,19
 867 1233 867 1233 985 1187 c 1,20,-1
 1056 1306 l 1,21,-1
 1164 1251 l 1,22,-1
 1094 1133 l 1,0,1
895 1035 m 1,23,24
 813 1075 813 1075 723 1075 c 0,25,26
 544 1075 544 1075 429 943 c 0,27,28
 313 810 313 810 313 597 c 0,29,30
 313 386 313 386 444 253 c 1,31,-1
 895 1035 l 1,23,24
542 181 m 1,32,33
 622 141 622 141 715 141 c 0,34,35
 898 141 898 141 1012.5 272.5 c 128,-1,36
 1127 404 1127 404 1127 618.5 c 128,-1,37
 1127 833 1127 833 993 965 c 1,38,-1
 542 181 l 1,32,33
EndSplineSet
Validated: 1
EndChar

StartChar: Thorn
Encoding: 222 222 174
Width: 1124
Flags: HW
LayerCount: 2
Fore
SplineSet
57 141 m 1,0,-1
 220 141 l 1,1,-1
 220 1075 l 1,2,-1
 62 1075 l 1,3,-1
 62 1215 l 1,4,-1
 439 1215 l 1,5,-1
 439 1061 l 1,6,-1
 606 1061 l 2,7,8
 840 1061 840 1061 962.5 965 c 128,-1,9
 1085 869 1085 869 1085 688 c 0,10,11
 1085 390 1085 390 787 332 c 0,12,13
 695 314 695 314 586 314 c 2,14,-1
 439 314 l 1,15,-1
 439 141 l 1,16,-1
 606 141 l 1,17,-1
 606 0 l 1,18,-1
 57 0 l 1,19,-1
 57 141 l 1,0,-1
439 461 m 1,20,-1
 577 461 l 2,21,22
 800 461 800 461 844 594 c 0,23,24
 858 636 858 636 858 690 c 0,25,26
 858 805 858 805 796 860.5 c 128,-1,27
 734 916 734 916 593 916 c 2,28,-1
 439 916 l 1,29,-1
 439 461 l 1,20,-1
EndSplineSet
Validated: 1
EndChar

StartChar: germandbls
Encoding: 223 223 175
Width: 1143
Flags: HW
LayerCount: 2
Fore
SplineSet
882 368 m 0,0,1
 882 586 882 586 578 586 c 1,2,-1
 578 726 l 1,3,4
 680 726 680 726 730.5 781.5 c 128,-1,5
 781 837 781 837 781 914 c 128,-1,6
 781 991 781 991 736.5 1035 c 128,-1,7
 692 1079 692 1079 630 1079 c 0,8,9
 512 1078 512 1078 460 1020 c 0,10,11
 409 963 409 963 409 833 c 0,12,13
 409 830 409 830 409 828 c 1,14,-1
 409 141 l 1,15,-1
 525 141 l 1,16,-1
 525 0 l 1,17,-1
 43 0 l 1,18,-1
 43 141 l 1,19,-1
 196 141 l 1,20,-1
 196 824 l 2,21,22
 196 1124 196 1124 430 1206 c 0,23,24
 507 1234 507 1234 598 1234 c 0,25,26
 776 1234 776 1234 879.5 1149.5 c 128,-1,27
 983 1065 983 1065 983 931 c 0,28,29
 983 747 983 747 809 678 c 1,30,31
 947 646 947 646 1022 566.5 c 128,-1,32
 1097 487 1097 487 1097 368 c 0,33,34
 1096 106 1096 106 838 28 c 0,35,36
 746 0 746 0 616 0 c 1,37,-1
 616 141 l 1,38,39
 618 141 618 141 619 141 c 0,40,41
 803 141 803 141 861 260 c 0,42,43
 882 304 882 304 882 368 c 0,0,1
EndSplineSet
Validated: 1
EndChar

StartChar: dotlessi
Encoding: 305 305 188
Width: 571
Flags: HW
LayerCount: 2
Fore
SplineSet
67 709 m 1,0,-1
 67 849 l 1,1,-1
 400 849 l 1,2,-1
 400 140 l 1,3,-1
 537 140 l 1,4,-1
 537 0 l 1,5,-1
 67 0 l 1,6,-1
 67 140 l 1,7,-1
 204 140 l 1,8,-1
 204 709 l 1,9,-1
 67 709 l 1,0,-1
EndSplineSet
Validated: 1
EndChar

StartChar: divide
Encoding: 247 247 198
Width: 1164
Flags: HW
LayerCount: 2
Fore
SplineSet
1001 613 m 1,0,-1
 1001 495 l 1,1,-1
 158 495 l 1,2,-1
 158 613 l 1,3,-1
 1001 613 l 1,0,-1
576 827 m 0,4,5
 558 824 558 824 549 824 c 0,6,7
 533 824 533 824 519.5 866.5 c 128,-1,8
 506 909 506 909 506 926.5 c 128,-1,9
 506 944 506 944 519 951 c 0,10,11
 565 976 565 976 612 976 c 256,12,13
 636 976 636 976 652 892 c 0,14,15
 656 874 656 874 656 864 c 256,16,17
 656 841 656 841 576 827 c 0,4,5
576 134 m 0,18,19
 558 131 558 131 549 131 c 0,20,21
 533 131 533 131 519.5 174 c 128,-1,22
 506 217 506 217 506 234.5 c 128,-1,23
 506 252 506 252 519 259 c 0,24,25
 565 284 565 284 612 284 c 256,26,27
 636 284 636 284 652 198 c 0,28,29
 656 180 656 180 656 171 c 256,30,31
 656 148 656 148 576 134 c 0,18,19
EndSplineSet
Validated: 1
EndChar

StartChar: oslash
Encoding: 248 248 199
Width: 967
Flags: HW
LayerCount: 2
Fore
SplineSet
660 13.5 m 128,-1,1
 581 -20 581 -20 496 -20 c 128,-1,2
 411 -20 411 -20 343 -1 c 1,3,-1
 279 -126 l 1,4,-1
 185 -83 l 1,5,-1
 248 41 l 1,6,7
 157 98 157 98 107.5 193 c 128,-1,8
 58 288 58 288 58 388 c 0,9,10
 58 579 58 579 176 701.5 c 128,-1,11
 294 824 294 824 485 824 c 0,12,13
 571 824 571 824 637 799 c 1,14,-1
 702 926 l 1,15,-1
 796 883 l 1,16,-1
 730 753 l 1,17,18
 816 696 816 696 863.5 605 c 128,-1,19
 911 514 911 514 911 414.5 c 128,-1,20
 911 315 911 315 881 238.5 c 128,-1,21
 851 162 851 162 795 104.5 c 128,-1,0
 739 47 739 47 660 13.5 c 128,-1,1
314 168 m 1,22,-1
 574 677 l 1,23,24
 530 692 530 692 476 692 c 0,25,26
 362 692 362 692 289 610 c 128,-1,27
 216 528 216 528 216 388.5 c 128,-1,28
 216 249 216 249 314 168 c 1,22,-1
406 120 m 1,29,30
 440 111 440 111 492 111 c 0,31,32
 604 111 604 111 677.5 192.5 c 128,-1,33
 751 274 751 274 751 407.5 c 128,-1,34
 751 541 751 541 663 623 c 1,35,-1
 406 120 l 1,29,30
EndSplineSet
Validated: 1
EndChar

StartChar: thorn
Encoding: 254 254 205
Width: 835
Flags: HW
LayerCount: 2
Fore
SplineSet
245 750 m 1,0,1
 371 866 371 866 543.5 866 c 128,-1,2
 716 866 716 866 827.5 743.5 c 128,-1,3
 939 621 939 621 939 426 c 128,-1,4
 939 231 939 231 823.5 106 c 128,-1,5
 708 -19 708 -19 535 -19 c 0,6,7
 402 -19 402 -19 302 51 c 0,8,9
 269 74 269 74 245 104 c 1,10,-1
 245 -330 l 1,11,-1
 -96 -330 l 1,12,-1
 -96 -186 l 1,13,-1
 47 -186 l 1,14,-1
 47 1075 l 1,15,-1
 -100 1075 l 1,16,-1
 -100 1215 l 1,17,-1
 245 1215 l 1,18,-1
 245 750 l 1,0,1
245 253 m 1,19,20
 361 137 361 137 479 137 c 0,21,22
 480 138 l 0,23,24
 599 138 599 138 665.5 215.5 c 128,-1,25
 732 293 732 293 732 420 c 128,-1,26
 732 547 732 547 664.5 628.5 c 128,-1,27
 597 710 597 710 470 710 c 128,-1,28
 343 710 343 710 245 587 c 1,29,-1
 245 253 l 1,19,20
EndSplineSet
Validated: 1
EndChar

StartChar: hbar
Encoding: 295 295 207
Width: 1024
Flags: HW
LayerCount: 2
Fore
SplineSet
610 711 m 0,0,1
 502 711 502 711 378 631 c 1,2,-1
 378 141 l 1,3,-1
 503 141 l 1,4,-1
 503 0 l 1,5,-1
 31 0 l 1,6,-1
 31 141 l 1,7,-1
 182 141 l 1,8,-1
 182 912 l 1,9,-1
 58 912 l 1,10,-1
 58 997 l 1,11,-1
 182 997 l 1,12,-1
 182 1075 l 1,13,-1
 33 1075 l 1,14,-1
 33 1215 l 1,15,-1
 378 1215 l 1,16,-1
 378 997 l 1,17,-1
 477 997 l 1,18,-1
 477 912 l 1,19,-1
 378 912 l 1,20,-1
 378 769 l 1,21,22
 523 866 523 866 661 866 c 0,23,24
 932 866 932 866 932 591 c 2,25,-1
 932 141 l 1,26,-1
 1063 141 l 1,27,-1
 1063 0 l 1,28,-1
 643 0 l 1,29,-1
 643 141 l 1,30,-1
 737 141 l 1,31,-1
 737 553 l 2,32,33
 737 711 737 711 610 711 c 0,0,1
EndSplineSet
Validated: 1
EndChar

StartChar: macron
Encoding: 175 175 208
Width: 593
Flags: HW
LayerCount: 2
Fore
SplineSet
131 1171 m 1,0,-1
 457 1171 l 1,1,-1
 457 1086 l 1,2,-1
 131 1086 l 1,3,-1
 131 1171 l 1,0,-1
EndSplineSet
Validated: 1
EndChar

StartChar: circumflex.cap
Encoding: 65537 -1 214
Width: 593
Flags: HW
LayerCount: 2
Fore
SplineSet
58 896 m 1,0,-1
 156 1171 l 1,1,-1
 431 1171 l 1,2,-1
 535 896 l 1,3,-1
 387 896 l 1,4,-1
 294 1126 l 1,5,-1
 201 896 l 1,6,-1
 58 896 l 1,0,-1
EndSplineSet
Validated: 1
EndChar

StartChar: dotlessj
Encoding: 567 567 216
Width: 523
Flags: HW
LayerCount: 2
Fore
SplineSet
14 709 m 1,0,-1
 14 849 l 1,1,-1
 379 849 l 1,2,-1
 379 47 l 2,3,4
 378 -40 378 -40 370 -112 c 0,5,6
 362 -184 362 -184 328 -234 c 0,7,8
 257 -342 257 -342 48 -342 c 2,9,-1
 -48 -342 l 1,10,-1
 -48 -186 l 1,11,-1
 48 -186 l 2,12,13
 158 -186 158 -186 175 -91 c 0,14,15
 181 -58 181 -58 181 -13 c 2,16,-1
 181 709 l 1,17,-1
 14 709 l 1,0,-1
EndSplineSet
Validated: 1
EndChar

StartChar: commaaccent
Encoding: 65538 -1 218
Width: 458
Flags: HW
LayerCount: 2
Fore
SplineSet
350 160 m 1,0,-1
 357 -61 l 1,1,2
 358 -212 358 -212 300 -282 c 0,3,4
 242 -352 242 -352 100 -353 c 1,5,-1
 100 -251 l 1,6,7
 172 -238 172 -238 202 -200 c 0,8,9
 232 -162 232 -162 232 -81 c 1,10,-1
 104 -81 l 1,11,-1
 104 160 l 1,12,-1
 350 160 l 1,0,-1
EndSplineSet
Validated: 33
EndChar

StartChar: kgreenlandic
Encoding: 312 312 219
Width: 1088
Flags: HW
LayerCount: 2
Fore
SplineSet
35 0 m 1,0,-1
 35 141 l 1,1,-1
 186 141 l 1,2,-1
 186 709 l 1,3,-1
 34 709 l 1,4,-1
 34 849 l 1,5,-1
 381 849 l 1,6,-1
 381 439 l 1,7,-1
 688 709 l 1,8,-1
 555 709 l 1,9,-1
 555 849 l 1,10,-1
 1041 849 l 1,11,-1
 1041 709 l 1,12,-1
 904 709 l 1,13,-1
 589 430 l 1,14,-1
 917 141 l 1,15,-1
 1053 141 l 1,16,-1
 1053 0 l 1,17,-1
 608 0 l 1,18,-1
 608 141 l 1,19,-1
 695 141 l 1,20,-1
 381 418 l 1,21,-1
 381 141 l 1,22,-1
 491 141 l 1,23,-1
 491 0 l 1,24,-1
 35 0 l 1,0,-1
EndSplineSet
Validated: 1
EndChar

StartChar: Lslash
Encoding: 321 321 222
Width: 1076
Flags: HW
LayerCount: 2
Fore
SplineSet
60 579 m 1,0,-1
 227 645 l 1,1,-1
 227 1075 l 1,2,-1
 58 1075 l 1,3,-1
 58 1215 l 1,4,-1
 612 1215 l 1,5,-1
 612 1075 l 1,6,-1
 445 1075 l 1,7,-1
 445 732 l 1,8,-1
 627 805 l 1,9,-1
 627 676 l 1,10,-1
 445 603 l 1,11,-1
 445 141 l 1,12,-1
 854 141 l 1,13,-1
 854 506 l 1,14,-1
 1034 506 l 1,15,-1
 1034 0 l 1,16,-1
 58 0 l 1,17,-1
 58 141 l 1,18,-1
 227 141 l 1,19,-1
 227 516 l 1,20,-1
 60 450 l 1,21,-1
 60 579 l 1,0,-1
EndSplineSet
Validated: 1
EndChar

StartChar: lslash
Encoding: 322 322 223
Width: 556
Flags: HW
LayerCount: 2
Fore
SplineSet
36 0 m 1,0,-1
 36 141 l 1,1,-1
 187 141 l 1,2,-1
 187 494 l 1,3,-1
 68 450 l 1,4,-1
 68 579 l 1,5,-1
 187 625 l 1,6,-1
 187 1075 l 1,7,-1
 38 1075 l 1,8,-1
 38 1215 l 1,9,-1
 383 1215 l 1,10,-1
 383 701 l 1,11,-1
 504 748 l 1,12,-1
 504 612 l 1,13,-1
 383 567 l 1,14,-1
 383 141 l 1,15,-1
 518 141 l 1,16,-1
 518 0 l 1,17,-1
 36 0 l 1,0,-1
EndSplineSet
Validated: 1
EndChar

StartChar: OE
Encoding: 338 338 226
Width: 2046
Flags: HW
LayerCount: 2
Fore
SplineSet
712 1233 m 0,0,1
 935 1233 935 1233 1080 1124 c 1,2,-1
 1080 1215 l 1,3,-1
 1960 1215 l 1,4,-1
 1960 867 l 1,5,-1
 1794 867 l 1,6,-1
 1794 1075 l 1,7,-1
 1298 1075 l 1,8,-1
 1298 696 l 1,9,-1
 1626 696 l 1,10,-1
 1626 812 l 1,11,-1
 1727 812 l 1,12,-1
 1727 434 l 1,13,-1
 1625 434 l 1,14,-1
 1625 547 l 1,15,-1
 1298 547 l 1,16,-1
 1298 141 l 1,17,-1
 1796 141 l 1,18,-1
 1796 355 l 1,19,-1
 1963 355 l 1,20,-1
 1963 0 l 1,21,-1
 1080 0 l 1,22,-1
 1080 91 l 1,23,24
 934 -19 934 -19 713 -19 c 0,25,26
 418 -18 418 -18 247 161 c 0,27,28
 76 340 76 340 76 608 c 0,29,30
 76 876 76 876 247 1054 c 0,31,32
 418 1233 418 1233 712 1233 c 0,0,1
1080 956 m 1,33,34
 934 1075 934 1075 741 1075 c 0,35,36
 548 1076 548 1076 431 950 c 0,37,38
 314 824 314 824 314 610 c 0,39,40
 314 396 314 396 431 268 c 0,41,42
 548 140 548 140 744 140.5 c 128,-1,43
 940 141 940 141 1080 263 c 1,44,-1
 1080 956 l 1,33,34
EndSplineSet
Validated: 33
EndChar

StartChar: oe
Encoding: 339 339 227
Width: 1715
Flags: HW
LayerCount: 2
Fore
SplineSet
1243 132 m 0,0,1
 1399 132 1399 132 1508 241 c 1,2,-1
 1616 137 l 1,3,4
 1496 -19 1496 -19 1247 -19 c 128,-1,5
 998 -19 998 -19 864 149 c 1,6,7
 735 -19 735 -19 524 -19 c 128,-1,8
 313 -19 313 -19 188 106 c 128,-1,9
 63 231 63 231 63 424.5 c 128,-1,10
 63 618 63 618 190 742 c 128,-1,11
 317 866 317 866 527.5 866 c 128,-1,12
 738 866 738 866 867 696 c 1,13,14
 1003 866 1003 866 1216.5 866 c 128,-1,15
 1430 866 1430 866 1541 730 c 128,-1,16
 1652 594 1652 594 1652 383 c 1,17,-1
 966 383 l 1,18,19
 978 206 978 206 1126 151 c 0,20,21
 1176 132 1176 132 1243 132 c 0,0,1
693.5 632 m 128,-1,23
 627 711 627 711 513.5 711 c 128,-1,24
 400 711 400 711 334 631.5 c 128,-1,25
 268 552 268 552 268 423 c 0,26,27
 268 224 268 224 412 158 c 0,28,29
 458 137 458 137 514 137 c 256,30,31
 627 137 627 137 693.5 216.5 c 128,-1,32
 760 296 760 296 760 424.5 c 128,-1,22
 760 553 760 553 693.5 632 c 128,-1,23
1461 501 m 1,33,34
 1438 656 1438 656 1317 704 c 0,35,36
 1276 720 1276 720 1224 721 c 1,37,38
 1111 721 1111 721 1048.5 661 c 128,-1,39
 986 601 986 601 969 501 c 1,40,-1
 1461 501 l 1,33,34
EndSplineSet
Validated: 1
EndChar

StartChar: caron
Encoding: 711 711 232
Width: 593
Flags: HW
LayerCount: 2
Fore
SplineSet
145 1171 m 1,0,-1
 299 1017 l 1,1,-1
 451 1171 l 1,2,-1
 555 1171 l 1,3,-1
 396 912 l 1,4,-1
 200 912 l 1,5,-1
 38 1171 l 1,6,-1
 145 1171 l 1,0,-1
EndSplineSet
Validated: 1
EndChar

StartChar: uni030F
Encoding: 783 783 240
Width: 677
Flags: HW
LayerCount: 2
Fore
SplineSet
214 955 m 1,0,-1
 0 1266 l 1,1,-1
 252 1266 l 1,2,-1
 373 955 l 1,3,-1
 214 955 l 1,0,-1
535 955 m 1,4,-1
 320 1266 l 1,5,-1
 572 1266 l 1,6,-1
 693 955 l 1,7,-1
 535 955 l 1,4,-1
EndSplineSet
Validated: 1
EndChar

StartChar: uni0311
Encoding: 785 785 243
Width: 584
Flags: HW
LayerCount: 2
Fore
SplineSet
284 1079 m 0,0,1
 171 1079 171 1079 150 960 c 1,2,-1
 21 960 l 1,3,4
 28 1066 28 1066 100.5 1133 c 128,-1,5
 173 1200 173 1200 282 1200 c 0,6,7
 392 1200 392 1200 465 1133 c 128,-1,8
 538 1066 538 1066 549 960 c 1,9,-1
 416 960 l 1,10,11
 408 1017 408 1017 373 1048 c 128,-1,12
 338 1079 338 1079 284 1079 c 0,0,1
EndSplineSet
Validated: 1
EndChar

StartChar: uni0326
Encoding: 806 806 266
Width: 496
Flags: HW
LayerCount: 2
Fore
SplineSet
119 127 m 1,0,-1
 118 245 l 1,1,-1
 118 364 l 1,2,3
 208 369 208 369 273 369 c 2,4,-1
 360 369 l 1,5,6
 368 313 368 313 368 194.5 c 128,-1,7
 368 76 368 76 356 21 c 0,8,9
 320 -143 320 -143 116 -144 c 1,10,-1
 116 -42 l 1,11,12
 185 -28 185 -28 214 9 c 128,-1,13
 243 46 243 46 243 127 c 1,14,-1
 119 127 l 1,0,-1
EndSplineSet
Validated: 1
EndChar

StartChar: breve
Encoding: 728 728 270
Width: 584
Flags: HW
LayerCount: 2
Fore
SplineSet
150 1199 m 1,0,1
 171 1079 171 1079 284 1079 c 0,2,3
 338 1079 338 1079 373 1110.5 c 128,-1,4
 408 1142 408 1142 416 1199 c 1,5,-1
 549 1199 l 1,6,7
 538 1092 538 1092 466 1026 c 0,8,9
 394 960 394 960 284 960 c 0,10,11
 114 960 114 960 46 1101 c 0,12,13
 24 1145 24 1145 21 1199 c 1,14,-1
 150 1199 l 1,0,1
EndSplineSet
Validated: 1
EndChar

StartChar: dotaccent
Encoding: 729 729 271
Width: 535
Flags: HW
LayerCount: 2
Fore
SplineSet
268 1125 m 256,0,1
 329 1125 329 1125 352 1072 c 0,2,3
 359 1056 359 1056 359 1036 c 0,4,5
 359 981 359 981 304 957 c 0,6,7
 288 950 288 950 268 950 c 256,8,9
 231 950 231 950 204 976 c 0,10,11
 177 1002 177 1002 177 1038 c 0,12,13
 177 1075 177 1075 203 1100 c 0,14,15
 230 1125 230 1125 268 1125 c 256,0,1
EndSplineSet
Validated: 1
EndChar

StartChar: ogonek
Encoding: 731 731 272
Width: 587
Flags: HW
LayerCount: 2
Fore
SplineSet
197 0 m 1,0,-1
 311 0 l 1,1,2
 266 -62 266 -62 266 -126 c 0,3,4
 266 -233 266 -233 364 -233 c 0,5,6
 407 -233 407 -233 451 -213 c 1,7,-1
 451 -316 l 1,8,9
 374 -353 374 -353 326 -353 c 0,10,11
 239 -353 239 -353 188 -304 c 128,-1,12
 137 -255 137 -255 137 -176 c 128,-1,13
 137 -97 137 -97 197 0 c 1,0,-1
EndSplineSet
Validated: 1
EndChar

StartChar: hungarumlaut
Encoding: 733 733 273
Width: 677
Flags: HW
LayerCount: 2
Fore
SplineSet
329 955 m 1,0,-1
 449 1266 l 1,1,-1
 702 1266 l 1,2,-1
 487 955 l 1,3,-1
 329 955 l 1,0,-1
8 955 m 1,4,-1
 129 1266 l 1,5,-1
 382 1266 l 1,6,-1
 167 955 l 1,7,-1
 8 955 l 1,4,-1
EndSplineSet
Validated: 1
EndChar

StartChar: dotaccentcmb
Encoding: 775 775 274
Width: 535
Flags: HW
LayerCount: 2
Fore
SplineSet
268 1125 m 256,0,1
 329 1125 329 1125 352 1072 c 0,2,3
 359 1056 359 1056 359 1036 c 0,4,5
 359 981 359 981 304 957 c 0,6,7
 288 950 288 950 268 950 c 256,8,9
 231 950 231 950 204 976 c 0,10,11
 177 1002 177 1002 177 1038 c 0,12,13
 177 1075 177 1075 203 1100 c 0,14,15
 230 1125 230 1125 268 1125 c 256,0,1
EndSplineSet
Validated: 1
EndChar

StartChar: endash
Encoding: 8211 8211 275
Width: 1001
Flags: HW
LayerCount: 2
Fore
SplineSet
937 317 m 1,0,-1
 937 193 l 1,1,-1
 64 193 l 1,2,-1
 64 317 l 1,3,-1
 937 317 l 1,0,-1
EndSplineSet
Validated: 1
EndChar

StartChar: emdash
Encoding: 8212 8212 276
Width: 1823
Flags: HW
LayerCount: 2
Fore
SplineSet
1759 317 m 1,0,-1
 1759 193 l 1,1,-1
 64 193 l 1,2,-1
 64 317 l 1,3,-1
 1759 317 l 1,0,-1
EndSplineSet
Validated: 1
EndChar

StartChar: quoteleft
Encoding: 8216 8216 277
Width: 382
Flags: HW
LayerCount: 2
Fore
SplineSet
289 787 m 1,0,-1
 86 787 l 1,1,-1
 86 1000 l 2,2,3
 86 1173 86 1173 196 1217 c 0,4,5
 236 1233 236 1233 293 1233 c 1,6,-1
 293 1137 l 1,7,8
 238 1124 238 1124 217 1096 c 0,9,10
 196 1068 196 1068 196 1003 c 1,11,-1
 289 1003 l 1,12,-1
 289 787 l 1,0,-1
EndSplineSet
Validated: 1
EndChar

StartChar: quoteright
Encoding: 8217 8217 278
Width: 364
Flags: HW
LayerCount: 2
Fore
SplineSet
88 1215 m 1,0,-1
 291 1215 l 1,1,-1
 291 1003 l 1,2,3
 290 829 290 829 182 785 c 0,4,5
 142 769 142 769 85 768 c 1,6,-1
 85 865 l 1,7,8
 139 874 139 874 160 904 c 0,9,10
 181 934 181 934 183 1000 c 1,11,-1
 88 1000 l 1,12,-1
 88 1215 l 1,0,-1
EndSplineSet
Validated: 1
EndChar

StartChar: quotesinglbase
Encoding: 8218 8218 279
Width: 389
Flags: HW
LayerCount: 2
Fore
SplineSet
88 203 m 1,0,-1
 291 203 l 1,1,-1
 291 -9 l 1,2,3
 290 -183 290 -183 182 -227 c 0,4,5
 142 -243 142 -243 85 -244 c 1,6,-1
 85 -147 l 1,7,8
 139 -138 139 -138 160 -108 c 0,9,10
 181 -78 181 -78 183 -12 c 1,11,-1
 88 -12 l 1,12,-1
 88 203 l 1,0,-1
EndSplineSet
Validated: 1
EndChar

StartChar: quotedblleft
Encoding: 8220 8220 280
Width: 691
Flags: HW
LayerCount: 2
Fore
SplineSet
594 787 m 1,0,-1
 392 787 l 1,1,-1
 392 1000 l 2,2,3
 392 1173 392 1173 502 1217 c 0,4,5
 542 1233 542 1233 599 1233 c 1,6,-1
 599 1137 l 1,7,8
 544 1124 544 1124 523 1096 c 0,9,10
 502 1068 502 1068 502 1003 c 1,11,-1
 594 1003 l 1,12,-1
 594 787 l 1,0,-1
289 787 m 1,13,-1
 86 787 l 1,14,-1
 86 1000 l 2,15,16
 86 1173 86 1173 196 1217 c 0,17,18
 236 1233 236 1233 293 1233 c 1,19,-1
 293 1137 l 1,20,21
 238 1124 238 1124 217 1096 c 0,22,23
 196 1068 196 1068 196 1003 c 1,24,-1
 289 1003 l 1,25,-1
 289 787 l 1,13,-1
EndSplineSet
Validated: 1
EndChar

StartChar: quotedblright
Encoding: 8221 8221 281
Width: 677
Flags: HW
LayerCount: 2
Fore
SplineSet
88 1215 m 1,0,-1
 291 1215 l 1,1,-1
 291 1003 l 1,2,3
 290 829 290 829 182 785 c 0,4,5
 142 769 142 769 85 768 c 1,6,-1
 85 865 l 1,7,8
 139 874 139 874 160 904 c 0,9,10
 181 934 181 934 183 1000 c 1,11,-1
 88 1000 l 1,12,-1
 88 1215 l 1,0,-1
387 1215 m 1,13,-1
 590 1215 l 1,14,-1
 590 1003 l 2,15,16
 590 829 590 829 482 785 c 0,17,18
 442 769 442 769 384 768 c 1,19,-1
 384 865 l 1,20,21
 438 874 438 874 459 904 c 0,22,23
 480 934 480 934 482 1000 c 1,24,-1
 387 1000 l 1,25,-1
 387 1215 l 1,13,-1
EndSplineSet
Validated: 1
EndChar

StartChar: quotedblbase
Encoding: 8222 8222 282
Width: 785
Flags: HW
LayerCount: 2
Fore
SplineSet
483 203 m 1,0,-1
 686 203 l 1,1,-1
 686 -9 l 2,2,3
 686 -183 686 -183 578 -227 c 0,4,5
 538 -243 538 -243 480 -244 c 1,6,-1
 480 -147 l 1,7,8
 534 -136 534 -136 554 -108 c 0,9,10
 574 -80 574 -80 577 -12 c 1,11,-1
 483 -12 l 1,12,-1
 483 203 l 1,0,-1
123 203 m 1,13,-1
 326 203 l 1,14,-1
 326 -9 l 2,15,16
 326 -183 326 -183 218 -227 c 0,17,18
 178 -243 178 -243 120 -244 c 1,19,-1
 120 -147 l 1,20,21
 174 -136 174 -136 194 -108 c 0,22,23
 214 -80 214 -80 217 -12 c 1,24,-1
 123 -12 l 1,25,-1
 123 203 l 1,13,-1
EndSplineSet
Validated: 1
EndChar

StartChar: bullet
Encoding: 8226 8226 283
Width: 559
Flags: HW
LayerCount: 2
Fore
SplineSet
280 754 m 256,0,1
 363 754 363 754 422 698 c 0,2,3
 481 642 481 642 481 562 c 256,4,5
 481 482 481 482 422 425 c 128,-1,6
 363 368 363 368 280 368 c 256,7,8
 196 368 196 368 138 424 c 0,9,10
 80 480 80 480 80 562 c 256,11,12
 80 644 80 644 138 699 c 0,13,14
 196 754 196 754 280 754 c 256,0,1
EndSplineSet
Validated: 1
EndChar

StartChar: guilsinglleft
Encoding: 8249 8249 284
Width: 723
GlyphClass: 2
Flags: HW
LayerCount: 2
Fore
SplineSet
133 606 m 1,0,-1
 446 963 l 1,1,-1
 590 963 l 1,2,-1
 383 553 l 1,3,-1
 590 143 l 1,4,-1
 446 143 l 1,5,-1
 133 500 l 1,6,-1
 133 606 l 1,0,-1
EndSplineSet
Validated: 1
EndChar

StartChar: guilsinglright
Encoding: 8250 8250 285
Width: 723
GlyphClass: 2
Flags: HW
LayerCount: 2
Fore
SplineSet
590 500 m 1,0,-1
 276 143 l 1,1,-1
 133 143 l 1,2,-1
 340 553 l 1,3,-1
 133 963 l 1,4,-1
 276 963 l 1,5,-1
 590 606 l 1,6,-1
 590 500 l 1,0,-1
EndSplineSet
Validated: 1
EndChar

StartChar: Euro
Encoding: 8364 8364 286
Width: 1284
Flags: HW
LayerCount: 2
Fore
SplineSet
207 806 m 1,0,1
 252 1000 252 1000 384.5 1117 c 128,-1,2
 517 1234 517 1234 707.5 1234 c 128,-1,3
 898 1234 898 1234 1035 1097 c 1,4,-1
 1035 1215 l 1,5,-1
 1198 1215 l 1,6,-1
 1198 832 l 1,7,-1
 1043 832 l 1,8,9
 951 1075 951 1075 743 1075 c 1,10,11
 581 1074 581 1074 491 916 c 0,12,13
 463 866 463 866 447 806 c 1,14,-1
 735 806 l 1,15,-1
 735 683 l 1,16,-1
 425 683 l 1,17,18
 422 647 422 647 422 622 c 2,19,-1
 422 578 l 2,20,21
 422 560 422 560 424 549 c 1,22,-1
 735 549 l 1,23,-1
 735 426 l 1,24,-1
 444 426 l 1,25,26
 492 224 492 224 634 162 c 0,27,28
 682 141 682 141 740 141 c 0,29,30
 860 141 860 141 947 216 c 128,-1,31
 1034 291 1034 291 1063 439 c 1,32,-1
 1235 358 l 1,33,34
 1133 -14 1133 -14 733 -19 c 1,35,36
 519 -17 519 -17 384 103.5 c 128,-1,37
 249 224 249 224 205 426 c 1,38,-1
 36 426 l 1,39,-1
 36 549 l 1,40,-1
 187 549 l 1,41,42
 185 571 185 571 185 612 c 128,-1,43
 185 653 185 653 188 683 c 1,44,-1
 36 683 l 1,45,-1
 36 806 l 1,46,-1
 207 806 l 1,0,1
EndSplineSet
Validated: 1
EndChar

StartChar: trademark
Encoding: 8482 8482 287
Width: 2069
Flags: HW
LayerCount: 2
Fore
SplineSet
813 1215 m 1,0,-1
 813 916 l 1,1,-1
 688 916 l 1,2,-1
 688 1103 l 1,3,-1
 532 1103 l 1,4,-1
 532 561 l 1,5,-1
 653 561 l 1,6,-1
 653 449 l 1,7,-1
 244 449 l 1,8,-1
 244 561 l 1,9,-1
 367 561 l 1,10,-1
 367 1103 l 1,11,-1
 209 1103 l 1,12,-1
 209 916 l 1,13,-1
 83 916 l 1,14,-1
 83 1215 l 1,15,-1
 813 1215 l 1,0,-1
980 1103 m 1,16,-1
 872 1103 l 1,17,-1
 872 1215 l 1,18,-1
 1199 1215 l 1,19,-1
 1416 695 l 1,20,-1
 1638 1215 l 1,21,-1
 1980 1215 l 1,22,-1
 1980 1103 l 1,23,-1
 1872 1103 l 1,24,-1
 1872 561 l 1,25,-1
 1980 561 l 1,26,-1
 1980 449 l 1,27,-1
 1615 449 l 1,28,-1
 1615 561 l 1,29,-1
 1716 561 l 1,30,-1
 1716 1059 l 1,31,-1
 1446 449 l 1,32,-1
 1382 449 l 1,33,-1
 1104 1058 l 1,34,-1
 1104 561 l 1,35,-1
 1205 561 l 1,36,-1
 1205 449 l 1,37,-1
 872 449 l 1,38,-1
 872 561 l 1,39,-1
 980 561 l 1,40,-1
 980 1103 l 1,16,-1
EndSplineSet
Validated: 1
EndChar

StartChar: grave.cap
Encoding: 65542 -1 291
Width: 562
Flags: HW
LayerCount: 2
Fore
SplineSet
292 914 m 1,0,-1
 105 1171 l 1,1,-1
 312 1171 l 1,2,-1
 411 914 l 1,3,-1
 292 914 l 1,0,-1
EndSplineSet
Validated: 1
EndChar

StartChar: acute.cap
Encoding: 65543 -1 292
Width: 562
Flags: HW
LayerCount: 2
Fore
SplineSet
165 914 m 1,0,-1
 264 1171 l 1,1,-1
 471 1171 l 1,2,-1
 284 914 l 1,3,-1
 165 914 l 1,0,-1
EndSplineSet
Validated: 1
EndChar

StartChar: dieresis.cap
Encoding: 65544 -1 293
Width: 572
Flags: HW
LayerCount: 2
Fore
SplineSet
523 1101 m 1,0,-1
 523 948 l 1,1,-1
 371 948 l 1,2,-1
 371 1101 l 1,3,-1
 523 1101 l 1,0,-1
212 1101 m 1,4,-1
 212 948 l 1,5,-1
 58 948 l 1,6,-1
 58 1101 l 1,7,-1
 212 1101 l 1,4,-1
EndSplineSet
Validated: 1
EndChar

StartChar: caron.cap
Encoding: 65545 -1 294
Width: 593
Flags: HW
LayerCount: 2
Fore
SplineSet
145 1171 m 1,0,-1
 299 1017 l 1,1,-1
 451 1171 l 1,2,-1
 555 1171 l 1,3,-1
 396 912 l 1,4,-1
 200 912 l 1,5,-1
 38 1171 l 1,6,-1
 145 1171 l 1,0,-1
EndSplineSet
Validated: 1
EndChar

StartChar: ring.cap
Encoding: 65546 -1 295
Width: 565
Flags: HW
LayerCount: 2
Fore
SplineSet
281 1244 m 256,0,1
 364 1244 364 1244 414 1196 c 0,2,3
 464 1148 464 1148 464 1078 c 128,-1,4
 464 1008 464 1008 414 957 c 0,5,6
 364 906 364 906 281 906 c 256,7,8
 198 906 198 906 148 958 c 0,9,10
 98 1010 98 1010 99 1079 c 0,11,12
 99 1149 99 1149 148 1196 c 0,13,14
 198 1244 198 1244 281 1244 c 256,0,1
281 1175 m 256,15,16
 231 1175 231 1175 204.5 1145 c 128,-1,17
 178 1115 178 1115 178 1076 c 256,18,19
 178 1037 178 1037 204.5 1007 c 128,-1,20
 231 977 231 977 281 977 c 256,21,22
 331 977 331 977 358 1007 c 128,-1,23
 385 1037 385 1037 385 1076 c 256,24,25
 385 1115 385 1115 358 1145 c 128,-1,26
 331 1175 331 1175 281 1175 c 256,15,16
EndSplineSet
Validated: 33
EndChar

StartChar: tilde.cap
Encoding: 65547 -1 296
Width: 587
Flags: HW
LayerCount: 2
Fore
SplineSet
137 1042 m 0,0,1
 81 1042 81 1042 69 980 c 1,2,-1
 -11 980 l 1,3,4
 2 1137 2 1137 102 1177 c 0,5,6
 132 1189 132 1189 168 1189 c 0,7,8
 218 1189 218 1189 314 1154 c 128,-1,9
 410 1119 410 1119 443 1119 c 0,10,11
 505 1119 505 1119 520 1184 c 1,12,-1
 598 1184 l 1,13,14
 590 1084 590 1084 544 1028 c 0,15,16
 498 972 498 972 429 971 c 0,17,18
 428 972 l 0,19,20
 358 972 358 972 265.5 1007 c 128,-1,21
 173 1042 173 1042 137 1042 c 0,0,1
EndSplineSet
Validated: 1
EndChar

StartChar: dotaccentcmb.cap
Encoding: 65548 -1 297
Width: 535
Flags: HW
LayerCount: 2
Fore
SplineSet
268 1125 m 256,0,1
 329 1125 329 1125 352 1072 c 0,2,3
 359 1056 359 1056 359 1036 c 0,4,5
 359 981 359 981 304 957 c 0,6,7
 288 950 288 950 268 950 c 256,8,9
 231 950 231 950 204 976 c 0,10,11
 177 1002 177 1002 177 1038 c 0,12,13
 177 1075 177 1075 203 1100 c 0,14,15
 230 1125 230 1125 268 1125 c 256,0,1
EndSplineSet
Validated: 1
EndChar

StartChar: periodcentered
Encoding: 183 183 298
Width: 414
Flags: HW
LayerCount: 2
Fore
SplineSet
86 657 m 1,0,-1
 313 657 l 1,1,-1
 313 446 l 1,2,-1
 86 446 l 1,3,-1
 86 657 l 1,0,-1
EndSplineSet
Validated: 1
EndChar

StartChar: minus
Encoding: 8722 8722 300
Width: 930
Flags: HW
LayerCount: 2
Fore
SplineSet
876 863 m 1,0,-1
 876 722 l 1,1,-1
 56 722 l 1,2,-1
 56 863 l 1,3,-1
 876 863 l 1,0,-1
EndSplineSet
Validated: 1
EndChar

StartChar: fraction
Encoding: 8260 8260 301
Width: 865
Flags: HW
LayerCount: 2
Fore
SplineSet
668 1246 m 1,0,-1
 775 1217 l 1,1,-1
 202 -35 l 1,2,-1
 94 -6 l 1,3,-1
 668 1246 l 1,0,-1
EndSplineSet
Validated: 1
EndChar

StartChar: ellipsis
Encoding: 8230 8230 302
Width: 1501
Flags: HW
LayerCount: 2
Fore
SplineSet
120 6 m 1,0,1
 120 188 120 188 127 244 c 1,2,3
 267 244 267 244 375 238 c 1,4,5
 375 127 375 127 367 -1 c 1,6,7
 183 -1 183 -1 120 6 c 1,0,1
620 6 m 1,8,9
 620 188 620 188 627 244 c 1,10,11
 767 244 767 244 875 238 c 1,12,13
 875 63 875 63 867 -1 c 1,14,15
 683 -1 683 -1 620 6 c 1,8,9
1120 6 m 1,16,17
 1120 188 1120 188 1127 244 c 1,18,19
 1267 244 1267 244 1375 238 c 1,20,21
 1375 111 1375 111 1368 -1 c 1,22,23
 1183 -1 1183 -1 1120 6 c 1,16,17
EndSplineSet
Validated: 1
EndChar

StartChar: dotlessj.001
Encoding: 65551 -1 304
Width: 441
Flags: HW
LayerCount: 2
Fore
SplineSet
280 -244 m 0,0,1
 210 -367 210 -367 41 -367 c 0,2,3
 -27 -367 -27 -367 -60 -361 c 1,4,-1
 -60 -235 l 1,5,6
 -14 -239 -14 -239 22 -239 c 0,7,8
 100 -239 100 -239 133 -194.5 c 128,-1,9
 166 -150 166 -150 166 -43 c 2,10,-1
 163 351 l 1,11,-1
 163 685 l 1,12,-1
 31 685 l 1,13,-1
 31 805 l 1,14,-1
 314 805 l 1,15,-1
 314 142 l 1,16,-1
 315 24 l 1,17,-1
 315 4 l 2,18,19
 316 -182 316 -182 280 -244 c 0,0,1
EndSplineSet
Validated: 33
EndChar

StartChar: fi
Encoding: 64257 64257 305
Width: 1142
Flags: HW
LayerCount: 2
Fore
SplineSet
536 1009 m 1,0,1
 536 1096 536 1096 457 1096 c 0,2,3
 387 1096 387 1096 387 948 c 2,4,-1
 387 849 l 1,5,-1
 990 849 l 1,6,-1
 990 141 l 1,7,-1
 1127 141 l 1,8,-1
 1127 0 l 1,9,-1
 657 0 l 1,10,-1
 657 141 l 1,11,-1
 794 141 l 1,12,-1
 794 709 l 1,13,-1
 387 709 l 1,14,-1
 387 141 l 1,15,-1
 545 141 l 1,16,-1
 545 0 l 1,17,-1
 63 0 l 1,18,-1
 63 141 l 1,19,-1
 189 141 l 1,20,-1
 189 709 l 1,21,-1
 59 709 l 1,22,-1
 59 849 l 1,23,-1
 189 849 l 1,24,-1
 189 951 l 2,25,26
 189 1233 189 1233 459 1233 c 0,27,28
 691 1233 691 1233 691 1009 c 1,29,-1
 536 1009 l 1,0,1
906 1227 m 256,30,31
 954 1227 954 1227 987.5 1195.5 c 128,-1,32
 1021 1164 1021 1164 1021 1130 c 0,33,34
 1021 1071 1021 1071 988 1041 c 128,-1,35
 955 1011 955 1011 909 1011 c 0,36,37
 908 1011 908 1011 906 1011 c 256,38,39
 905 1011 905 1011 904 1011 c 0,40,41
 832 1011 832 1011 802 1076 c 0,42,43
 793 1096 793 1096 793 1118 c 0,44,45
 793 1165 793 1165 825.5 1196 c 128,-1,46
 858 1227 858 1227 903 1227 c 0,47,48
 905 1227 905 1227 906 1227 c 256,30,31
EndSplineSet
Validated: 1
EndChar

StartChar: fl
Encoding: 64258 64258 306
Width: 1137
Flags: HW
LayerCount: 2
Fore
SplineSet
189 951 m 2,0,1
 189 1215 189 1215 451 1215 c 0,2,3
 455 1215 455 1215 459 1215 c 2,4,-1
 969 1215 l 1,5,-1
 969 141 l 1,6,-1
 1104 141 l 1,7,-1
 1104 0 l 1,8,-1
 627 0 l 1,9,-1
 627 141 l 1,10,-1
 773 141 l 1,11,-1
 773 1075 l 1,12,-1
 466 1075 l 2,13,14
 421 1075 421 1075 404 1050 c 128,-1,15
 387 1025 387 1025 387 948 c 2,16,-1
 387 849 l 1,17,-1
 542 849 l 1,18,-1
 542 709 l 1,19,-1
 387 709 l 1,20,-1
 387 141 l 1,21,-1
 545 141 l 1,22,-1
 545 0 l 1,23,-1
 63 0 l 1,24,-1
 63 141 l 1,25,-1
 189 141 l 1,26,-1
 189 709 l 1,27,-1
 59 709 l 1,28,-1
 59 849 l 1,29,-1
 189 849 l 1,30,-1
 189 951 l 2,0,1
EndSplineSet
Validated: 1
EndChar

StartChar: infinity
Encoding: 8734 8734 307
Width: 1448
GlyphClass: 2
Flags: HW
LayerCount: 2
Fore
SplineSet
393 989 m 0,0,1
 608 989 608 989 737 745 c 1,2,3
 862 983 862 983 1061 983 c 0,4,5
 1200 983 1200 983 1288 875.5 c 128,-1,6
 1376 768 1376 768 1376 598 c 128,-1,7
 1376 428 1376 428 1287 314.5 c 128,-1,8
 1198 201 1198 201 1059 201 c 0,9,10
 850 201 850 201 711 451 c 1,11,12
 584 207 584 207 393 207 c 0,13,14
 252 207 252 207 162 312.5 c 128,-1,15
 72 418 72 418 72 592 c 128,-1,16
 72 766 72 766 161 877.5 c 128,-1,17
 250 989 250 989 391 989 c 0,18,19
 392 989 392 989 393 989 c 0,0,1
920 783.5 m 128,-1,21
 862 721 862 721 803 592 c 1,22,23
 856 465 856 465 915 401.5 c 128,-1,24
 974 338 974 338 1056.5 338 c 128,-1,25
 1139 338 1139 338 1192 412 c 128,-1,26
 1245 486 1245 486 1245 594.5 c 128,-1,27
 1245 703 1245 703 1191 774.5 c 128,-1,28
 1137 846 1137 846 1057.5 846 c 128,-1,20
 978 846 978 846 920 783.5 c 128,-1,21
312 364 m 0,29,30
 348 344 348 344 407 344 c 128,-1,31
 466 344 466 344 527 405.5 c 128,-1,32
 588 467 588 467 645 598 c 1,33,34
 592 725 592 725 532 788.5 c 128,-1,35
 472 852 472 852 390 852 c 128,-1,36
 308 852 308 852 256.5 778 c 128,-1,37
 205 704 205 704 205 600 c 0,38,39
 205 425 205 425 312 364 c 0,29,30
EndSplineSet
Validated: 1
EndChar

StartChar: lessequal
Encoding: 8804 8804 308
Width: 1145
GlyphClass: 2
Flags: HW
LayerCount: 2
Fore
SplineSet
1012 0 m 1,0,-1
 133 0 l 1,1,-1
 133 145 l 1,2,-1
 1012 145 l 1,3,-1
 1012 0 l 1,0,-1
133 690 m 1,4,-1
 133 774 l 1,5,-1
 1012 1253 l 1,6,-1
 1012 1092 l 1,7,-1
 352 731 l 1,8,-1
 1012 375 l 1,9,-1
 1012 213 l 1,10,-1
 133 690 l 1,4,-1
EndSplineSet
Validated: 1
EndChar

StartChar: greaterequal
Encoding: 8805 8805 309
Width: 1145
GlyphClass: 2
Flags: HW
LayerCount: 2
Fore
SplineSet
1012 0 m 1,0,-1
 133 0 l 1,1,-1
 133 145 l 1,2,-1
 1012 145 l 1,3,-1
 1012 0 l 1,0,-1
133 213 m 1,4,-1
 133 375 l 1,5,-1
 793 731 l 1,6,-1
 133 1092 l 1,7,-1
 133 1253 l 1,8,-1
 1012 774 l 1,9,-1
 1012 690 l 1,10,-1
 133 213 l 1,4,-1
EndSplineSet
Validated: 1
EndChar

StartChar: partialdiff
Encoding: 8706 8706 310
Width: 930
GlyphClass: 2
Flags: HW
LayerCount: 2
Fore
SplineSet
385 933 m 1,0,1
 202 933 202 933 202 1060 c 0,2,3
 202 1135 202 1135 272 1184 c 0,4,5
 340 1233 340 1233 448 1234 c 0,6,7
 653 1234 653 1234 753.5 1100 c 128,-1,8
 854 966 854 966 854 709 c 128,-1,9
 854 452 854 452 744 239 c 0,10,11
 662 80 662 80 527 15 c 0,12,13
 456 -19 456 -19 371 -19 c 0,14,15
 216 -19 216 -19 146.5 64.5 c 128,-1,16
 77 148 77 148 77 295.5 c 128,-1,17
 77 443 77 443 180 586 c 0,18,19
 306 761 306 761 527 761 c 256,20,21
 682 761 682 761 741 648 c 1,22,-1
 749 648 l 1,23,24
 755 682 755 682 755 747 c 0,25,26
 755 904 755 904 703 1014.5 c 128,-1,27
 651 1125 651 1125 554 1125 c 0,28,29
 478 1125 478 1125 432 1065.5 c 128,-1,30
 386 1006 386 1006 385 933 c 1,0,1
726 508 m 1,31,32
 686 658 686 658 585 658 c 0,33,34
 466 658 466 658 394 515 c 0,35,36
 334 396 334 396 334 290 c 0,37,38
 334 92 334 92 460 92 c 0,39,40
 546 92 546 92 624 216 c 128,-1,41
 702 340 702 340 726 508 c 1,31,32
EndSplineSet
Validated: 1
EndChar

StartChar: summation
Encoding: 8721 8721 311
Width: 984
GlyphClass: 2
Flags: HW
LayerCount: 2
Fore
SplineSet
716 165 m 2,0,1
 795 165 795 165 815 240 c 0,2,3
 821 263 821 263 824 289 c 2,4,-1
 829 327 l 1,5,-1
 903 327 l 1,6,-1
 903 0 l 1,7,-1
 61 0 l 1,8,-1
 61 99 l 1,9,-1
 455 607 l 1,10,-1
 89 1089 l 1,11,-1
 89 1215 l 1,12,-1
 841 1215 l 1,13,-1
 841 977 l 1,14,-1
 773 977 l 1,15,-1
 765 1032 l 1,16,17
 760 1083 760 1083 734 1110 c 128,-1,18
 708 1137 708 1137 648 1137 c 2,19,-1
 261 1137 l 1,20,-1
 583 712 l 1,21,-1
 583 642 l 1,22,-1
 212 165 l 1,23,-1
 716 165 l 2,0,1
EndSplineSet
Validated: 1
EndChar

StartChar: product
Encoding: 8719 8719 312
Width: 1043
GlyphClass: 2
Flags: HW
LayerCount: 2
Fore
SplineSet
568 0 m 1,0,-1
 568 67 l 1,1,-1
 622 67 l 2,2,3
 654 67 654 67 670 83 c 0,4,5
 686 99 686 99 686 148 c 2,6,-1
 686 1139 l 1,7,-1
 360 1139 l 1,8,-1
 360 148 l 2,9,10
 360 78 360 78 398 70 c 0,11,12
 410 68 410 68 424 67 c 1,13,-1
 477 67 l 1,14,-1
 477 0 l 1,15,-1
 46 0 l 1,16,-1
 46 67 l 1,17,-1
 98 67 l 2,18,19
 130 67 130 67 146 83 c 0,20,21
 162 99 162 99 162 148 c 2,22,-1
 162 1072 l 1,23,24
 160 1138 160 1138 122 1146 c 0,25,26
 110 1148 110 1148 98 1149 c 1,27,-1
 46 1149 l 1,28,-1
 46 1215 l 1,29,-1
 1000 1215 l 1,30,-1
 1000 1149 l 1,31,-1
 947 1149 l 2,32,33
 884 1149 884 1149 884 1068 c 2,34,-1
 884 142 l 1,35,36
 887 78 887 78 923 70 c 0,37,38
 934 68 934 68 947 67 c 1,39,-1
 1000 67 l 1,40,-1
 1000 0 l 1,41,-1
 568 0 l 1,0,-1
EndSplineSet
Validated: 1
EndChar

StartChar: pi
Encoding: 960 960 313
Width: 1094
GlyphClass: 2
Flags: HW
LayerCount: 2
Fore
SplineSet
246 645 m 2,0,1
 162 645 162 645 146 545 c 1,2,-1
 53 545 l 1,3,4
 54 754 54 754 194 824 c 0,5,6
 242 848 242 848 310 849 c 1,7,-1
 1018 849 l 1,8,-1
 1018 645 l 1,9,-1
 808 645 l 1,10,11
 790 440 790 440 790 226 c 0,12,13
 790 112 790 112 875 112 c 0,14,15
 914 112 914 112 957 128 c 1,16,-1
 957 30 l 1,17,18
 912 -13 912 -13 822 -13 c 0,19,20
 639 -13 639 -13 639 174 c 0,21,22
 639 327 639 327 692 645 c 1,23,-1
 427 645 l 1,24,-1
 407 244 l 2,25,26
 400 112 400 112 352 56 c 0,27,28
 304 0 304 0 188 0 c 2,29,-1
 82 0 l 1,30,-1
 82 82 l 1,31,32
 185 82 185 82 241 190 c 0,33,34
 262 230 262 230 271 293 c 2,35,-1
 319 645 l 1,36,-1
 246 645 l 2,0,1
EndSplineSet
Validated: 1
EndChar

StartChar: integral
Encoding: 8747 8747 314
Width: 890
GlyphClass: 2
Flags: HW
LayerCount: 2
Fore
SplineSet
0 -214 m 0,0,1
 0 -95 0 -95 168 -95 c 0,2,3
 171 -95 171 -95 173 -95 c 1,4,5
 173 -258 173 -258 256 -258 c 128,-1,6
 339 -258 339 -258 339 -39 c 0,7,8
 339 36 339 36 318.5 247.5 c 128,-1,9
 298 459 298 459 298 530.5 c 128,-1,10
 298 602 298 602 300 683.5 c 128,-1,11
 302 765 302 765 312 844 c 0,12,13
 336 1022 336 1022 404 1117 c 0,14,15
 488 1233 488 1233 643 1233 c 0,16,17
 749 1233 749 1233 802.5 1198 c 128,-1,18
 856 1163 856 1163 856 1107 c 0,19,20
 856 987 856 987 683 987 c 1,21,22
 683 1064 683 1064 662 1103.5 c 0,23,24
 642 1143 642 1143 614 1143 c 0,25,26
 563 1143 563 1143 542.5 1095 c 128,-1,27
 522 1047 522 1047 522 970 c 0,28,29
 522 874 522 874 537.5 710.5 c 128,-1,30
 553 547 553 547 553 452.5 c 128,-1,31
 553 358 553 358 551.5 263.5 c 0,32,33
 550 168 550 168 540 80 c 0,34,35
 518 -121 518 -121 454 -222 c 0,36,37
 375 -348 375 -348 214.5 -348 c 128,-1,38
 54 -348 54 -348 12 -264 c 0,39,40
 0 -239 0 -239 0 -214 c 0,0,1
EndSplineSet
Validated: 524289
EndChar

StartChar: dagger
Encoding: 8224 8224 315
Width: 833
GlyphClass: 2
Flags: HW
LayerCount: 2
Fore
SplineSet
370 -227 m 1,0,1
 370 202 370 202 293 576 c 1,2,-1
 370 765 l 1,3,-1
 72 718 l 1,4,-1
 72 913 l 1,5,-1
 370 869 l 1,6,-1
 310 1235 l 1,7,-1
 522 1235 l 1,8,-1
 458 869 l 1,9,-1
 757 913 l 1,10,-1
 757 718 l 1,11,-1
 458 765 l 1,12,-1
 539 576 l 1,13,14
 458 220 458 220 458 -227 c 1,15,-1
 370 -227 l 1,0,1
EndSplineSet
Validated: 1
EndChar

StartChar: section
Encoding: 167 167 316
Width: 891
GlyphClass: 2
Flags: HW
LayerCount: 2
Fore
SplineSet
724 285 m 1,0,1
 782 210 782 210 782 128 c 0,2,3
 782 -24 782 -24 696.5 -104.5 c 128,-1,4
 611 -185 611 -185 446.5 -185 c 128,-1,5
 282 -185 282 -185 208 -123.5 c 128,-1,6
 134 -62 134 -62 134 13 c 0,7,8
 134 154 134 154 280 154 c 1,9,10
 280 -21 280 -21 390 -78 c 0,11,12
 426 -97 426 -97 489.5 -97 c 128,-1,13
 553 -97 553 -97 597 -53.5 c 128,-1,14
 641 -10 641 -10 641 60 c 128,-1,15
 641 130 641 130 601 166 c 0,16,17
 541 220 541 220 416 281.5 c 0,18,19
 290 344 290 344 242 378 c 0,20,21
 106 475 106 475 106 618 c 0,22,23
 106 673 106 673 135.5 717.5 c 128,-1,24
 165 762 165 762 213 786 c 1,25,26
 142 859 142 859 142 981.5 c 128,-1,27
 142 1104 142 1104 232 1174.5 c 128,-1,28
 322 1245 322 1245 466 1245 c 0,29,30
 680 1244 680 1244 740 1132 c 0,31,32
 758 1098 758 1098 758 1052.5 c 128,-1,33
 758 1007 758 1007 718 974 c 128,-1,34
 678 941 678 941 603 941 c 1,35,36
 604 1083 604 1083 530 1135 c 0,37,38
 502 1155 502 1155 445.5 1155 c 128,-1,39
 389 1155 389 1155 347.5 1115.5 c 128,-1,40
 306 1076 306 1076 306 1019 c 128,-1,41
 306 962 306 962 319 935.5 c 128,-1,42
 332 909 332 909 362.5 884 c 0,43,44
 392 858 392 858 490 812 c 0,45,46
 680 721 680 721 754.5 650.5 c 128,-1,47
 829 580 829 580 829 485 c 128,-1,48
 829 390 829 390 765 319 c 0,49,50
 746 298 746 298 724 285 c 1,0,1
647 350 m 1,51,52
 669 382 669 382 669 415 c 0,53,54
 669 533 669 533 494 618 c 128,-1,55
 319 703 319 703 278 732 c 1,56,57
 252 702 252 702 252 664 c 0,58,59
 252 594 252 594 298 553 c 128,-1,60
 344 512 344 512 465.5 451.5 c 128,-1,61
 587 391 587 391 647 350 c 1,51,52
EndSplineSet
Validated: 524321
EndChar

StartChar: Delta
Encoding: 8710 8710 317
Width: 1147
GlyphClass: 2
Flags: HW
LayerCount: 2
Fore
SplineSet
1066 0 m 1,0,-1
 80 0 l 1,1,-1
 80 106 l 1,2,-1
 464 1170 l 1,3,-1
 698 1170 l 1,4,-1
 1066 118 l 1,5,-1
 1066 0 l 1,0,-1
813 130 m 1,6,-1
 602 746 l 1,7,8
 550 891 550 891 521 1014 c 1,9,10
 503 933 503 933 444 760 c 2,11,-1
 226 130 l 1,12,-1
 813 130 l 1,6,-1
EndSplineSet
Validated: 1
EndChar

StartChar: daggerdbl
Encoding: 8225 8225 318
Width: 853
GlyphClass: 2
Flags: HW
LayerCount: 2
Fore
SplineSet
478 141 m 1,0,-1
 756 189 l 1,1,-1
 756 -6 l 1,2,-1
 458 37 l 1,3,-1
 522 -227 l 1,4,-1
 309 -227 l 1,5,-1
 370 37 l 1,6,-1
 72 -6 l 1,7,-1
 72 189 l 1,8,-1
 350 141 l 1,9,-1
 362 508 l 1,10,-1
 350 865 l 1,11,-1
 72 818 l 1,12,-1
 72 1012 l 1,13,-1
 370 969 l 1,14,-1
 309 1233 l 1,15,-1
 522 1233 l 1,16,-1
 458 969 l 1,17,-1
 756 1012 l 1,18,-1
 756 818 l 1,19,-1
 478 865 l 1,20,-1
 465 506 l 1,21,-1
 478 141 l 1,0,-1
EndSplineSet
Validated: 1
EndChar

StartChar: notequal
Encoding: 8800 8800 319
Width: 1145
GlyphClass: 2
Flags: HW
LayerCount: 2
Fore
SplineSet
569 1001 m 1,0,-1
 625 1212 l 1,1,-1
 768 1212 l 1,2,-1
 713 1001 l 1,3,-1
 1016 1001 l 1,4,-1
 1016 858 l 1,5,-1
 676 858 l 1,6,-1
 610 604 l 1,7,-1
 1016 604 l 1,8,-1
 1016 461 l 1,9,-1
 573 461 l 1,10,-1
 520 250 l 1,11,-1
 375 250 l 1,12,-1
 428 461 l 1,13,-1
 129 461 l 1,14,-1
 129 604 l 1,15,-1
 465 604 l 1,16,-1
 532 858 l 1,17,-1
 129 858 l 1,18,-1
 129 1001 l 1,19,-1
 569 1001 l 1,0,-1
EndSplineSet
Validated: 1
EndChar

StartChar: radical
Encoding: 8730 8730 320
Width: 1071
GlyphClass: 2
Flags: HW
LayerCount: 2
Fore
SplineSet
657 -14 m 1,0,-1
 516 -14 l 1,1,-1
 229 788 l 1,2,-1
 63 788 l 1,3,-1
 63 911 l 1,4,-1
 365 911 l 1,5,-1
 598 244 l 1,6,-1
 1034 1673 l 1,7,-1
 1169 1673 l 1,8,-1
 657 -14 l 1,0,-1
EndSplineSet
Validated: 1
EndChar

StartChar: florin
Encoding: 402 402 321
Width: 916
GlyphClass: 2
Flags: HW
LayerCount: 2
Fore
SplineSet
746 969 m 1,0,1
 746 1140 746 1140 678 1140 c 0,2,3
 639 1140 639 1140 619.5 1093 c 128,-1,4
 600 1046 600 1046 582 948 c 2,5,-1
 550 783 l 1,6,-1
 760 783 l 1,7,-1
 739 669 l 1,8,-1
 530 669 l 1,9,-1
 406 36 l 2,10,11
 346 -272 346 -272 150 -328 c 0,12,13
 78 -348 78 -348 8 -348 c 0,14,15
 -67 -348 -67 -348 -139 -325 c 1,16,-1
 -114 -222 l 1,17,18
 -54 -245 -54 -245 -8.5 -245 c 128,-1,19
 37 -245 37 -245 59.5 -230 c 128,-1,20
 82 -215 82 -215 106.5 -170.5 c 128,-1,21
 131 -126 131 -126 162 37 c 2,22,-1
 283 669 l 1,23,-1
 122 669 l 1,24,-1
 142 783 l 1,25,-1
 303 783 l 1,26,-1
 334 937 l 2,27,28
 393 1233 393 1233 686 1233 c 0,29,30
 870 1233 870 1233 919 1154 c 0,31,32
 934 1130 934 1130 934 1102 c 256,33,34
 934 969 934 969 746 969 c 1,0,1
EndSplineSet
Validated: 1
EndChar

StartChar: approxequal
Encoding: 8776 8776 322
Width: 1149
GlyphClass: 2
Flags: HW
LayerCount: 2
Fore
SplineSet
798 572 m 0,0,1
 919 572 919 572 1036 694 c 1,2,-1
 1036 537 l 1,3,4
 939 428 939 428 788 428 c 0,5,6
 706 428 706 428 647 450 c 128,-1,7
 588 472 588 472 546 490 c 0,8,9
 461 526 461 526 424.5 537 c 128,-1,10
 388 548 388 548 352 548 c 0,11,12
 225 548 225 548 113 426 c 1,13,-1
 113 584 l 1,14,15
 212 692 212 692 360 692 c 0,16,17
 446 692 446 692 503.5 670.5 c 128,-1,18
 561 649 561 649 603 631 c 0,19,20
 695 592 695 592 729 582 c 128,-1,21
 763 572 763 572 798 572 c 0,0,1
798 914 m 0,22,23
 919 914 919 914 1036 1036 c 1,24,-1
 1036 879 l 1,25,26
 939 770 939 770 788 770 c 0,27,28
 706 770 706 770 647 792 c 128,-1,29
 588 814 588 814 546 832 c 0,30,31
 461 868 461 868 424.5 879 c 128,-1,32
 388 890 388 890 352 890 c 0,33,34
 225 890 225 890 113 768 c 1,35,-1
 113 926 l 1,36,37
 212 1034 212 1034 360 1034 c 0,38,39
 446 1034 446 1034 503.5 1012.5 c 128,-1,40
 561 991 561 991 603 973 c 0,41,42
 695 934 695 934 729 924 c 128,-1,43
 763 914 763 914 798 914 c 0,22,23
EndSplineSet
Validated: 1
EndChar

StartChar: lozenge
Encoding: 9674 9674 323
Width: 1122
GlyphClass: 2
Flags: HW
LayerCount: 2
Fore
SplineSet
608 0 m 1,0,-1
 514 0 l 1,1,-1
 55 729 l 1,2,-1
 514 1462 l 1,3,-1
 608 1462 l 1,4,-1
 1067 731 l 1,5,-1
 608 0 l 1,0,-1
563 1274 m 1,6,-1
 229 731 l 1,7,-1
 563 180 l 1,8,-1
 893 731 l 1,9,-1
 563 1274 l 1,6,-1
EndSplineSet
Validated: 1
EndChar

StartChar: ae
Encoding: 230 230 324
Width: 1542
Flags: HW
LayerCount: 2
Fore
SplineSet
768 715 m 1,0,1
 884 866 884 866 1078 866 c 128,-1,2
 1272 866 1272 866 1375.5 730 c 128,-1,3
 1479 594 1479 594 1479 383 c 1,4,-1
 833 383 l 1,5,6
 846 206 846 206 982 151 c 0,7,8
 1028 132 1028 132 1091.5 132 c 128,-1,9
 1155 132 1155 132 1221 160 c 128,-1,10
 1287 188 1287 188 1335 241 c 1,11,-1
 1443 137 l 1,12,13
 1329 -19 1329 -19 1081 -19 c 0,14,15
 873 -19 873 -19 745 109 c 1,16,17
 579 -19 579 -19 353 -19 c 0,18,19
 224 -19 224 -19 143.5 55.5 c 128,-1,20
 63 130 63 130 63 220 c 0,21,22
 63 377 63 377 163.5 441.5 c 128,-1,23
 264 506 264 506 434 506 c 0,24,25
 519 506 519 506 626 485 c 1,26,-1
 626 571 l 2,27,28
 626 688 626 688 516 720 c 0,29,30
 482 730 482 730 443 730 c 0,31,32
 298 730 298 730 204 636 c 1,33,-1
 103 748 l 1,34,35
 223 866 223 866 461 866 c 0,36,37
 579 866 579 866 631 841.5 c 128,-1,38
 683 817 683 817 712.5 787.5 c 128,-1,39
 742 758 742 758 768 715 c 1,0,1
446 385 m 0,40,41
 250 385 250 385 250 239 c 0,42,43
 250 152 250 152 334 121 c 0,44,45
 361 111 361 111 398 111 c 0,46,47
 464 111 464 111 540 142 c 128,-1,48
 616 173 616 173 672 213 c 1,49,50
 638 279 638 279 629 363 c 1,51,-1
 626 368 l 1,52,53
 588 371 588 371 541.5 378 c 128,-1,54
 495 385 495 385 446 385 c 0,40,41
1288 501 m 1,55,56
 1288 596 1288 596 1227 658.5 c 128,-1,57
 1166 721 1166 721 1074 721 c 0,58,59
 1073 721 1073 721 1071.5 721 c 128,-1,60
 1070 721 1070 721 1069 721 c 0,61,62
 922 721 922 721 862 592 c 0,63,64
 844 552 844 552 836 501 c 1,65,-1
 1288 501 l 1,55,56
EndSplineSet
Validated: 1
EndChar

StartChar: eth
Encoding: 240 240 327
Width: 1006
Flags: HW
LayerCount: 2
Fore
SplineSet
724 663 m 1,0,1
 724 796 724 796 695 888 c 1,2,-1
 545 848 l 1,3,-1
 510 968 l 1,4,-1
 636 1001 l 1,5,6
 570 1081 570 1081 466 1081 c 128,-1,7
 362 1081 362 1081 243 1020 c 1,8,-1
 177 1144 l 1,9,10
 252 1202 252 1202 378 1226 c 0,11,12
 414 1233 414 1233 433 1233 c 128,-1,13
 452 1233 452 1233 456 1233 c 0,14,15
 694 1233 694 1233 811 1048 c 1,16,-1
 969 1091 l 1,17,-1
 1004 971 l 1,18,-1
 866 934 l 1,19,20
 917 793 917 793 917 596 c 0,21,22
 917 -19 917 -19 476 -19 c 1,23,24
 296 -18 296 -18 191 95 c 128,-1,25
 86 208 86 208 86 384 c 128,-1,26
 86 560 86 560 186 662 c 0,27,28
 286 765 286 765 452.5 765 c 128,-1,29
 619 765 619 765 724 663 c 1,0,1
466 605 m 0,30,31
 381 605 381 605 326 542.5 c 128,-1,32
 271 480 271 480 271 377 c 0,33,34
 271 207 271 207 390 152 c 0,35,36
 431 133 431 133 487 133 c 0,37,38
 599 133 599 133 653 224 c 128,-1,39
 707 315 707 315 720 498 c 1,40,41
 620 605 620 605 466 605 c 0,30,31
EndSplineSet
Validated: 1
EndChar

StartChar: foursuperior
Encoding: 8308 8308 328
Width: 666
Flags: HW
LayerCount: 2
Fore
SplineSet
606 107 m 1,0,-1
 606 0 l 1,1,-1
 267 0 l 1,2,-1
 267 107 l 1,3,-1
 385 107 l 1,4,-1
 385 242 l 1,5,-1
 29 242 l 1,6,-1
 29 363 l 1,7,-1
 374 865 l 1,8,-1
 511 865 l 1,9,-1
 511 345 l 1,10,-1
 635 345 l 1,11,-1
 635 242 l 1,12,-1
 511 242 l 1,13,-1
 511 107 l 1,14,-1
 606 107 l 1,0,-1
385 345 m 1,15,-1
 385 689 l 1,16,-1
 152 345 l 1,17,-1
 385 345 l 1,15,-1
EndSplineSet
Validated: 1
EndChar
